<svg width="840" height="347" viewBox="0 0 840 347" fill="none" xmlns="http://www.w3.org/2000/svg">
<g filter="url(#filter0_f)">
<path d="M547.02 223.973V197.898H521.558V223.973H547.02Z" fill="#B3BEDA"/>
<path d="M73.6949 130.377C52.5624 130.377 34.0647 144.559 28.5951 164.953C23.1258 185.348 32.0481 206.87 50.3492 217.427C68.65 227.984 91.7664 224.944 106.71 210.014L88.5645 191.885C82.55 197.894 73.5048 199.692 65.6467 196.44C57.7885 193.188 52.6647 185.526 52.6647 177.028C52.6647 168.53 57.7886 160.868 65.6467 157.616C73.5048 154.364 82.5501 156.162 88.5645 162.171L106.71 144.04C97.9731 135.263 86.0849 130.343 73.6949 130.377Z" fill="#B3BEDA"/>
<path d="M144.404 76H118.743V224.305H144.404V76Z" fill="#B3BEDA"/>
<path d="M160.159 131.004H160.156C154.754 130.999 149.403 132.054 144.409 134.112V134.126L144.404 134.113V134.112C128.89 140.505 118.76 155.61 118.743 172.378V224.305H144.404V172.379V167.932L144.409 167.898V172.379C144.409 163.689 151.46 156.644 160.158 156.644C168.855 156.644 175.907 163.689 175.907 172.379V224.306H201.568V172.379C201.543 149.54 183.019 131.03 160.159 131.004Z" fill="#B3BEDA"/>
<path d="M144.404 134.112C128.89 140.505 118.76 155.61 118.743 172.378V224.305H144.404V172.379V167.932V134.112Z" fill="#DADFED"/>
<path d="M311.155 171.208L306.115 159.299L306.035 159.112L306.02 159.074L305.953 158.917L305.937 158.882L305.857 158.7L305.84 158.659L305.786 158.536L305.74 158.434L305.72 158.388C304.469 155.601 302.947 152.942 301.177 150.451H301.174L217.043 185.172C218.303 192.861 221.514 200.098 226.37 206.195L311.155 171.208Z" fill="#B3BEDA"/>
<path d="M264.026 197.967C260.217 198.104 256.454 197.113 253.207 195.119C252.937 194.945 252.671 194.763 252.411 194.573C247.766 191.186 242.106 185.208 243.38 174.302V174.277C244.159 167.13 248.684 160.935 255.26 158.015C257.557 157.001 260.041 156.482 262.552 156.491C267.052 156.497 271.423 157.993 274.982 160.746C275.116 160.859 275.249 160.976 275.381 161.097L275.384 161.096C282.215 167.35 285.264 181.825 285.277 181.891L311.153 171.208L306.114 159.299L306.034 159.112L306.018 159.074L305.951 158.917L305.935 158.882L305.855 158.7L305.839 158.659L305.784 158.536L305.739 158.434L305.719 158.388C305.668 158.274 305.601 158.168 305.549 158.054C305.025 156.907 304.451 155.793 303.843 154.704C303.659 154.375 303.463 154.054 303.271 153.73C302.708 152.776 302.115 151.848 301.49 150.943C301.379 150.783 301.288 150.61 301.175 150.451H301.172L301.156 150.458C292.512 138.281 278.401 130.794 263.088 130.815L263.099 130.811C237.324 130.839 216.436 151.708 216.407 177.46C216.407 180.093 216.676 182.649 217.089 185.152L217.041 185.172C217.105 185.56 217.195 185.941 217.269 186.327C217.339 186.696 217.407 187.065 217.486 187.431C217.758 188.689 218.077 189.932 218.453 191.159C218.553 191.486 218.669 191.803 218.776 192.127C219.111 193.138 219.481 194.136 219.885 195.12C220.015 195.436 220.133 195.756 220.27 196.067C220.766 197.202 221.316 198.313 221.904 199.404C222.099 199.764 222.303 200.118 222.507 200.473C223.041 201.404 223.605 202.318 224.205 203.211C224.346 203.42 224.474 203.64 224.619 203.847C225.176 204.647 225.759 205.43 226.368 206.195C226.368 206.194 226.368 206.195 226.368 206.195L226.407 206.179C235.136 217.139 248.824 224.11 264.531 224.11C278.455 224.11 289.622 219.671 301.851 209.27L285.221 189.744C277.642 196.187 271.723 197.967 264.026 197.967Z" fill="#B3BEDA"/>
<path d="M301.156 150.458L275.38 161.096C275.381 161.096 275.381 161.096 275.382 161.097L275.385 161.096C282.205 167.34 285.254 181.777 285.276 181.886L311.154 171.208L306.115 159.299L306.035 159.112L306.019 159.074L305.952 158.917L305.936 158.882L305.856 158.7L305.839 158.659L305.785 158.536L305.739 158.434L305.72 158.388C305.668 158.274 305.602 158.168 305.55 158.054C305.148 157.176 304.696 156.332 304.243 155.488C304.105 155.229 303.987 154.96 303.844 154.704C303.66 154.375 303.464 154.054 303.272 153.73C302.891 153.083 302.475 152.466 302.066 151.843C301.763 151.382 301.495 150.9 301.176 150.451H301.173L301.156 150.458Z" fill="#DADFED"/>
<path d="M226.371 206.194L226.408 206.179L253.209 195.119C253.209 195.119 253.209 195.118 253.208 195.118L252.363 195.467L252.361 195.468L252.362 195.467L253.207 195.118C252.937 194.945 252.672 194.763 252.413 194.573C247.767 191.186 242.108 185.208 243.382 174.302V174.302L217.043 185.172C217.107 185.56 217.197 185.941 217.27 186.327C217.279 186.374 217.289 186.42 217.298 186.468C217.361 186.79 217.419 187.113 217.488 187.433C217.76 188.69 218.079 189.933 218.454 191.159C218.554 191.486 218.67 191.803 218.777 192.127C219.112 193.138 219.482 194.136 219.887 195.12C220.016 195.436 220.135 195.756 220.271 196.067C220.768 197.202 221.318 198.313 221.905 199.404C221.926 199.441 221.948 199.479 221.969 199.517C222.145 199.838 222.326 200.155 222.508 200.473C223.042 201.404 223.605 202.316 224.205 203.208C224.347 203.42 224.476 203.64 224.622 203.849C225.178 204.648 225.761 205.43 226.37 206.195L226.371 206.194H226.371V206.194Z" fill="#DADFED"/>
<path d="M368.346 130.377C347.214 130.377 328.716 144.559 323.246 164.953C317.777 185.348 326.699 206.87 345.001 217.427C363.301 227.984 386.418 224.944 401.361 210.014L383.216 191.885C377.201 197.894 368.156 199.692 360.298 196.44C352.44 193.188 347.316 185.526 347.316 177.028C347.316 168.53 352.44 160.868 360.298 157.616C368.156 154.364 377.201 156.162 383.216 162.171L401.361 144.04C392.624 135.263 380.736 130.343 368.346 130.377Z" fill="#B3BEDA"/>
<path d="M457.804 130.695C432.031 130.726 411.145 151.593 411.115 177.343C411.114 196.212 422.489 213.223 439.937 220.444C457.384 227.664 477.467 223.673 490.821 210.331C504.175 196.989 508.169 176.924 500.942 159.492C493.715 142.06 476.689 130.694 457.804 130.695ZM457.804 198.353C446.195 198.339 436.788 188.939 436.774 177.341C436.774 168.842 441.899 161.18 449.757 157.928C457.616 154.675 466.662 156.473 472.677 162.483C478.692 168.493 480.491 177.531 477.235 185.383C473.98 193.234 466.311 198.354 457.804 198.353Z" fill="#BDD2E5"/>
<path d="M504.503 130.695H478.842V279H504.503V130.695Z" fill="#9AAFD4"/>
<path d="M478.842 135.728C488.615 140.662 496.574 148.957 500.942 159.492C508.169 176.924 504.175 196.989 490.821 210.331C487.252 213.897 483.193 216.772 478.842 218.966V135.728Z" fill="#A4BDD8"/>
<path d="M457.804 130.695C432.031 130.726 411.145 151.593 411.115 177.343C411.114 196.212 422.489 213.223 439.937 220.444C457.384 227.664 477.467 223.673 490.821 210.331C504.175 196.989 508.169 176.924 500.942 159.492C493.715 142.06 476.689 130.694 457.804 130.695ZM457.804 198.353C446.195 198.339 436.788 188.939 436.774 177.341C436.774 168.842 441.899 161.18 449.757 157.928C457.616 154.675 466.662 156.473 472.677 162.483C478.692 168.493 480.491 177.531 477.235 185.383C473.98 193.234 466.311 198.354 457.804 198.353Z" fill="#B3BEDA"/>
<path d="M504.503 130.695H478.842V279H504.503V130.695Z" fill="#B3BEDA"/>
<path d="M478.842 135.728C488.615 140.662 496.574 148.957 500.942 159.492C508.169 176.924 504.175 196.989 490.821 210.331C487.252 213.897 483.193 216.772 478.842 218.966V135.728Z" fill="#DADFED"/>
<path d="M633.464 141.939V141.935C633.463 141.936 633.462 141.936 633.461 141.937C625.856 134.715 615.762 130.691 605.269 130.699V130.695C600.003 130.689 594.786 131.702 589.905 133.677V133.676C574.409 139.95 564.262 154.978 564.244 171.683V224.059H589.905V171.687C589.905 163.209 596.784 156.336 605.269 156.336C613.754 156.336 620.633 163.209 620.633 171.687V224.059H646.294V171.687C646.3 160.429 641.658 149.667 633.464 141.939Z" fill="#B3BEDA"/>
<path d="M689.854 141.939V141.935C689.854 141.936 689.853 141.936 689.852 141.937C682.247 134.715 672.153 130.691 661.66 130.699V130.695C656.394 130.689 651.177 131.702 646.295 133.677V133.676C630.799 139.95 620.653 154.978 620.634 171.683V224.059H646.295V171.687C646.295 163.209 653.175 156.336 661.66 156.336C670.145 156.336 677.024 163.209 677.024 171.687V224.059H702.685V171.687C702.69 160.429 698.049 149.667 689.854 141.939Z" fill="#B3BEDA"/>
<path d="M633.463 141.939V141.935C633.462 141.936 633.462 141.936 633.461 141.937C633.459 141.935 633.457 141.934 633.455 141.932C625.437 149.53 620.647 160.211 620.634 171.683V224.059H646.294V171.687C646.3 160.429 641.658 149.667 633.463 141.939Z" fill="#DADFED"/>
<path d="M812.188 171.208L807.148 159.299L807.068 159.112L807.052 159.074L806.985 158.917L806.969 158.882L806.89 158.7L806.873 158.659L806.819 158.536L806.773 158.434L806.753 158.388C805.502 155.601 803.98 152.942 802.209 150.451H802.207L718.076 185.172C719.336 192.861 722.547 200.098 727.402 206.195L812.188 171.208Z" fill="#B3BEDA"/>
<path d="M765.061 197.967C761.252 198.104 757.488 197.113 754.242 195.119C753.972 194.945 753.705 194.763 753.446 194.573C748.8 191.186 743.141 185.208 744.415 174.302V174.277C745.194 167.13 749.719 160.935 756.295 158.015C758.591 157.001 761.076 156.482 763.587 156.491C768.087 156.497 772.458 157.993 776.017 160.746C776.151 160.859 776.284 160.976 776.416 161.097L776.419 161.096C783.25 167.35 786.298 181.825 786.311 181.891L812.188 171.208L807.148 159.299L807.069 159.112L807.053 159.074L806.986 158.917L806.97 158.882L806.89 158.7L806.873 158.659L806.819 158.536L806.773 158.434L806.754 158.388C806.702 158.274 806.636 158.168 806.584 158.054C806.059 156.907 805.486 155.793 804.878 154.704C804.694 154.375 804.498 154.054 804.306 153.73C803.743 152.776 803.15 151.848 802.525 150.943C802.414 150.783 802.323 150.61 802.21 150.451H802.207L802.19 150.458C793.546 138.281 779.436 130.794 764.123 130.815L764.134 130.811C738.359 130.839 717.471 151.708 717.442 177.46C717.442 180.093 717.711 182.649 718.124 185.152L718.076 185.172C718.14 185.56 718.23 185.941 718.304 186.327C718.374 186.696 718.442 187.065 718.521 187.431C718.793 188.689 719.111 189.932 719.487 191.159C719.588 191.486 719.703 191.803 719.81 192.127C720.145 193.138 720.515 194.136 720.92 195.12C721.049 195.436 721.168 195.756 721.304 196.067C721.801 197.202 722.351 198.313 722.939 199.404C723.133 199.764 723.338 200.118 723.542 200.473C724.076 201.404 724.639 202.318 725.24 203.211C725.381 203.42 725.509 203.64 725.654 203.847C726.211 204.647 726.794 205.43 727.403 206.195V206.195L727.442 206.179C736.171 217.139 749.859 224.11 765.565 224.11C779.489 224.11 790.656 219.671 802.886 209.27L786.256 189.744C778.677 196.187 772.758 197.967 765.061 197.967Z" fill="#B3BEDA"/>
<path d="M802.191 150.458L776.415 161.096C776.416 161.096 776.416 161.096 776.417 161.097L776.42 161.096C783.24 167.34 786.289 181.777 786.311 181.886L812.189 171.208L807.149 159.299L807.069 159.112L807.053 159.074L806.987 158.917L806.971 158.882L806.891 158.7L806.874 158.659L806.82 158.536L806.774 158.434L806.754 158.388C806.703 158.274 806.636 158.168 806.584 158.054C806.183 157.176 805.73 156.332 805.278 155.488C805.139 155.229 805.022 154.96 804.878 154.704C804.694 154.375 804.499 154.054 804.307 153.73C803.926 153.083 803.51 152.466 803.1 151.843C802.797 151.382 802.53 150.9 802.211 150.451H802.208L802.191 150.458Z" fill="#DADFED"/>
<path d="M727.404 206.194L727.441 206.179L754.242 195.119C754.242 195.119 754.241 195.118 754.241 195.118L753.396 195.467L753.394 195.468L753.394 195.467L754.24 195.118C753.97 194.945 753.705 194.763 753.446 194.573C748.8 191.186 743.14 185.208 744.414 174.302V174.302L718.076 185.172C718.139 185.56 718.23 185.941 718.303 186.327C718.312 186.374 718.322 186.42 718.331 186.468C718.393 186.79 718.452 187.113 718.521 187.433C718.793 188.69 719.111 189.933 719.487 191.159C719.587 191.486 719.703 191.803 719.81 192.127C720.145 193.138 720.515 194.136 720.92 195.12C721.049 195.436 721.168 195.756 721.304 196.067C721.801 197.202 722.35 198.313 722.938 199.404C722.959 199.441 722.981 199.479 723.002 199.517C723.178 199.838 723.359 200.155 723.541 200.473C724.075 201.404 724.638 202.316 725.238 203.208C725.38 203.42 725.509 203.64 725.654 203.849C726.211 204.648 726.793 205.43 727.402 206.195L727.403 206.194H727.404V206.194Z" fill="#DADFED"/>
</g>
<g filter="url(#filter1_d)">
<path d="M318.947 194.597H337.52V227.224H318.947V266H276.658V227.224H206.008L203.498 201.374L276.658 83.6655V83.2891H318.947V194.597ZM243.78 194.597H276.658V138.378L274.022 142.645L243.78 194.597ZM482.96 191.334C482.96 216.014 477.397 235.046 466.271 248.432C455.228 261.817 439.625 268.51 419.463 268.51C399.134 268.51 383.406 261.775 372.28 248.306C361.153 234.837 355.59 215.847 355.59 191.334V157.955C355.59 133.275 361.111 114.243 372.154 100.857C383.281 87.472 398.967 80.7793 419.212 80.7793C439.458 80.7793 455.144 87.5138 466.271 100.983C477.397 114.452 482.96 133.484 482.96 158.08V191.334ZM440.671 152.559C440.671 139.424 438.956 129.636 435.526 123.194C432.096 116.669 426.658 113.406 419.212 113.406C411.934 113.406 406.622 116.418 403.275 122.441C400.013 128.465 398.256 137.584 398.005 149.798V196.479C398.005 210.116 399.72 220.113 403.15 226.471C406.58 232.746 412.018 235.883 419.463 235.883C426.658 235.883 431.97 232.829 435.4 226.722C438.83 220.531 440.587 210.869 440.671 197.734V152.559ZM616.605 194.597H635.178V227.224H616.605V266H574.316V227.224H503.666L501.156 201.374L574.316 83.6655V83.2891H616.605V194.597ZM541.438 194.597H574.316V138.378L571.681 142.645L541.438 194.597Z" fill="#FBFBFF"/>
</g>
<defs>
<filter id="filter0_f" x="0" y="49" width="839.189" height="257" filterUnits="userSpaceOnUse" color-interpolation-filters="sRGB">
<feFlood flood-opacity="0" result="BackgroundImageFix"/>
<feBlend mode="normal" in="SourceGraphic" in2="BackgroundImageFix" result="shape"/>
<feGaussianBlur stdDeviation="13.5" result="effect1_foregroundBlur"/>
</filter>
<filter id="filter1_d" x="124.498" y="0.779297" width="589.68" height="345.73" filterUnits="userSpaceOnUse" color-interpolation-filters="sRGB">
<feFlood flood-opacity="0" result="BackgroundImageFix"/>
<feColorMatrix in="SourceAlpha" type="matrix" values="0 0 0 0 0 0 0 0 0 0 0 0 0 0 0 0 0 0 127 0"/>
<feOffset dy="-1"/>
<feGaussianBlur stdDeviation="39.5"/>
<feColorMatrix type="matrix" values="0 0 0 0 0 0 0 0 0 0 0 0 0 0 0 0 0 0 0.21 0"/>
<feBlend mode="normal" in2="BackgroundImageFix" result="effect1_dropShadow"/>
<feBlend mode="normal" in="SourceGraphic" in2="effect1_dropShadow" result="shape"/>
</filter>
</defs>
</svg>
