<svg width="1440" height="970" viewBox="0 0 1440 970" fill="none" xmlns="http://www.w3.org/2000/svg">
<rect width="1440" height="970" fill="#374293"/>
<path d="M1302.56 672C1327.13 767.766 1440 901 1440 901L1440 1.00006H482.5C574.756 1.00007 761 34 836.5 122.5C912 211 1054.5 228 1169.5 305.5C1284.5 383 1291.4 628.479 1302.56 672Z" fill="#2D377B"/>
<path d="M108.5 291.5C15 211 33.2672 69.1499 0 0.999939L8.24905e-05 970H964.178C871.922 970 658.152 892.94 603.5 765C548.848 637.06 436.088 626.608 294.194 570.465C152.299 514.323 202 372 108.5 291.5Z" fill="#2D377B"/>
</svg>
