<svg width="12" height="12" viewBox="0 0 12 12" fill="none" xmlns="http://www.w3.org/2000/svg">
<path d="M1.5 1.5H10.5C10.6326 1.5 10.7598 1.55268 10.8536 1.64645C10.9473 1.74021 11 1.86739 11 2V10C11 10.1326 10.9473 10.2598 10.8536 10.3536C10.7598 10.4473 10.6326 10.5 10.5 10.5H1.5C1.36739 10.5 1.24021 10.4473 1.14645 10.3536C1.05268 10.2598 1 10.1326 1 10V2C1 1.86739 1.05268 1.74021 1.14645 1.64645C1.24021 1.55268 1.36739 1.5 1.5 1.5ZM6.03 5.8415L3.20497 3.44252C2.99455 3.26383 2.67912 3.2895 2.50036 3.49987C2.32152 3.71034 2.34722 4.02595 2.55775 4.20472L5.38309 6.6037C5.75908 6.92295 6.3117 6.92036 6.68469 6.59761L9.44907 4.20553C9.65782 4.02489 9.68069 3.70926 9.50015 3.50042C9.31949 3.29145 9.00361 3.26856 8.79472 3.44931L6.03 5.8415Z" fill="#A6A6A6"/>
</svg>
