<svg width="138" height="97" viewBox="0 0 138 97" fill="none" xmlns="http://www.w3.org/2000/svg">
<path d="M52.3864 45.4602C51.2818 45.4602 50.3733 44.5612 50.5128 43.4655C50.9528 40.0093 52.5274 36.7741 55.0194 34.2841C57.9859 31.3201 62.0093 29.6549 66.2045 29.6549C70.3997 29.6549 74.4231 31.3201 77.3896 34.2841C79.8816 36.7741 81.4562 40.0093 81.8962 43.4655C82.0357 44.5612 81.1272 45.4602 80.0226 45.4602H52.3864ZM66.2045 27.6792C59.6499 27.6792 54.3409 22.3745 54.3409 15.8252C54.3409 9.27586 59.6499 3.97119 66.2045 3.97119C72.7591 3.97119 78.0681 9.27586 78.0681 15.8252C78.0681 22.3745 72.7591 27.6792 66.2045 27.6792ZM82.828 34.7584C82.2876 33.922 83.0274 32.8354 83.9112 33.2942C85.6564 34.2003 87.2141 35.4493 88.485 36.9783C90.2516 39.1038 91.3842 41.6744 91.7654 44.3967C91.8456 44.9698 91.3847 45.4602 90.8061 45.4602H87.9772C86.8726 45.4602 85.9878 44.5624 85.8774 43.4633C85.5574 40.2776 84.4799 37.3154 82.828 34.7584ZM80.0094 27.489C78.7525 27.7403 78.1946 26.217 78.9545 25.1847C79.6209 24.2795 80.1904 23.3031 80.6515 22.2713C81.5579 20.2431 82.0252 18.0464 82.0226 15.8252C82.0251 14.218 81.7812 12.6266 81.305 11.1047C80.9221 9.88152 81.9446 8.62179 83.0518 9.26751C84.0612 9.85623 84.9656 10.6234 85.7171 11.5404C87.1643 13.3063 87.9549 15.5184 87.9544 17.8009C87.955 19.2085 87.6544 20.5999 87.0728 21.8819C86.4912 23.164 85.6421 24.307 84.5823 25.2344C83.5226 26.1618 82.2766 26.8521 80.9281 27.2591C80.6251 27.3505 80.3185 27.4272 80.0094 27.489Z" fill="#A6A6A6"/>
<rect x="44.5858" y="46.7773" width="63.9105" height="5.6289" rx="2.81445" transform="rotate(-45 44.5858 46.7773)" fill="#A6A6A6" stroke="white" stroke-width="2"/>
<path d="M6.05469 67.0156L8.67188 61.625H10.8594L7.04688 68.8125V73H5.0625V68.8125L1.24219 61.625H3.4375L6.05469 67.0156ZM11.0391 68.6953C11.0391 67.8672 11.2031 67.1224 11.5312 66.4609C11.8594 65.7943 12.3203 65.2839 12.9141 64.9297C13.5078 64.5703 14.1901 64.3906 14.9609 64.3906C16.1016 64.3906 17.026 64.7578 17.7344 65.4922C18.4479 66.2266 18.8333 67.2005 18.8906 68.4141L18.8984 68.8594C18.8984 69.6927 18.737 70.4375 18.4141 71.0938C18.0964 71.75 17.638 72.2578 17.0391 72.6172C16.4453 72.9766 15.7578 73.1562 14.9766 73.1562C13.7839 73.1562 12.8281 72.7604 12.1094 71.9688C11.3958 71.1719 11.0391 70.112 11.0391 68.7891V68.6953ZM12.9375 68.8594C12.9375 69.7292 13.1172 70.4115 13.4766 70.9062C13.8359 71.3958 14.3359 71.6406 14.9766 71.6406C15.6172 71.6406 16.1146 71.3906 16.4688 70.8906C16.8281 70.3906 17.0078 69.6589 17.0078 68.6953C17.0078 67.8411 16.8229 67.1641 16.4531 66.6641C16.0885 66.1641 15.5911 65.9141 14.9609 65.9141C14.3411 65.9141 13.849 66.1615 13.4844 66.6562C13.1198 67.1458 12.9375 67.8802 12.9375 68.8594ZM25.625 72.1719C25.0677 72.8281 24.276 73.1562 23.25 73.1562C22.3333 73.1562 21.638 72.888 21.1641 72.3516C20.6953 71.8151 20.4609 71.0391 20.4609 70.0234V64.5469H22.3594V70C22.3594 71.0729 22.8047 71.6094 23.6953 71.6094C24.6172 71.6094 25.2396 71.2786 25.5625 70.6172V64.5469H27.4609V73H25.6719L25.625 72.1719ZM38.4297 73C38.3464 72.8385 38.2734 72.5755 38.2109 72.2109C37.6068 72.8411 36.8672 73.1562 35.9922 73.1562C35.1432 73.1562 34.4505 72.9141 33.9141 72.4297C33.3776 71.9453 33.1094 71.3464 33.1094 70.6328C33.1094 69.7318 33.4427 69.0417 34.1094 68.5625C34.7812 68.0781 35.7396 67.8359 36.9844 67.8359H38.1484V67.2812C38.1484 66.8438 38.026 66.4948 37.7812 66.2344C37.5365 65.9688 37.1641 65.8359 36.6641 65.8359C36.2318 65.8359 35.8776 65.9453 35.6016 66.1641C35.3255 66.3776 35.1875 66.651 35.1875 66.9844H33.2891C33.2891 66.5208 33.4427 66.0885 33.75 65.6875C34.0573 65.2812 34.474 64.9635 35 64.7344C35.5312 64.5052 36.1224 64.3906 36.7734 64.3906C37.763 64.3906 38.5521 64.6406 39.1406 65.1406C39.7292 65.6354 40.0312 66.3333 40.0469 67.2344V71.0469C40.0469 71.8073 40.1536 72.4141 40.3672 72.8672V73H38.4297ZM36.3438 71.6328C36.7188 71.6328 37.0703 71.5417 37.3984 71.3594C37.7318 71.1771 37.9818 70.9323 38.1484 70.625V69.0312H37.125C36.4219 69.0312 35.8932 69.1536 35.5391 69.3984C35.1849 69.6432 35.0078 69.9896 35.0078 70.4375C35.0078 70.8021 35.1276 71.0938 35.3672 71.3125C35.612 71.526 35.9375 71.6328 36.3438 71.6328ZM46.4609 66.2812C46.2109 66.2396 45.9531 66.2188 45.6875 66.2188C44.8177 66.2188 44.2318 66.5521 43.9297 67.2188V73H42.0312V64.5469H43.8438L43.8906 65.4922C44.349 64.7578 44.9844 64.3906 45.7969 64.3906C46.0677 64.3906 46.2917 64.4271 46.4688 64.5L46.4609 66.2812ZM51.2266 73.1562C50.0234 73.1562 49.0469 72.7786 48.2969 72.0234C47.5521 71.263 47.1797 70.2526 47.1797 68.9922V68.7578C47.1797 67.9141 47.3411 67.1615 47.6641 66.5C47.9922 65.8333 48.4505 65.3151 49.0391 64.9453C49.6276 64.5755 50.2839 64.3906 51.0078 64.3906C52.1589 64.3906 53.0469 64.7578 53.6719 65.4922C54.3021 66.2266 54.6172 67.2656 54.6172 68.6094V69.375H49.0938C49.151 70.0729 49.3828 70.625 49.7891 71.0312C50.2005 71.4375 50.7161 71.6406 51.3359 71.6406C52.2057 71.6406 52.9141 71.2891 53.4609 70.5859L54.4844 71.5625C54.1458 72.0677 53.6927 72.4609 53.125 72.7422C52.5625 73.0182 51.9297 73.1562 51.2266 73.1562ZM51 65.9141C50.4792 65.9141 50.0573 66.0964 49.7344 66.4609C49.4167 66.8255 49.2135 67.3333 49.125 67.9844H52.7422V67.8438C52.7005 67.2083 52.5312 66.7292 52.2344 66.4062C51.9375 66.0781 51.526 65.9141 51 65.9141ZM61.8438 64.5469L61.8984 65.5234C62.5234 64.7682 63.3438 64.3906 64.3594 64.3906C66.1198 64.3906 67.0156 65.3984 67.0469 67.4141V73H65.1484V67.5234C65.1484 66.987 65.0312 66.5911 64.7969 66.3359C64.5677 66.0755 64.1901 65.9453 63.6641 65.9453C62.8984 65.9453 62.3281 66.2917 61.9531 66.9844V73H60.0547V64.5469H61.8438ZM68.6328 68.6953C68.6328 67.8672 68.7969 67.1224 69.125 66.4609C69.4531 65.7943 69.9141 65.2839 70.5078 64.9297C71.1016 64.5703 71.7839 64.3906 72.5547 64.3906C73.6953 64.3906 74.6198 64.7578 75.3281 65.4922C76.0417 66.2266 76.4271 67.2005 76.4844 68.4141L76.4922 68.8594C76.4922 69.6927 76.3307 70.4375 76.0078 71.0938C75.6901 71.75 75.2318 72.2578 74.6328 72.6172C74.0391 72.9766 73.3516 73.1562 72.5703 73.1562C71.3776 73.1562 70.4219 72.7604 69.7031 71.9688C68.9896 71.1719 68.6328 70.112 68.6328 68.7891V68.6953ZM70.5312 68.8594C70.5312 69.7292 70.7109 70.4115 71.0703 70.9062C71.4297 71.3958 71.9297 71.6406 72.5703 71.6406C73.2109 71.6406 73.7083 71.3906 74.0625 70.8906C74.4219 70.3906 74.6016 69.6589 74.6016 68.6953C74.6016 67.8411 74.4167 67.1641 74.0469 66.6641C73.6823 66.1641 73.1849 65.9141 72.5547 65.9141C71.9349 65.9141 71.4427 66.1615 71.0781 66.6562C70.7135 67.1458 70.5312 67.8802 70.5312 68.8594ZM80.4766 62.4922V64.5469H81.9688V65.9531H80.4766V70.6719C80.4766 70.9948 80.5391 71.2292 80.6641 71.375C80.7943 71.5156 81.0234 71.5859 81.3516 71.5859C81.5703 71.5859 81.7917 71.5599 82.0156 71.5078V72.9766C81.5833 73.0964 81.1667 73.1562 80.7656 73.1562C79.3073 73.1562 78.5781 72.3516 78.5781 70.7422V65.9531H77.1875V64.5469H78.5781V62.4922H80.4766ZM92.4609 73C92.3776 72.8385 92.3047 72.5755 92.2422 72.2109C91.638 72.8411 90.8984 73.1562 90.0234 73.1562C89.1745 73.1562 88.4818 72.9141 87.9453 72.4297C87.4089 71.9453 87.1406 71.3464 87.1406 70.6328C87.1406 69.7318 87.474 69.0417 88.1406 68.5625C88.8125 68.0781 89.7708 67.8359 91.0156 67.8359H92.1797V67.2812C92.1797 66.8438 92.0573 66.4948 91.8125 66.2344C91.5677 65.9688 91.1953 65.8359 90.6953 65.8359C90.263 65.8359 89.9089 65.9453 89.6328 66.1641C89.3568 66.3776 89.2188 66.651 89.2188 66.9844H87.3203C87.3203 66.5208 87.474 66.0885 87.7812 65.6875C88.0885 65.2812 88.5052 64.9635 89.0312 64.7344C89.5625 64.5052 90.1536 64.3906 90.8047 64.3906C91.7943 64.3906 92.5833 64.6406 93.1719 65.1406C93.7604 65.6354 94.0625 66.3333 94.0781 67.2344V71.0469C94.0781 71.8073 94.1849 72.4141 94.3984 72.8672V73H92.4609ZM90.375 71.6328C90.75 71.6328 91.1016 71.5417 91.4297 71.3594C91.763 71.1771 92.013 70.9323 92.1797 70.625V69.0312H91.1562C90.4531 69.0312 89.9245 69.1536 89.5703 69.3984C89.2161 69.6432 89.0391 69.9896 89.0391 70.4375C89.0391 70.8021 89.1589 71.0938 89.3984 71.3125C89.6432 71.526 89.9688 71.6328 90.375 71.6328ZM107.984 63.2188H104.438V73H102.477V63.2188H98.9609V61.625H107.984V63.2188ZM114.914 70.3516H110.508L109.586 73H107.531L111.828 61.625H113.602L117.906 73H115.844L114.914 70.3516ZM111.062 68.7578H114.359L112.711 64.0391L111.062 68.7578ZM122.648 68.6953C122.648 67.8672 122.812 67.1224 123.141 66.4609C123.469 65.7943 123.93 65.2839 124.523 64.9297C125.117 64.5703 125.799 64.3906 126.57 64.3906C127.711 64.3906 128.635 64.7578 129.344 65.4922C130.057 66.2266 130.443 67.2005 130.5 68.4141L130.508 68.8594C130.508 69.6927 130.346 70.4375 130.023 71.0938C129.706 71.75 129.247 72.2578 128.648 72.6172C128.055 72.9766 127.367 73.1562 126.586 73.1562C125.393 73.1562 124.438 72.7604 123.719 71.9688C123.005 71.1719 122.648 70.112 122.648 68.7891V68.6953ZM124.547 68.8594C124.547 69.7292 124.727 70.4115 125.086 70.9062C125.445 71.3958 125.945 71.6406 126.586 71.6406C127.227 71.6406 127.724 71.3906 128.078 70.8906C128.438 70.3906 128.617 69.6589 128.617 68.6953C128.617 67.8411 128.432 67.1641 128.062 66.6641C127.698 66.1641 127.201 65.9141 126.57 65.9141C125.951 65.9141 125.458 66.1615 125.094 66.6562C124.729 67.1458 124.547 67.8802 124.547 68.8594ZM132.781 73V65.9531H131.492V64.5469H132.781V63.7734C132.781 62.8359 133.042 62.112 133.562 61.6016C134.083 61.0911 134.812 60.8359 135.75 60.8359C136.083 60.8359 136.438 60.8828 136.812 60.9766L136.766 62.4609C136.557 62.4193 136.315 62.3984 136.039 62.3984C135.133 62.3984 134.68 62.8646 134.68 63.7969V64.5469H136.398V65.9531H134.68V73H132.781ZM22.7812 92C22.6979 91.8385 22.625 91.5755 22.5625 91.2109C21.9583 91.8411 21.2188 92.1562 20.3438 92.1562C19.4948 92.1562 18.8021 91.9141 18.2656 91.4297C17.7292 90.9453 17.4609 90.3464 17.4609 89.6328C17.4609 88.7318 17.7943 88.0417 18.4609 87.5625C19.1328 87.0781 20.0911 86.8359 21.3359 86.8359H22.5V86.2812C22.5 85.8438 22.3776 85.4948 22.1328 85.2344C21.888 84.9688 21.5156 84.8359 21.0156 84.8359C20.5833 84.8359 20.2292 84.9453 19.9531 85.1641C19.6771 85.3776 19.5391 85.651 19.5391 85.9844H17.6406C17.6406 85.5208 17.7943 85.0885 18.1016 84.6875C18.4089 84.2812 18.8255 83.9635 19.3516 83.7344C19.8828 83.5052 20.474 83.3906 21.125 83.3906C22.1146 83.3906 22.9036 83.6406 23.4922 84.1406C24.0807 84.6354 24.3828 85.3333 24.3984 86.2344V90.0469C24.3984 90.8073 24.5052 91.4141 24.7188 91.8672V92H22.7812ZM20.6953 90.6328C21.0703 90.6328 21.4219 90.5417 21.75 90.3594C22.0833 90.1771 22.3333 89.9323 22.5 89.625V88.0312H21.4766C20.7734 88.0312 20.2448 88.1536 19.8906 88.3984C19.5365 88.6432 19.3594 88.9896 19.3594 89.4375C19.3594 89.8021 19.4792 90.0938 19.7188 90.3125C19.9635 90.526 20.2891 90.6328 20.6953 90.6328ZM28.1484 83.5469L28.2031 84.5234C28.8281 83.7682 29.6484 83.3906 30.6641 83.3906C32.4245 83.3906 33.3203 84.3984 33.3516 86.4141V92H31.4531V86.5234C31.4531 85.987 31.3359 85.5911 31.1016 85.3359C30.8724 85.0755 30.4948 84.9453 29.9688 84.9453C29.2031 84.9453 28.6328 85.2917 28.2578 85.9844V92H26.3594V83.5469H28.1484ZM38.25 89.2812L39.9688 83.5469H41.9922L38.6328 93.2812C38.1172 94.7031 37.2422 95.4141 36.0078 95.4141C35.7318 95.4141 35.4271 95.3672 35.0938 95.2734V93.8047L35.4531 93.8281C35.9323 93.8281 36.2917 93.7396 36.5312 93.5625C36.776 93.3906 36.9688 93.099 37.1094 92.6875L37.3828 91.9609L34.4141 83.5469H36.4609L38.25 89.2812ZM50.5469 90.6406C51.0208 90.6406 51.4141 90.5026 51.7266 90.2266C52.0391 89.9505 52.2057 89.6094 52.2266 89.2031H54.0156C53.9948 89.7292 53.8307 90.2214 53.5234 90.6797C53.2161 91.1328 52.7995 91.4922 52.2734 91.7578C51.7474 92.0234 51.1797 92.1562 50.5703 92.1562C49.388 92.1562 48.4505 91.7734 47.7578 91.0078C47.0651 90.2422 46.7188 89.1849 46.7188 87.8359V87.6406C46.7188 86.3542 47.0625 85.3255 47.75 84.5547C48.4375 83.7786 49.375 83.3906 50.5625 83.3906C51.5677 83.3906 52.3854 83.6849 53.0156 84.2734C53.651 84.8568 53.9844 85.625 54.0156 86.5781H52.2266C52.2057 86.0938 52.0391 85.6953 51.7266 85.3828C51.4193 85.0703 51.026 84.9141 50.5469 84.9141C49.9323 84.9141 49.4583 85.138 49.125 85.5859C48.7917 86.0286 48.6224 86.7031 48.6172 87.6094V87.9141C48.6172 88.8307 48.7812 89.5156 49.1094 89.9688C49.4427 90.4167 49.9219 90.6406 50.5469 90.6406ZM57.4688 92H55.5703V80H57.4688V92ZM64.5938 92C64.5104 91.8385 64.4375 91.5755 64.375 91.2109C63.7708 91.8411 63.0312 92.1562 62.1562 92.1562C61.3073 92.1562 60.6146 91.9141 60.0781 91.4297C59.5417 90.9453 59.2734 90.3464 59.2734 89.6328C59.2734 88.7318 59.6068 88.0417 60.2734 87.5625C60.9453 87.0781 61.9036 86.8359 63.1484 86.8359H64.3125V86.2812C64.3125 85.8438 64.1901 85.4948 63.9453 85.2344C63.7005 84.9688 63.3281 84.8359 62.8281 84.8359C62.3958 84.8359 62.0417 84.9453 61.7656 85.1641C61.4896 85.3776 61.3516 85.651 61.3516 85.9844H59.4531C59.4531 85.5208 59.6068 85.0885 59.9141 84.6875C60.2214 84.2812 60.638 83.9635 61.1641 83.7344C61.6953 83.5052 62.2865 83.3906 62.9375 83.3906C63.9271 83.3906 64.7161 83.6406 65.3047 84.1406C65.8932 84.6354 66.1953 85.3333 66.2109 86.2344V90.0469C66.2109 90.8073 66.3177 91.4141 66.5312 91.8672V92H64.5938ZM62.5078 90.6328C62.8828 90.6328 63.2344 90.5417 63.5625 90.3594C63.8958 90.1771 64.1458 89.9323 64.3125 89.625V88.0312H63.2891C62.5859 88.0312 62.0573 88.1536 61.7031 88.3984C61.349 88.6432 61.1719 88.9896 61.1719 89.4375C61.1719 89.8021 61.2917 90.0938 61.5312 90.3125C61.776 90.526 62.1016 90.6328 62.5078 90.6328ZM72.9375 89.7031C72.9375 89.3646 72.7969 89.1068 72.5156 88.9297C72.2396 88.7526 71.7786 88.5964 71.1328 88.4609C70.487 88.3255 69.9479 88.1536 69.5156 87.9453C68.5677 87.487 68.0938 86.8229 68.0938 85.9531C68.0938 85.224 68.401 84.6146 69.0156 84.125C69.6302 83.6354 70.4115 83.3906 71.3594 83.3906C72.3698 83.3906 73.1849 83.6406 73.8047 84.1406C74.4297 84.6406 74.7422 85.2891 74.7422 86.0859H72.8438C72.8438 85.7214 72.7083 85.4193 72.4375 85.1797C72.1667 84.9349 71.8073 84.8125 71.3594 84.8125C70.9427 84.8125 70.6016 84.9089 70.3359 85.1016C70.0755 85.2943 69.9453 85.5521 69.9453 85.875C69.9453 86.1667 70.0677 86.3932 70.3125 86.5547C70.5573 86.7161 71.0521 86.8802 71.7969 87.0469C72.5417 87.2083 73.125 87.4036 73.5469 87.6328C73.974 87.8568 74.2891 88.1276 74.4922 88.4453C74.7005 88.763 74.8047 89.1484 74.8047 89.6016C74.8047 90.362 74.4896 90.9792 73.8594 91.4531C73.2292 91.9219 72.4036 92.1562 71.3828 92.1562C70.6901 92.1562 70.0729 92.0312 69.5312 91.7812C68.9896 91.5312 68.5677 91.1875 68.2656 90.75C67.9635 90.3125 67.8125 89.8411 67.8125 89.3359H69.6562C69.6823 89.7839 69.8516 90.1302 70.1641 90.375C70.4766 90.6146 70.8906 90.7344 71.4062 90.7344C71.9062 90.7344 72.2865 90.6406 72.5469 90.4531C72.8073 90.2604 72.9375 90.0104 72.9375 89.7031ZM81.2031 89.7031C81.2031 89.3646 81.0625 89.1068 80.7812 88.9297C80.5052 88.7526 80.0443 88.5964 79.3984 88.4609C78.7526 88.3255 78.2135 88.1536 77.7812 87.9453C76.8333 87.487 76.3594 86.8229 76.3594 85.9531C76.3594 85.224 76.6667 84.6146 77.2812 84.125C77.8958 83.6354 78.6771 83.3906 79.625 83.3906C80.6354 83.3906 81.4505 83.6406 82.0703 84.1406C82.6953 84.6406 83.0078 85.2891 83.0078 86.0859H81.1094C81.1094 85.7214 80.974 85.4193 80.7031 85.1797C80.4323 84.9349 80.0729 84.8125 79.625 84.8125C79.2083 84.8125 78.8672 84.9089 78.6016 85.1016C78.3411 85.2943 78.2109 85.5521 78.2109 85.875C78.2109 86.1667 78.3333 86.3932 78.5781 86.5547C78.8229 86.7161 79.3177 86.8802 80.0625 87.0469C80.8073 87.2083 81.3906 87.4036 81.8125 87.6328C82.2396 87.8568 82.5547 88.1276 82.7578 88.4453C82.9661 88.763 83.0703 89.1484 83.0703 89.6016C83.0703 90.362 82.7552 90.9792 82.125 91.4531C81.4948 91.9219 80.6693 92.1562 79.6484 92.1562C78.9557 92.1562 78.3385 92.0312 77.7969 91.7812C77.2552 91.5312 76.8333 91.1875 76.5312 90.75C76.2292 90.3125 76.0781 89.8411 76.0781 89.3359H77.9219C77.9479 89.7839 78.1172 90.1302 78.4297 90.375C78.7422 90.6146 79.1562 90.7344 79.6719 90.7344C80.1719 90.7344 80.5521 90.6406 80.8125 90.4531C81.0729 90.2604 81.2031 90.0104 81.2031 89.7031ZM89.1562 85.2812C88.9062 85.2396 88.6484 85.2188 88.3828 85.2188C87.513 85.2188 86.9271 85.5521 86.625 86.2188V92H84.7266V83.5469H86.5391L86.5859 84.4922C87.0443 83.7578 87.6797 83.3906 88.4922 83.3906C88.763 83.3906 88.987 83.4271 89.1641 83.5L89.1562 85.2812ZM89.7188 87.6953C89.7188 86.8672 89.8828 86.1224 90.2109 85.4609C90.5391 84.7943 91 84.2839 91.5938 83.9297C92.1875 83.5703 92.8698 83.3906 93.6406 83.3906C94.7812 83.3906 95.7057 83.7578 96.4141 84.4922C97.1276 85.2266 97.513 86.2005 97.5703 87.4141L97.5781 87.8594C97.5781 88.6927 97.4167 89.4375 97.0938 90.0938C96.776 90.75 96.3177 91.2578 95.7188 91.6172C95.125 91.9766 94.4375 92.1562 93.6562 92.1562C92.4635 92.1562 91.5078 91.7604 90.7891 90.9688C90.0755 90.1719 89.7188 89.112 89.7188 87.7891V87.6953ZM91.6172 87.8594C91.6172 88.7292 91.7969 89.4115 92.1562 89.9062C92.5156 90.3958 93.0156 90.6406 93.6562 90.6406C94.2969 90.6406 94.7943 90.3906 95.1484 89.8906C95.5078 89.3906 95.6875 88.6589 95.6875 87.6953C95.6875 86.8411 95.5026 86.1641 95.1328 85.6641C94.7682 85.1641 94.2708 84.9141 93.6406 84.9141C93.0208 84.9141 92.5286 85.1615 92.1641 85.6562C91.7995 86.1458 91.6172 86.8802 91.6172 87.8594ZM98.8281 87.6953C98.8281 86.8672 98.9922 86.1224 99.3203 85.4609C99.6484 84.7943 100.109 84.2839 100.703 83.9297C101.297 83.5703 101.979 83.3906 102.75 83.3906C103.891 83.3906 104.815 83.7578 105.523 84.4922C106.237 85.2266 106.622 86.2005 106.68 87.4141L106.688 87.8594C106.688 88.6927 106.526 89.4375 106.203 90.0938C105.885 90.75 105.427 91.2578 104.828 91.6172C104.234 91.9766 103.547 92.1562 102.766 92.1562C101.573 92.1562 100.617 91.7604 99.8984 90.9688C99.1849 90.1719 98.8281 89.112 98.8281 87.7891V87.6953ZM100.727 87.8594C100.727 88.7292 100.906 89.4115 101.266 89.9062C101.625 90.3958 102.125 90.6406 102.766 90.6406C103.406 90.6406 103.904 90.3906 104.258 89.8906C104.617 89.3906 104.797 88.6589 104.797 87.6953C104.797 86.8411 104.612 86.1641 104.242 85.6641C103.878 85.1641 103.38 84.9141 102.75 84.9141C102.13 84.9141 101.638 85.1615 101.273 85.6562C100.909 86.1458 100.727 86.8802 100.727 87.8594ZM110.078 83.5469L110.133 84.4297C110.727 83.737 111.539 83.3906 112.57 83.3906C113.701 83.3906 114.474 83.8229 114.891 84.6875C115.505 83.8229 116.37 83.3906 117.484 83.3906C118.417 83.3906 119.109 83.6484 119.562 84.1641C120.021 84.6797 120.255 85.4401 120.266 86.4453V92H118.367V86.5C118.367 85.9635 118.25 85.5703 118.016 85.3203C117.781 85.0703 117.393 84.9453 116.852 84.9453C116.419 84.9453 116.065 85.0625 115.789 85.2969C115.518 85.526 115.328 85.8281 115.219 86.2031L115.227 92H113.328V86.4375C113.302 85.4427 112.794 84.9453 111.805 84.9453C111.044 84.9453 110.505 85.2552 110.188 85.875V92H108.289V83.5469H110.078Z" fill="#A6A6A6"/>
</svg>
