<svg width="138" height="97" viewBox="0 0 138 97" fill="none" xmlns="http://www.w3.org/2000/svg">
<path d="M52.3864 45.4602C51.2818 45.4602 50.3733 44.5612 50.5128 43.4655C50.9528 40.0093 52.5274 36.7741 55.0194 34.2841C57.9859 31.3201 62.0093 29.6549 66.2045 29.6549C70.3997 29.6549 74.4231 31.3201 77.3896 34.2841C79.8816 36.7741 81.4562 40.0093 81.8962 43.4655C82.0357 44.5612 81.1272 45.4602 80.0226 45.4602H52.3864ZM66.2045 27.6792C59.6499 27.6792 54.3409 22.3745 54.3409 15.8252C54.3409 9.27586 59.6499 3.97119 66.2045 3.97119C72.7591 3.97119 78.0681 9.27586 78.0681 15.8252C78.0681 22.3745 72.7591 27.6792 66.2045 27.6792ZM82.828 34.7584C82.2876 33.922 83.0274 32.8354 83.9112 33.2942C85.6564 34.2003 87.2141 35.4493 88.485 36.9783C90.2516 39.1038 91.3842 41.6744 91.7654 44.3967C91.8456 44.9698 91.3847 45.4602 90.8061 45.4602H87.9772C86.8726 45.4602 85.9878 44.5624 85.8774 43.4633C85.5574 40.2776 84.4799 37.3154 82.828 34.7584ZM80.0094 27.489C78.7525 27.7403 78.1946 26.217 78.9545 25.1847C79.6209 24.2795 80.1904 23.3031 80.6515 22.2713C81.5579 20.2431 82.0252 18.0464 82.0226 15.8252C82.0251 14.218 81.7812 12.6266 81.305 11.1047C80.9221 9.88152 81.9446 8.62179 83.0518 9.26751C84.0612 9.85623 84.9656 10.6234 85.7171 11.5404C87.1643 13.3063 87.9549 15.5184 87.9544 17.8009C87.955 19.2085 87.6544 20.5999 87.0728 21.8819C86.4912 23.164 85.6421 24.307 84.5823 25.2344C83.5226 26.1618 82.2766 26.8521 80.9281 27.2591C80.6251 27.3505 80.3185 27.4272 80.0094 27.489Z" fill="#A6A6A6"/>
<rect x="44.5858" y="46.7773" width="63.9105" height="5.6289" rx="2.81445" transform="rotate(-45 44.5858 46.7773)" fill="#A6A6A6" stroke="white" stroke-width="2"/>
<path d="M7.35156 67.0156L9.96875 61.625H12.1562L8.34375 68.8125V73H6.35938V68.8125L2.53906 61.625H4.73438L7.35156 67.0156ZM12.3359 68.6953C12.3359 67.8672 12.5 67.1224 12.8281 66.4609C13.1562 65.7943 13.6172 65.2839 14.2109 64.9297C14.8047 64.5703 15.487 64.3906 16.2578 64.3906C17.3984 64.3906 18.3229 64.7578 19.0312 65.4922C19.7448 66.2266 20.1302 67.2005 20.1875 68.4141L20.1953 68.8594C20.1953 69.6927 20.0339 70.4375 19.7109 71.0938C19.3932 71.75 18.9349 72.2578 18.3359 72.6172C17.7422 72.9766 17.0547 73.1562 16.2734 73.1562C15.0807 73.1562 14.125 72.7604 13.4062 71.9688C12.6927 71.1719 12.3359 70.112 12.3359 68.7891V68.6953ZM14.2344 68.8594C14.2344 69.7292 14.4141 70.4115 14.7734 70.9062C15.1328 71.3958 15.6328 71.6406 16.2734 71.6406C16.9141 71.6406 17.4115 71.3906 17.7656 70.8906C18.125 70.3906 18.3047 69.6589 18.3047 68.6953C18.3047 67.8411 18.1198 67.1641 17.75 66.6641C17.3854 66.1641 16.888 65.9141 16.2578 65.9141C15.638 65.9141 15.1458 66.1615 14.7812 66.6562C14.4167 67.1458 14.2344 67.8802 14.2344 68.8594ZM26.9219 72.1719C26.3646 72.8281 25.5729 73.1562 24.5469 73.1562C23.6302 73.1562 22.9349 72.888 22.4609 72.3516C21.9922 71.8151 21.7578 71.0391 21.7578 70.0234V64.5469H23.6562V70C23.6562 71.0729 24.1016 71.6094 24.9922 71.6094C25.9141 71.6094 26.5365 71.2786 26.8594 70.6172V64.5469H28.7578V73H26.9688L26.9219 72.1719ZM39.7266 73C39.6432 72.8385 39.5703 72.5755 39.5078 72.2109C38.9036 72.8411 38.1641 73.1562 37.2891 73.1562C36.4401 73.1562 35.7474 72.9141 35.2109 72.4297C34.6745 71.9453 34.4062 71.3464 34.4062 70.6328C34.4062 69.7318 34.7396 69.0417 35.4062 68.5625C36.0781 68.0781 37.0365 67.8359 38.2812 67.8359H39.4453V67.2812C39.4453 66.8438 39.3229 66.4948 39.0781 66.2344C38.8333 65.9688 38.4609 65.8359 37.9609 65.8359C37.5286 65.8359 37.1745 65.9453 36.8984 66.1641C36.6224 66.3776 36.4844 66.651 36.4844 66.9844H34.5859C34.5859 66.5208 34.7396 66.0885 35.0469 65.6875C35.3542 65.2812 35.7708 64.9635 36.2969 64.7344C36.8281 64.5052 37.4193 64.3906 38.0703 64.3906C39.0599 64.3906 39.849 64.6406 40.4375 65.1406C41.026 65.6354 41.3281 66.3333 41.3438 67.2344V71.0469C41.3438 71.8073 41.4505 72.4141 41.6641 72.8672V73H39.7266ZM37.6406 71.6328C38.0156 71.6328 38.3672 71.5417 38.6953 71.3594C39.0286 71.1771 39.2786 70.9323 39.4453 70.625V69.0312H38.4219C37.7188 69.0312 37.1901 69.1536 36.8359 69.3984C36.4818 69.6432 36.3047 69.9896 36.3047 70.4375C36.3047 70.8021 36.4245 71.0938 36.6641 71.3125C36.9089 71.526 37.2344 71.6328 37.6406 71.6328ZM47.7578 66.2812C47.5078 66.2396 47.25 66.2188 46.9844 66.2188C46.1146 66.2188 45.5286 66.5521 45.2266 67.2188V73H43.3281V64.5469H45.1406L45.1875 65.4922C45.6458 64.7578 46.2812 64.3906 47.0938 64.3906C47.3646 64.3906 47.5885 64.4271 47.7656 64.5L47.7578 66.2812ZM52.5234 73.1562C51.3203 73.1562 50.3438 72.7786 49.5938 72.0234C48.849 71.263 48.4766 70.2526 48.4766 68.9922V68.7578C48.4766 67.9141 48.638 67.1615 48.9609 66.5C49.2891 65.8333 49.7474 65.3151 50.3359 64.9453C50.9245 64.5755 51.5807 64.3906 52.3047 64.3906C53.4557 64.3906 54.3438 64.7578 54.9688 65.4922C55.599 66.2266 55.9141 67.2656 55.9141 68.6094V69.375H50.3906C50.4479 70.0729 50.6797 70.625 51.0859 71.0312C51.4974 71.4375 52.013 71.6406 52.6328 71.6406C53.5026 71.6406 54.2109 71.2891 54.7578 70.5859L55.7812 71.5625C55.4427 72.0677 54.9896 72.4609 54.4219 72.7422C53.8594 73.0182 53.2266 73.1562 52.5234 73.1562ZM52.2969 65.9141C51.776 65.9141 51.3542 66.0964 51.0312 66.4609C50.7135 66.8255 50.5104 67.3333 50.4219 67.9844H54.0391V67.8438C53.9974 67.2083 53.8281 66.7292 53.5312 66.4062C53.2344 66.0781 52.8229 65.9141 52.2969 65.9141ZM63.1406 64.5469L63.1953 65.5234C63.8203 64.7682 64.6406 64.3906 65.6562 64.3906C67.4167 64.3906 68.3125 65.3984 68.3438 67.4141V73H66.4453V67.5234C66.4453 66.987 66.3281 66.5911 66.0938 66.3359C65.8646 66.0755 65.487 65.9453 64.9609 65.9453C64.1953 65.9453 63.625 66.2917 63.25 66.9844V73H61.3516V64.5469H63.1406ZM69.9297 68.6953C69.9297 67.8672 70.0938 67.1224 70.4219 66.4609C70.75 65.7943 71.2109 65.2839 71.8047 64.9297C72.3984 64.5703 73.0807 64.3906 73.8516 64.3906C74.9922 64.3906 75.9167 64.7578 76.625 65.4922C77.3385 66.2266 77.724 67.2005 77.7812 68.4141L77.7891 68.8594C77.7891 69.6927 77.6276 70.4375 77.3047 71.0938C76.987 71.75 76.5286 72.2578 75.9297 72.6172C75.3359 72.9766 74.6484 73.1562 73.8672 73.1562C72.6745 73.1562 71.7188 72.7604 71 71.9688C70.2865 71.1719 69.9297 70.112 69.9297 68.7891V68.6953ZM71.8281 68.8594C71.8281 69.7292 72.0078 70.4115 72.3672 70.9062C72.7266 71.3958 73.2266 71.6406 73.8672 71.6406C74.5078 71.6406 75.0052 71.3906 75.3594 70.8906C75.7188 70.3906 75.8984 69.6589 75.8984 68.6953C75.8984 67.8411 75.7135 67.1641 75.3438 66.6641C74.9792 66.1641 74.4818 65.9141 73.8516 65.9141C73.2318 65.9141 72.7396 66.1615 72.375 66.6562C72.0104 67.1458 71.8281 67.8802 71.8281 68.8594ZM81.7734 62.4922V64.5469H83.2656V65.9531H81.7734V70.6719C81.7734 70.9948 81.8359 71.2292 81.9609 71.375C82.0911 71.5156 82.3203 71.5859 82.6484 71.5859C82.8672 71.5859 83.0885 71.5599 83.3125 71.5078V72.9766C82.8802 73.0964 82.4635 73.1562 82.0625 73.1562C80.6042 73.1562 79.875 72.3516 79.875 70.7422V65.9531H78.4844V64.5469H79.875V62.4922H81.7734ZM96.1094 68.8594C96.1094 70.1667 95.8125 71.2109 95.2188 71.9922C94.625 72.7682 93.8281 73.1562 92.8281 73.1562C91.901 73.1562 91.1589 72.8516 90.6016 72.2422V76.25H88.7031V64.5469H90.4531L90.5312 65.4062C91.0885 64.7292 91.8464 64.3906 92.8047 64.3906C93.8359 64.3906 94.6432 64.776 95.2266 65.5469C95.8151 66.3125 96.1094 67.3776 96.1094 68.7422V68.8594ZM94.2188 68.6953C94.2188 67.8516 94.0495 67.1823 93.7109 66.6875C93.3776 66.1927 92.8984 65.9453 92.2734 65.9453C91.4974 65.9453 90.9401 66.2656 90.6016 66.9062V70.6562C90.9453 71.3125 91.5078 71.6406 92.2891 71.6406C92.8932 71.6406 93.3646 71.3984 93.7031 70.9141C94.0469 70.4245 94.2188 69.6849 94.2188 68.6953ZM102.773 73C102.69 72.8385 102.617 72.5755 102.555 72.2109C101.951 72.8411 101.211 73.1562 100.336 73.1562C99.487 73.1562 98.7943 72.9141 98.2578 72.4297C97.7214 71.9453 97.4531 71.3464 97.4531 70.6328C97.4531 69.7318 97.7865 69.0417 98.4531 68.5625C99.125 68.0781 100.083 67.8359 101.328 67.8359H102.492V67.2812C102.492 66.8438 102.37 66.4948 102.125 66.2344C101.88 65.9688 101.508 65.8359 101.008 65.8359C100.576 65.8359 100.221 65.9453 99.9453 66.1641C99.6693 66.3776 99.5312 66.651 99.5312 66.9844H97.6328C97.6328 66.5208 97.7865 66.0885 98.0938 65.6875C98.401 65.2812 98.8177 64.9635 99.3438 64.7344C99.875 64.5052 100.466 64.3906 101.117 64.3906C102.107 64.3906 102.896 64.6406 103.484 65.1406C104.073 65.6354 104.375 66.3333 104.391 67.2344V71.0469C104.391 71.8073 104.497 72.4141 104.711 72.8672V73H102.773ZM100.688 71.6328C101.062 71.6328 101.414 71.5417 101.742 71.3594C102.076 71.1771 102.326 70.9323 102.492 70.625V69.0312H101.469C100.766 69.0312 100.237 69.1536 99.8828 69.3984C99.5286 69.6432 99.3516 69.9896 99.3516 70.4375C99.3516 70.8021 99.4714 71.0938 99.7109 71.3125C99.9557 71.526 100.281 71.6328 100.688 71.6328ZM110.805 66.2812C110.555 66.2396 110.297 66.2188 110.031 66.2188C109.161 66.2188 108.576 66.5521 108.273 67.2188V73H106.375V64.5469H108.188L108.234 65.4922C108.693 64.7578 109.328 64.3906 110.141 64.3906C110.411 64.3906 110.635 64.4271 110.812 64.5L110.805 66.2812ZM114.773 62.4922V64.5469H116.266V65.9531H114.773V70.6719C114.773 70.9948 114.836 71.2292 114.961 71.375C115.091 71.5156 115.32 71.5859 115.648 71.5859C115.867 71.5859 116.089 71.5599 116.312 71.5078V72.9766C115.88 73.0964 115.464 73.1562 115.062 73.1562C113.604 73.1562 112.875 72.3516 112.875 70.7422V65.9531H111.484V64.5469H112.875V62.4922H114.773ZM121.352 68.6953C121.352 67.8672 121.516 67.1224 121.844 66.4609C122.172 65.7943 122.633 65.2839 123.227 64.9297C123.82 64.5703 124.503 64.3906 125.273 64.3906C126.414 64.3906 127.339 64.7578 128.047 65.4922C128.76 66.2266 129.146 67.2005 129.203 68.4141L129.211 68.8594C129.211 69.6927 129.049 70.4375 128.727 71.0938C128.409 71.75 127.951 72.2578 127.352 72.6172C126.758 72.9766 126.07 73.1562 125.289 73.1562C124.096 73.1562 123.141 72.7604 122.422 71.9688C121.708 71.1719 121.352 70.112 121.352 68.7891V68.6953ZM123.25 68.8594C123.25 69.7292 123.43 70.4115 123.789 70.9062C124.148 71.3958 124.648 71.6406 125.289 71.6406C125.93 71.6406 126.427 71.3906 126.781 70.8906C127.141 70.3906 127.32 69.6589 127.32 68.6953C127.32 67.8411 127.135 67.1641 126.766 66.6641C126.401 66.1641 125.904 65.9141 125.273 65.9141C124.654 65.9141 124.161 66.1615 123.797 66.6562C123.432 67.1458 123.25 67.8802 123.25 68.8594ZM131.484 73V65.9531H130.195V64.5469H131.484V63.7734C131.484 62.8359 131.745 62.112 132.266 61.6016C132.786 61.0911 133.516 60.8359 134.453 60.8359C134.786 60.8359 135.141 60.8828 135.516 60.9766L135.469 62.4609C135.26 62.4193 135.018 62.3984 134.742 62.3984C133.836 62.3984 133.383 62.8646 133.383 63.7969V64.5469H135.102V65.9531H133.383V73H131.484ZM22.7812 92C22.6979 91.8385 22.625 91.5755 22.5625 91.2109C21.9583 91.8411 21.2188 92.1562 20.3438 92.1562C19.4948 92.1562 18.8021 91.9141 18.2656 91.4297C17.7292 90.9453 17.4609 90.3464 17.4609 89.6328C17.4609 88.7318 17.7943 88.0417 18.4609 87.5625C19.1328 87.0781 20.0911 86.8359 21.3359 86.8359H22.5V86.2812C22.5 85.8438 22.3776 85.4948 22.1328 85.2344C21.888 84.9688 21.5156 84.8359 21.0156 84.8359C20.5833 84.8359 20.2292 84.9453 19.9531 85.1641C19.6771 85.3776 19.5391 85.651 19.5391 85.9844H17.6406C17.6406 85.5208 17.7943 85.0885 18.1016 84.6875C18.4089 84.2812 18.8255 83.9635 19.3516 83.7344C19.8828 83.5052 20.474 83.3906 21.125 83.3906C22.1146 83.3906 22.9036 83.6406 23.4922 84.1406C24.0807 84.6354 24.3828 85.3333 24.3984 86.2344V90.0469C24.3984 90.8073 24.5052 91.4141 24.7188 91.8672V92H22.7812ZM20.6953 90.6328C21.0703 90.6328 21.4219 90.5417 21.75 90.3594C22.0833 90.1771 22.3333 89.9323 22.5 89.625V88.0312H21.4766C20.7734 88.0312 20.2448 88.1536 19.8906 88.3984C19.5365 88.6432 19.3594 88.9896 19.3594 89.4375C19.3594 89.8021 19.4792 90.0938 19.7188 90.3125C19.9635 90.526 20.2891 90.6328 20.6953 90.6328ZM28.1484 83.5469L28.2031 84.5234C28.8281 83.7682 29.6484 83.3906 30.6641 83.3906C32.4245 83.3906 33.3203 84.3984 33.3516 86.4141V92H31.4531V86.5234C31.4531 85.987 31.3359 85.5911 31.1016 85.3359C30.8724 85.0755 30.4948 84.9453 29.9688 84.9453C29.2031 84.9453 28.6328 85.2917 28.2578 85.9844V92H26.3594V83.5469H28.1484ZM38.25 89.2812L39.9688 83.5469H41.9922L38.6328 93.2812C38.1172 94.7031 37.2422 95.4141 36.0078 95.4141C35.7318 95.4141 35.4271 95.3672 35.0938 95.2734V93.8047L35.4531 93.8281C35.9323 93.8281 36.2917 93.7396 36.5312 93.5625C36.776 93.3906 36.9688 93.099 37.1094 92.6875L37.3828 91.9609L34.4141 83.5469H36.4609L38.25 89.2812ZM50.5469 90.6406C51.0208 90.6406 51.4141 90.5026 51.7266 90.2266C52.0391 89.9505 52.2057 89.6094 52.2266 89.2031H54.0156C53.9948 89.7292 53.8307 90.2214 53.5234 90.6797C53.2161 91.1328 52.7995 91.4922 52.2734 91.7578C51.7474 92.0234 51.1797 92.1562 50.5703 92.1562C49.388 92.1562 48.4505 91.7734 47.7578 91.0078C47.0651 90.2422 46.7188 89.1849 46.7188 87.8359V87.6406C46.7188 86.3542 47.0625 85.3255 47.75 84.5547C48.4375 83.7786 49.375 83.3906 50.5625 83.3906C51.5677 83.3906 52.3854 83.6849 53.0156 84.2734C53.651 84.8568 53.9844 85.625 54.0156 86.5781H52.2266C52.2057 86.0938 52.0391 85.6953 51.7266 85.3828C51.4193 85.0703 51.026 84.9141 50.5469 84.9141C49.9323 84.9141 49.4583 85.138 49.125 85.5859C48.7917 86.0286 48.6224 86.7031 48.6172 87.6094V87.9141C48.6172 88.8307 48.7812 89.5156 49.1094 89.9688C49.4427 90.4167 49.9219 90.6406 50.5469 90.6406ZM57.4688 92H55.5703V80H57.4688V92ZM64.5938 92C64.5104 91.8385 64.4375 91.5755 64.375 91.2109C63.7708 91.8411 63.0312 92.1562 62.1562 92.1562C61.3073 92.1562 60.6146 91.9141 60.0781 91.4297C59.5417 90.9453 59.2734 90.3464 59.2734 89.6328C59.2734 88.7318 59.6068 88.0417 60.2734 87.5625C60.9453 87.0781 61.9036 86.8359 63.1484 86.8359H64.3125V86.2812C64.3125 85.8438 64.1901 85.4948 63.9453 85.2344C63.7005 84.9688 63.3281 84.8359 62.8281 84.8359C62.3958 84.8359 62.0417 84.9453 61.7656 85.1641C61.4896 85.3776 61.3516 85.651 61.3516 85.9844H59.4531C59.4531 85.5208 59.6068 85.0885 59.9141 84.6875C60.2214 84.2812 60.638 83.9635 61.1641 83.7344C61.6953 83.5052 62.2865 83.3906 62.9375 83.3906C63.9271 83.3906 64.7161 83.6406 65.3047 84.1406C65.8932 84.6354 66.1953 85.3333 66.2109 86.2344V90.0469C66.2109 90.8073 66.3177 91.4141 66.5312 91.8672V92H64.5938ZM62.5078 90.6328C62.8828 90.6328 63.2344 90.5417 63.5625 90.3594C63.8958 90.1771 64.1458 89.9323 64.3125 89.625V88.0312H63.2891C62.5859 88.0312 62.0573 88.1536 61.7031 88.3984C61.349 88.6432 61.1719 88.9896 61.1719 89.4375C61.1719 89.8021 61.2917 90.0938 61.5312 90.3125C61.776 90.526 62.1016 90.6328 62.5078 90.6328ZM72.9375 89.7031C72.9375 89.3646 72.7969 89.1068 72.5156 88.9297C72.2396 88.7526 71.7786 88.5964 71.1328 88.4609C70.487 88.3255 69.9479 88.1536 69.5156 87.9453C68.5677 87.487 68.0938 86.8229 68.0938 85.9531C68.0938 85.224 68.401 84.6146 69.0156 84.125C69.6302 83.6354 70.4115 83.3906 71.3594 83.3906C72.3698 83.3906 73.1849 83.6406 73.8047 84.1406C74.4297 84.6406 74.7422 85.2891 74.7422 86.0859H72.8438C72.8438 85.7214 72.7083 85.4193 72.4375 85.1797C72.1667 84.9349 71.8073 84.8125 71.3594 84.8125C70.9427 84.8125 70.6016 84.9089 70.3359 85.1016C70.0755 85.2943 69.9453 85.5521 69.9453 85.875C69.9453 86.1667 70.0677 86.3932 70.3125 86.5547C70.5573 86.7161 71.0521 86.8802 71.7969 87.0469C72.5417 87.2083 73.125 87.4036 73.5469 87.6328C73.974 87.8568 74.2891 88.1276 74.4922 88.4453C74.7005 88.763 74.8047 89.1484 74.8047 89.6016C74.8047 90.362 74.4896 90.9792 73.8594 91.4531C73.2292 91.9219 72.4036 92.1562 71.3828 92.1562C70.6901 92.1562 70.0729 92.0312 69.5312 91.7812C68.9896 91.5312 68.5677 91.1875 68.2656 90.75C67.9635 90.3125 67.8125 89.8411 67.8125 89.3359H69.6562C69.6823 89.7839 69.8516 90.1302 70.1641 90.375C70.4766 90.6146 70.8906 90.7344 71.4062 90.7344C71.9062 90.7344 72.2865 90.6406 72.5469 90.4531C72.8073 90.2604 72.9375 90.0104 72.9375 89.7031ZM81.2031 89.7031C81.2031 89.3646 81.0625 89.1068 80.7812 88.9297C80.5052 88.7526 80.0443 88.5964 79.3984 88.4609C78.7526 88.3255 78.2135 88.1536 77.7812 87.9453C76.8333 87.487 76.3594 86.8229 76.3594 85.9531C76.3594 85.224 76.6667 84.6146 77.2812 84.125C77.8958 83.6354 78.6771 83.3906 79.625 83.3906C80.6354 83.3906 81.4505 83.6406 82.0703 84.1406C82.6953 84.6406 83.0078 85.2891 83.0078 86.0859H81.1094C81.1094 85.7214 80.974 85.4193 80.7031 85.1797C80.4323 84.9349 80.0729 84.8125 79.625 84.8125C79.2083 84.8125 78.8672 84.9089 78.6016 85.1016C78.3411 85.2943 78.2109 85.5521 78.2109 85.875C78.2109 86.1667 78.3333 86.3932 78.5781 86.5547C78.8229 86.7161 79.3177 86.8802 80.0625 87.0469C80.8073 87.2083 81.3906 87.4036 81.8125 87.6328C82.2396 87.8568 82.5547 88.1276 82.7578 88.4453C82.9661 88.763 83.0703 89.1484 83.0703 89.6016C83.0703 90.362 82.7552 90.9792 82.125 91.4531C81.4948 91.9219 80.6693 92.1562 79.6484 92.1562C78.9557 92.1562 78.3385 92.0312 77.7969 91.7812C77.2552 91.5312 76.8333 91.1875 76.5312 90.75C76.2292 90.3125 76.0781 89.8411 76.0781 89.3359H77.9219C77.9479 89.7839 78.1172 90.1302 78.4297 90.375C78.7422 90.6146 79.1562 90.7344 79.6719 90.7344C80.1719 90.7344 80.5521 90.6406 80.8125 90.4531C81.0729 90.2604 81.2031 90.0104 81.2031 89.7031ZM89.1562 85.2812C88.9062 85.2396 88.6484 85.2188 88.3828 85.2188C87.513 85.2188 86.9271 85.5521 86.625 86.2188V92H84.7266V83.5469H86.5391L86.5859 84.4922C87.0443 83.7578 87.6797 83.3906 88.4922 83.3906C88.763 83.3906 88.987 83.4271 89.1641 83.5L89.1562 85.2812ZM89.7188 87.6953C89.7188 86.8672 89.8828 86.1224 90.2109 85.4609C90.5391 84.7943 91 84.2839 91.5938 83.9297C92.1875 83.5703 92.8698 83.3906 93.6406 83.3906C94.7812 83.3906 95.7057 83.7578 96.4141 84.4922C97.1276 85.2266 97.513 86.2005 97.5703 87.4141L97.5781 87.8594C97.5781 88.6927 97.4167 89.4375 97.0938 90.0938C96.776 90.75 96.3177 91.2578 95.7188 91.6172C95.125 91.9766 94.4375 92.1562 93.6562 92.1562C92.4635 92.1562 91.5078 91.7604 90.7891 90.9688C90.0755 90.1719 89.7188 89.112 89.7188 87.7891V87.6953ZM91.6172 87.8594C91.6172 88.7292 91.7969 89.4115 92.1562 89.9062C92.5156 90.3958 93.0156 90.6406 93.6562 90.6406C94.2969 90.6406 94.7943 90.3906 95.1484 89.8906C95.5078 89.3906 95.6875 88.6589 95.6875 87.6953C95.6875 86.8411 95.5026 86.1641 95.1328 85.6641C94.7682 85.1641 94.2708 84.9141 93.6406 84.9141C93.0208 84.9141 92.5286 85.1615 92.1641 85.6562C91.7995 86.1458 91.6172 86.8802 91.6172 87.8594ZM98.8281 87.6953C98.8281 86.8672 98.9922 86.1224 99.3203 85.4609C99.6484 84.7943 100.109 84.2839 100.703 83.9297C101.297 83.5703 101.979 83.3906 102.75 83.3906C103.891 83.3906 104.815 83.7578 105.523 84.4922C106.237 85.2266 106.622 86.2005 106.68 87.4141L106.688 87.8594C106.688 88.6927 106.526 89.4375 106.203 90.0938C105.885 90.75 105.427 91.2578 104.828 91.6172C104.234 91.9766 103.547 92.1562 102.766 92.1562C101.573 92.1562 100.617 91.7604 99.8984 90.9688C99.1849 90.1719 98.8281 89.112 98.8281 87.7891V87.6953ZM100.727 87.8594C100.727 88.7292 100.906 89.4115 101.266 89.9062C101.625 90.3958 102.125 90.6406 102.766 90.6406C103.406 90.6406 103.904 90.3906 104.258 89.8906C104.617 89.3906 104.797 88.6589 104.797 87.6953C104.797 86.8411 104.612 86.1641 104.242 85.6641C103.878 85.1641 103.38 84.9141 102.75 84.9141C102.13 84.9141 101.638 85.1615 101.273 85.6562C100.909 86.1458 100.727 86.8802 100.727 87.8594ZM110.078 83.5469L110.133 84.4297C110.727 83.737 111.539 83.3906 112.57 83.3906C113.701 83.3906 114.474 83.8229 114.891 84.6875C115.505 83.8229 116.37 83.3906 117.484 83.3906C118.417 83.3906 119.109 83.6484 119.562 84.1641C120.021 84.6797 120.255 85.4401 120.266 86.4453V92H118.367V86.5C118.367 85.9635 118.25 85.5703 118.016 85.3203C117.781 85.0703 117.393 84.9453 116.852 84.9453C116.419 84.9453 116.065 85.0625 115.789 85.2969C115.518 85.526 115.328 85.8281 115.219 86.2031L115.227 92H113.328V86.4375C113.302 85.4427 112.794 84.9453 111.805 84.9453C111.044 84.9453 110.505 85.2552 110.188 85.875V92H108.289V83.5469H110.078Z" fill="#A6A6A6"/>
</svg>
