<svg width="98" height="97" viewBox="0 0 98 97" fill="none" xmlns="http://www.w3.org/2000/svg">
<path d="M96 48.5C96 74.1619 74.9768 95 49 95C23.0232 95 2 74.1619 2 48.5C2 22.838 23.0232 2 49 2C74.9768 2 96 22.838 96 48.5Z" stroke="#D5D5D5" stroke-width="4"/>
<path d="M32 74C30.8954 74 29.9895 73.1022 30.1005 72.0033C30.5469 67.5842 32.4651 63.4318 35.565 60.2619C39.1282 56.6184 43.9609 54.5714 49 54.5714C54.0391 54.5714 58.8718 56.6184 62.435 60.2619C65.535 63.4318 67.4531 67.5842 67.8995 72.0033C68.0105 73.1022 67.1046 74 66 74H32ZM49 52.1429C41.1269 52.1429 34.75 45.6221 34.75 37.5714C34.75 29.5207 41.1269 23 49 23C56.8731 23 63.25 29.5207 63.25 37.5714C63.25 45.6221 56.8731 52.1429 49 52.1429Z" fill="#D4D4D4"/>
</svg>
