<svg width="12" height="12" viewBox="0 0 12 12" fill="none" xmlns="http://www.w3.org/2000/svg">
<path d="M10.5 9.5H11C11.2761 9.5 11.5 9.72386 11.5 10C11.5 10.2761 11.2761 10.5 11 10.5H1C0.723858 10.5 0.5 10.2761 0.5 10C0.5 9.72386 0.723858 9.5 1 9.5H1.5V2C1.5 1.86739 1.55268 1.74021 1.64645 1.64645C1.74021 1.55268 1.86739 1.5 2 1.5H7C7.13261 1.5 7.25979 1.55268 7.35355 1.64645C7.44732 1.74021 7.5 1.86739 7.5 2V9.5H8.5V4.5H10C10.1326 4.5 10.2598 4.55268 10.3536 4.64645C10.4473 4.74021 10.5 4.86739 10.5 5V9.5ZM4 5.5C3.72386 5.5 3.5 5.72386 3.5 6C3.5 6.27614 3.72386 6.5 4 6.5H5C5.27614 6.5 5.5 6.27614 5.5 6C5.5 5.72386 5.27614 5.5 5 5.5H4ZM4 3.5C3.72386 3.5 3.5 3.72386 3.5 4C3.5 4.27614 3.72386 4.5 4 4.5H5C5.27614 4.5 5.5 4.27614 5.5 4C5.5 3.72386 5.27614 3.5 5 3.5H4Z" fill="#A6A6A6"/>
</svg>
