<?xml version="1.0" standalone="no"?>
<!DOCTYPE svg PUBLIC "-//W3C//DTD SVG 20010904//EN"
 "http://www.w3.org/TR/2001/REC-SVG-20010904/DTD/svg10.dtd">
<svg version="1.0" xmlns="http://www.w3.org/2000/svg"
 width="700.000000pt" height="700.000000pt" viewBox="0 0 700.000000 700.000000"
 preserveAspectRatio="xMidYMid meet">
<metadata>
Created by potrace 1.11, written by Peter Selinger 2001-2013
</metadata>
<g transform="translate(0.000000,700.000000) scale(0.100000,-0.100000)"
fill="#000000" stroke="none">
<path d="M3708 5165 c-1 -1 -48 -6 -103 -10 -55 -4 -102 -8 -105 -10 -3 -2
-26 -6 -50 -10 -58 -8 -223 -51 -264 -69 -17 -7 -71 -31 -120 -52 -281 -121
-555 -367 -719 -644 -44 -76 -127 -251 -127 -270 0 -6 -4 -18 -9 -28 -18 -34
-44 -131 -67 -258 -28 -152 -26 -407 6 -567 36 -185 116 -394 203 -530 21 -32
37 -62 37 -67 0 -6 4 -10 8 -10 4 0 16 -14 27 -32 19 -33 37 -55 115 -143 174
-195 391 -341 640 -432 111 -40 266 -78 365 -89 140 -16 396 -7 485 16 19 5
49 12 65 14 139 25 360 117 510 213 107 69 265 200 265 220 0 4 -139 147 -309
316 l-309 309 -61 -50 c-288 -232 -703 -210 -965 51 -143 143 -209 298 -210
497 -1 130 4 170 34 254 53 153 154 282 290 371 237 154 536 158 775 9 39 -24
85 -57 103 -73 l32 -29 313 312 313 311 -26 28 c-35 40 -142 126 -225 181
-154 103 -371 195 -550 232 -86 18 -148 26 -235 30 -58 3 -110 7 -117 9 -6 2
-13 2 -15 0z"/>
</g>
</svg>
