<svg width="114" height="27" viewBox="0 0 114 27" fill="none" xmlns="http://www.w3.org/2000/svg">
<path d="M11 20C10.4477 20 9.98983 19.5478 10.1007 19.0068C10.294 18.0635 10.7601 17.1892 11.4517 16.4981C12.3812 15.5694 13.6419 15.0476 14.9564 15.0476C16.2709 15.0476 17.5316 15.5694 18.4611 16.4981C19.1527 17.1892 19.6188 18.0635 19.8121 19.0068C19.923 19.5478 19.4651 20 18.9128 20H11ZM14.9564 14.4286C12.9026 14.4286 11.2391 12.7664 11.2391 10.7143C11.2391 8.66214 12.9026 7 14.9564 7C17.0102 7 18.6737 8.66214 18.6737 10.7143C18.6737 12.7664 17.0102 14.4286 14.9564 14.4286ZM20.1406 16.609C19.9766 16.3593 20.198 16.0323 20.4645 16.1674C21.0275 16.4528 21.5298 16.8516 21.9377 17.3423C22.358 17.848 22.6638 18.4341 22.8389 19.0604C22.9781 19.558 22.5618 20 22.045 20V20C21.5517 20 21.1587 19.5981 21.0883 19.1099C20.9567 18.1966 20.6255 17.3479 20.1406 16.609ZM19.3458 14.3555C18.9287 14.4481 18.741 13.9416 18.9898 13.5942C19.1822 13.3255 19.3476 13.0374 19.4832 12.7341C19.7672 12.0986 19.9136 11.4103 19.9128 10.7143C19.9135 10.2326 19.8437 9.75547 19.707 9.29758C19.5848 8.88819 19.9268 8.47003 20.2913 8.69299C20.585 8.87272 20.8489 9.10146 21.0704 9.37169C21.5239 9.92501 21.7716 10.6182 21.7714 11.3333C21.7716 11.7744 21.6774 12.2104 21.4952 12.6121C21.313 13.0138 21.0469 13.3719 20.7148 13.6625C20.3828 13.9531 19.9924 14.1694 19.5698 14.2969C19.4958 14.3193 19.4211 14.3388 19.3458 14.3555Z" fill="white"/>
<path d="M43.459 15.1582C43.3926 16.0762 43.0527 16.7988 42.4395 17.3262C41.8301 17.8535 41.0254 18.1172 40.0254 18.1172C38.9316 18.1172 38.0703 17.75 37.4414 17.0156C36.8164 16.2773 36.5039 15.2656 36.5039 13.9805V13.459C36.5039 12.6387 36.6484 11.916 36.9375 11.291C37.2266 10.666 37.6387 10.1875 38.1738 9.85547C38.7129 9.51953 39.3379 9.35156 40.0488 9.35156C41.0332 9.35156 41.8262 9.61523 42.4277 10.1426C43.0293 10.6699 43.377 11.4102 43.4707 12.3633H41.7129C41.6699 11.8125 41.5156 11.4141 41.25 11.168C40.9883 10.918 40.5879 10.793 40.0488 10.793C39.4629 10.793 39.0234 11.0039 38.7305 11.4258C38.4414 11.8438 38.293 12.4941 38.2852 13.377V14.0215C38.2852 14.9434 38.4238 15.6172 38.7012 16.043C38.9824 16.4688 39.4238 16.6816 40.0254 16.6816C40.5684 16.6816 40.9727 16.5586 41.2383 16.3125C41.5078 16.0625 41.6621 15.6777 41.7012 15.1582H43.459ZM46.2891 18H44.5898V9H46.2891V18ZM51.3633 18C51.2852 17.8477 51.2285 17.6582 51.1934 17.4316C50.7832 17.8887 50.25 18.1172 49.5938 18.1172C48.9727 18.1172 48.457 17.9375 48.0469 17.5781C47.6406 17.2188 47.4375 16.7656 47.4375 16.2188C47.4375 15.5469 47.6855 15.0312 48.1816 14.6719C48.6816 14.3125 49.4023 14.1309 50.3438 14.127H51.123V13.7637C51.123 13.4707 51.0469 13.2363 50.8945 13.0605C50.7461 12.8848 50.5098 12.7969 50.1855 12.7969C49.9004 12.7969 49.6758 12.8652 49.5117 13.002C49.3516 13.1387 49.2715 13.3262 49.2715 13.5645H47.5781C47.5781 13.1973 47.6914 12.8574 47.918 12.5449C48.1445 12.2324 48.4648 11.9883 48.8789 11.8125C49.293 11.6328 49.7578 11.543 50.2734 11.543C51.0547 11.543 51.6738 11.7402 52.1309 12.1348C52.5918 12.5254 52.8223 13.0762 52.8223 13.7871V16.5352C52.8262 17.1367 52.9102 17.5918 53.0742 17.9004V18H51.3633ZM49.9629 16.8223C50.2129 16.8223 50.4434 16.7676 50.6543 16.6582C50.8652 16.5449 51.0215 16.3945 51.123 16.207V15.1172H50.4902C49.6426 15.1172 49.1914 15.4102 49.1367 15.9961L49.1309 16.0957C49.1309 16.3066 49.2051 16.4805 49.3535 16.6172C49.502 16.7539 49.7051 16.8223 49.9629 16.8223ZM57.5566 16.248C57.5566 16.041 57.4531 15.8789 57.2461 15.7617C57.043 15.6406 56.7148 15.5332 56.2617 15.4395C54.7539 15.123 54 14.4824 54 13.5176C54 12.9551 54.2324 12.4863 54.6973 12.1113C55.166 11.7324 55.7773 11.543 56.5312 11.543C57.3359 11.543 57.9785 11.7324 58.459 12.1113C58.9434 12.4902 59.1855 12.9824 59.1855 13.5879H57.4922C57.4922 13.3457 57.4141 13.1465 57.2578 12.9902C57.1016 12.8301 56.8574 12.75 56.5254 12.75C56.2402 12.75 56.0195 12.8145 55.8633 12.9434C55.707 13.0723 55.6289 13.2363 55.6289 13.4355C55.6289 13.623 55.7168 13.7754 55.8926 13.8926C56.0723 14.0059 56.373 14.1055 56.7949 14.1914C57.2168 14.2734 57.5723 14.3672 57.8613 14.4727C58.7559 14.8008 59.2031 15.3691 59.2031 16.1777C59.2031 16.7559 58.9551 17.2246 58.459 17.584C57.9629 17.9395 57.3223 18.1172 56.5371 18.1172C56.0059 18.1172 55.5332 18.0234 55.1191 17.8359C54.709 17.6445 54.3867 17.3848 54.1523 17.0566C53.918 16.7246 53.8008 16.3672 53.8008 15.9844H55.4062C55.4219 16.2852 55.5332 16.5156 55.7402 16.6758C55.9473 16.8359 56.2246 16.916 56.5723 16.916C56.8965 16.916 57.1406 16.8555 57.3047 16.7344C57.4727 16.6094 57.5566 16.4473 57.5566 16.248ZM63.7324 16.248C63.7324 16.041 63.6289 15.8789 63.4219 15.7617C63.2188 15.6406 62.8906 15.5332 62.4375 15.4395C60.9297 15.123 60.1758 14.4824 60.1758 13.5176C60.1758 12.9551 60.4082 12.4863 60.873 12.1113C61.3418 11.7324 61.9531 11.543 62.707 11.543C63.5117 11.543 64.1543 11.7324 64.6348 12.1113C65.1191 12.4902 65.3613 12.9824 65.3613 13.5879H63.668C63.668 13.3457 63.5898 13.1465 63.4336 12.9902C63.2773 12.8301 63.0332 12.75 62.7012 12.75C62.416 12.75 62.1953 12.8145 62.0391 12.9434C61.8828 13.0723 61.8047 13.2363 61.8047 13.4355C61.8047 13.623 61.8926 13.7754 62.0684 13.8926C62.248 14.0059 62.5488 14.1055 62.9707 14.1914C63.3926 14.2734 63.748 14.3672 64.0371 14.4727C64.9316 14.8008 65.3789 15.3691 65.3789 16.1777C65.3789 16.7559 65.1309 17.2246 64.6348 17.584C64.1387 17.9395 63.498 18.1172 62.7129 18.1172C62.1816 18.1172 61.709 18.0234 61.2949 17.8359C60.8848 17.6445 60.5625 17.3848 60.3281 17.0566C60.0938 16.7246 59.9766 16.3672 59.9766 15.9844H61.582C61.5977 16.2852 61.709 16.5156 61.916 16.6758C62.123 16.8359 62.4004 16.916 62.748 16.916C63.0723 16.916 63.3164 16.8555 63.4805 16.7344C63.6484 16.6094 63.7324 16.4473 63.7324 16.248ZM70.0371 13.248C69.8066 13.2168 69.6035 13.2012 69.4277 13.2012C68.7871 13.2012 68.3672 13.418 68.168 13.8516V18H66.4746V11.6602H68.0742L68.1211 12.416C68.4609 11.834 68.9316 11.543 69.5332 11.543C69.7207 11.543 69.8965 11.5684 70.0605 11.6191L70.0371 13.248ZM70.3828 14.7715C70.3828 14.1426 70.5039 13.582 70.7461 13.0898C70.9883 12.5977 71.3359 12.2168 71.7891 11.9473C72.2461 11.6777 72.7754 11.543 73.377 11.543C74.2324 11.543 74.9297 11.8047 75.4688 12.3281C76.0117 12.8516 76.3145 13.5625 76.377 14.4609L76.3887 14.8945C76.3887 15.8672 76.1172 16.6484 75.5742 17.2383C75.0312 17.8242 74.3027 18.1172 73.3887 18.1172C72.4746 18.1172 71.7441 17.8242 71.1973 17.2383C70.6543 16.6523 70.3828 15.8555 70.3828 14.8477V14.7715ZM72.0762 14.8945C72.0762 15.4961 72.1895 15.957 72.416 16.2773C72.6426 16.5938 72.9668 16.752 73.3887 16.752C73.7988 16.752 74.1191 16.5957 74.3496 16.2832C74.5801 15.9668 74.6953 15.4629 74.6953 14.7715C74.6953 14.1816 74.5801 13.7246 74.3496 13.4004C74.1191 13.0762 73.7949 12.9141 73.377 12.9141C72.9629 12.9141 72.6426 13.0762 72.416 13.4004C72.1895 13.7207 72.0762 14.2188 72.0762 14.8945ZM77.168 14.7715C77.168 14.1426 77.2891 13.582 77.5312 13.0898C77.7734 12.5977 78.1211 12.2168 78.5742 11.9473C79.0312 11.6777 79.5605 11.543 80.1621 11.543C81.0176 11.543 81.7148 11.8047 82.2539 12.3281C82.7969 12.8516 83.0996 13.5625 83.1621 14.4609L83.1738 14.8945C83.1738 15.8672 82.9023 16.6484 82.3594 17.2383C81.8164 17.8242 81.0879 18.1172 80.1738 18.1172C79.2598 18.1172 78.5293 17.8242 77.9824 17.2383C77.4395 16.6523 77.168 15.8555 77.168 14.8477V14.7715ZM78.8613 14.8945C78.8613 15.4961 78.9746 15.957 79.2012 16.2773C79.4277 16.5938 79.752 16.752 80.1738 16.752C80.584 16.752 80.9043 16.5957 81.1348 16.2832C81.3652 15.9668 81.4805 15.4629 81.4805 14.7715C81.4805 14.1816 81.3652 13.7246 81.1348 13.4004C80.9043 13.0762 80.5801 12.9141 80.1621 12.9141C79.748 12.9141 79.4277 13.0762 79.2012 13.4004C78.9746 13.7207 78.8613 14.2188 78.8613 14.8945ZM85.8047 11.6602L85.8574 12.3691C86.3066 11.8184 86.9141 11.543 87.6797 11.543C88.4961 11.543 89.0566 11.8652 89.3613 12.5098C89.8066 11.8652 90.4414 11.543 91.2656 11.543C91.9531 11.543 92.4648 11.7441 92.8008 12.1465C93.1367 12.5449 93.3047 13.1465 93.3047 13.9512V18H91.6055V13.957C91.6055 13.5977 91.5352 13.3359 91.3945 13.1719C91.2539 13.0039 91.0059 12.9199 90.6504 12.9199C90.1426 12.9199 89.791 13.1621 89.5957 13.6465L89.6016 18H87.9082V13.9629C87.9082 13.5957 87.8359 13.3301 87.6914 13.166C87.5469 13.002 87.3008 12.9199 86.9531 12.9199C86.4727 12.9199 86.125 13.1191 85.9102 13.5176V18H84.2168V11.6602H85.8047ZM98.0449 16.248C98.0449 16.041 97.9414 15.8789 97.7344 15.7617C97.5312 15.6406 97.2031 15.5332 96.75 15.4395C95.2422 15.123 94.4883 14.4824 94.4883 13.5176C94.4883 12.9551 94.7207 12.4863 95.1855 12.1113C95.6543 11.7324 96.2656 11.543 97.0195 11.543C97.8242 11.543 98.4668 11.7324 98.9473 12.1113C99.4316 12.4902 99.6738 12.9824 99.6738 13.5879H97.9805C97.9805 13.3457 97.9023 13.1465 97.7461 12.9902C97.5898 12.8301 97.3457 12.75 97.0137 12.75C96.7285 12.75 96.5078 12.8145 96.3516 12.9434C96.1953 13.0723 96.1172 13.2363 96.1172 13.4355C96.1172 13.623 96.2051 13.7754 96.3809 13.8926C96.5605 14.0059 96.8613 14.1055 97.2832 14.1914C97.7051 14.2734 98.0605 14.3672 98.3496 14.4727C99.2441 14.8008 99.6914 15.3691 99.6914 16.1777C99.6914 16.7559 99.4434 17.2246 98.9473 17.584C98.4512 17.9395 97.8105 18.1172 97.0254 18.1172C96.4941 18.1172 96.0215 18.0234 95.6074 17.8359C95.1973 17.6445 94.875 17.3848 94.6406 17.0566C94.4062 16.7246 94.2891 16.3672 94.2891 15.9844H95.8945C95.9102 16.2852 96.0215 16.5156 96.2285 16.6758C96.4355 16.8359 96.7129 16.916 97.0605 16.916C97.3848 16.916 97.6289 16.8555 97.793 16.7344C97.9609 16.6094 98.0449 16.4473 98.0449 16.248Z" fill="white"/>
</svg>
