<svg width="114" height="27" viewBox="0 0 114 27" fill="none" xmlns="http://www.w3.org/2000/svg">
<rect width="114" height="27" rx="5" fill="white"/>
<path d="M11 19C10.4477 19 9.98818 18.546 10.1188 18.0094C10.2992 17.2688 10.68 16.5848 11.2284 16.0369C12.0149 15.251 13.0816 14.8095 14.1939 14.8095C15.3062 14.8095 16.3729 15.251 17.1594 16.0369C17.7077 16.5848 18.0886 17.2688 18.2689 18.0094C18.3996 18.546 17.94 19 17.3877 19H11ZM14.1939 14.2857C12.456 14.2857 11.0485 12.8793 11.0485 11.1429C11.0485 9.40643 12.456 8 14.1939 8C15.9317 8 17.3393 9.40643 17.3393 11.1429C17.3393 12.8793 15.9317 14.2857 14.1939 14.2857ZM18.6641 16.2623C18.5076 16.0078 18.7313 15.6847 18.9921 15.8302C19.4129 16.065 19.7895 16.3763 20.1011 16.7512C20.4568 17.1791 20.7155 17.675 20.8637 18.2049C20.9814 18.626 20.6292 19 20.1919 19V19C19.7746 19 19.442 18.6599 19.3824 18.2468C19.2788 17.5277 19.0289 16.8559 18.6641 16.2623ZM18.0701 14.1825C17.6597 14.3014 17.4668 13.7988 17.7014 13.4417C17.8243 13.2546 17.9324 13.0574 18.0242 12.8519C18.2645 12.3142 18.3884 11.7318 18.3877 11.1429C18.3883 10.7915 18.3444 10.443 18.2582 10.1053C18.1526 9.69138 18.4983 9.27858 18.8478 9.52433C19.0407 9.65996 19.2157 9.82191 19.3672 10.0068C19.751 10.475 19.9606 11.0615 19.9604 11.6667C19.9606 12.0399 19.8809 12.4088 19.7267 12.7487C19.5725 13.0886 19.3474 13.3916 19.0664 13.6375C18.7854 13.8834 18.4551 14.0664 18.0975 14.1743C18.0884 14.1771 18.0792 14.1798 18.0701 14.1825Z" fill="#374293"/>
<path d="M45.459 15.1582C45.3926 16.0762 45.0527 16.7988 44.4395 17.3262C43.8301 17.8535 43.0254 18.1172 42.0254 18.1172C40.9316 18.1172 40.0703 17.75 39.4414 17.0156C38.8164 16.2773 38.5039 15.2656 38.5039 13.9805V13.459C38.5039 12.6387 38.6484 11.916 38.9375 11.291C39.2266 10.666 39.6387 10.1875 40.1738 9.85547C40.7129 9.51953 41.3379 9.35156 42.0488 9.35156C43.0332 9.35156 43.8262 9.61523 44.4277 10.1426C45.0293 10.6699 45.377 11.4102 45.4707 12.3633H43.7129C43.6699 11.8125 43.5156 11.4141 43.25 11.168C42.9883 10.918 42.5879 10.793 42.0488 10.793C41.4629 10.793 41.0234 11.0039 40.7305 11.4258C40.4414 11.8438 40.293 12.4941 40.2852 13.377V14.0215C40.2852 14.9434 40.4238 15.6172 40.7012 16.043C40.9824 16.4688 41.4238 16.6816 42.0254 16.6816C42.5684 16.6816 42.9727 16.5586 43.2383 16.3125C43.5078 16.0625 43.6621 15.6777 43.7012 15.1582H45.459ZM48.2891 18H46.5898V9H48.2891V18ZM53.3633 18C53.2852 17.8477 53.2285 17.6582 53.1934 17.4316C52.7832 17.8887 52.25 18.1172 51.5938 18.1172C50.9727 18.1172 50.457 17.9375 50.0469 17.5781C49.6406 17.2188 49.4375 16.7656 49.4375 16.2188C49.4375 15.5469 49.6855 15.0312 50.1816 14.6719C50.6816 14.3125 51.4023 14.1309 52.3438 14.127H53.123V13.7637C53.123 13.4707 53.0469 13.2363 52.8945 13.0605C52.7461 12.8848 52.5098 12.7969 52.1855 12.7969C51.9004 12.7969 51.6758 12.8652 51.5117 13.002C51.3516 13.1387 51.2715 13.3262 51.2715 13.5645H49.5781C49.5781 13.1973 49.6914 12.8574 49.918 12.5449C50.1445 12.2324 50.4648 11.9883 50.8789 11.8125C51.293 11.6328 51.7578 11.543 52.2734 11.543C53.0547 11.543 53.6738 11.7402 54.1309 12.1348C54.5918 12.5254 54.8223 13.0762 54.8223 13.7871V16.5352C54.8262 17.1367 54.9102 17.5918 55.0742 17.9004V18H53.3633ZM51.9629 16.8223C52.2129 16.8223 52.4434 16.7676 52.6543 16.6582C52.8652 16.5449 53.0215 16.3945 53.123 16.207V15.1172H52.4902C51.6426 15.1172 51.1914 15.4102 51.1367 15.9961L51.1309 16.0957C51.1309 16.3066 51.2051 16.4805 51.3535 16.6172C51.502 16.7539 51.7051 16.8223 51.9629 16.8223ZM59.5566 16.248C59.5566 16.041 59.4531 15.8789 59.2461 15.7617C59.043 15.6406 58.7148 15.5332 58.2617 15.4395C56.7539 15.123 56 14.4824 56 13.5176C56 12.9551 56.2324 12.4863 56.6973 12.1113C57.166 11.7324 57.7773 11.543 58.5312 11.543C59.3359 11.543 59.9785 11.7324 60.459 12.1113C60.9434 12.4902 61.1855 12.9824 61.1855 13.5879H59.4922C59.4922 13.3457 59.4141 13.1465 59.2578 12.9902C59.1016 12.8301 58.8574 12.75 58.5254 12.75C58.2402 12.75 58.0195 12.8145 57.8633 12.9434C57.707 13.0723 57.6289 13.2363 57.6289 13.4355C57.6289 13.623 57.7168 13.7754 57.8926 13.8926C58.0723 14.0059 58.373 14.1055 58.7949 14.1914C59.2168 14.2734 59.5723 14.3672 59.8613 14.4727C60.7559 14.8008 61.2031 15.3691 61.2031 16.1777C61.2031 16.7559 60.9551 17.2246 60.459 17.584C59.9629 17.9395 59.3223 18.1172 58.5371 18.1172C58.0059 18.1172 57.5332 18.0234 57.1191 17.8359C56.709 17.6445 56.3867 17.3848 56.1523 17.0566C55.918 16.7246 55.8008 16.3672 55.8008 15.9844H57.4062C57.4219 16.2852 57.5332 16.5156 57.7402 16.6758C57.9473 16.8359 58.2246 16.916 58.5723 16.916C58.8965 16.916 59.1406 16.8555 59.3047 16.7344C59.4727 16.6094 59.5566 16.4473 59.5566 16.248ZM65.7324 16.248C65.7324 16.041 65.6289 15.8789 65.4219 15.7617C65.2188 15.6406 64.8906 15.5332 64.4375 15.4395C62.9297 15.123 62.1758 14.4824 62.1758 13.5176C62.1758 12.9551 62.4082 12.4863 62.873 12.1113C63.3418 11.7324 63.9531 11.543 64.707 11.543C65.5117 11.543 66.1543 11.7324 66.6348 12.1113C67.1191 12.4902 67.3613 12.9824 67.3613 13.5879H65.668C65.668 13.3457 65.5898 13.1465 65.4336 12.9902C65.2773 12.8301 65.0332 12.75 64.7012 12.75C64.416 12.75 64.1953 12.8145 64.0391 12.9434C63.8828 13.0723 63.8047 13.2363 63.8047 13.4355C63.8047 13.623 63.8926 13.7754 64.0684 13.8926C64.248 14.0059 64.5488 14.1055 64.9707 14.1914C65.3926 14.2734 65.748 14.3672 66.0371 14.4727C66.9316 14.8008 67.3789 15.3691 67.3789 16.1777C67.3789 16.7559 67.1309 17.2246 66.6348 17.584C66.1387 17.9395 65.498 18.1172 64.7129 18.1172C64.1816 18.1172 63.709 18.0234 63.2949 17.8359C62.8848 17.6445 62.5625 17.3848 62.3281 17.0566C62.0938 16.7246 61.9766 16.3672 61.9766 15.9844H63.582C63.5977 16.2852 63.709 16.5156 63.916 16.6758C64.123 16.8359 64.4004 16.916 64.748 16.916C65.0723 16.916 65.3164 16.8555 65.4805 16.7344C65.6484 16.6094 65.7324 16.4473 65.7324 16.248ZM72.0371 13.248C71.8066 13.2168 71.6035 13.2012 71.4277 13.2012C70.7871 13.2012 70.3672 13.418 70.168 13.8516V18H68.4746V11.6602H70.0742L70.1211 12.416C70.4609 11.834 70.9316 11.543 71.5332 11.543C71.7207 11.543 71.8965 11.5684 72.0605 11.6191L72.0371 13.248ZM72.3828 14.7715C72.3828 14.1426 72.5039 13.582 72.7461 13.0898C72.9883 12.5977 73.3359 12.2168 73.7891 11.9473C74.2461 11.6777 74.7754 11.543 75.377 11.543C76.2324 11.543 76.9297 11.8047 77.4688 12.3281C78.0117 12.8516 78.3145 13.5625 78.377 14.4609L78.3887 14.8945C78.3887 15.8672 78.1172 16.6484 77.5742 17.2383C77.0312 17.8242 76.3027 18.1172 75.3887 18.1172C74.4746 18.1172 73.7441 17.8242 73.1973 17.2383C72.6543 16.6523 72.3828 15.8555 72.3828 14.8477V14.7715ZM74.0762 14.8945C74.0762 15.4961 74.1895 15.957 74.416 16.2773C74.6426 16.5938 74.9668 16.752 75.3887 16.752C75.7988 16.752 76.1191 16.5957 76.3496 16.2832C76.5801 15.9668 76.6953 15.4629 76.6953 14.7715C76.6953 14.1816 76.5801 13.7246 76.3496 13.4004C76.1191 13.0762 75.7949 12.9141 75.377 12.9141C74.9629 12.9141 74.6426 13.0762 74.416 13.4004C74.1895 13.7207 74.0762 14.2188 74.0762 14.8945ZM79.168 14.7715C79.168 14.1426 79.2891 13.582 79.5312 13.0898C79.7734 12.5977 80.1211 12.2168 80.5742 11.9473C81.0312 11.6777 81.5605 11.543 82.1621 11.543C83.0176 11.543 83.7148 11.8047 84.2539 12.3281C84.7969 12.8516 85.0996 13.5625 85.1621 14.4609L85.1738 14.8945C85.1738 15.8672 84.9023 16.6484 84.3594 17.2383C83.8164 17.8242 83.0879 18.1172 82.1738 18.1172C81.2598 18.1172 80.5293 17.8242 79.9824 17.2383C79.4395 16.6523 79.168 15.8555 79.168 14.8477V14.7715ZM80.8613 14.8945C80.8613 15.4961 80.9746 15.957 81.2012 16.2773C81.4277 16.5938 81.752 16.752 82.1738 16.752C82.584 16.752 82.9043 16.5957 83.1348 16.2832C83.3652 15.9668 83.4805 15.4629 83.4805 14.7715C83.4805 14.1816 83.3652 13.7246 83.1348 13.4004C82.9043 13.0762 82.5801 12.9141 82.1621 12.9141C81.748 12.9141 81.4277 13.0762 81.2012 13.4004C80.9746 13.7207 80.8613 14.2188 80.8613 14.8945ZM87.8047 11.6602L87.8574 12.3691C88.3066 11.8184 88.9141 11.543 89.6797 11.543C90.4961 11.543 91.0566 11.8652 91.3613 12.5098C91.8066 11.8652 92.4414 11.543 93.2656 11.543C93.9531 11.543 94.4648 11.7441 94.8008 12.1465C95.1367 12.5449 95.3047 13.1465 95.3047 13.9512V18H93.6055V13.957C93.6055 13.5977 93.5352 13.3359 93.3945 13.1719C93.2539 13.0039 93.0059 12.9199 92.6504 12.9199C92.1426 12.9199 91.791 13.1621 91.5957 13.6465L91.6016 18H89.9082V13.9629C89.9082 13.5957 89.8359 13.3301 89.6914 13.166C89.5469 13.002 89.3008 12.9199 88.9531 12.9199C88.4727 12.9199 88.125 13.1191 87.9102 13.5176V18H86.2168V11.6602H87.8047ZM100.045 16.248C100.045 16.041 99.9414 15.8789 99.7344 15.7617C99.5312 15.6406 99.2031 15.5332 98.75 15.4395C97.2422 15.123 96.4883 14.4824 96.4883 13.5176C96.4883 12.9551 96.7207 12.4863 97.1855 12.1113C97.6543 11.7324 98.2656 11.543 99.0195 11.543C99.8242 11.543 100.467 11.7324 100.947 12.1113C101.432 12.4902 101.674 12.9824 101.674 13.5879H99.9805C99.9805 13.3457 99.9023 13.1465 99.7461 12.9902C99.5898 12.8301 99.3457 12.75 99.0137 12.75C98.7285 12.75 98.5078 12.8145 98.3516 12.9434C98.1953 13.0723 98.1172 13.2363 98.1172 13.4355C98.1172 13.623 98.2051 13.7754 98.3809 13.8926C98.5605 14.0059 98.8613 14.1055 99.2832 14.1914C99.7051 14.2734 100.061 14.3672 100.35 14.4727C101.244 14.8008 101.691 15.3691 101.691 16.1777C101.691 16.7559 101.443 17.2246 100.947 17.584C100.451 17.9395 99.8105 18.1172 99.0254 18.1172C98.4941 18.1172 98.0215 18.0234 97.6074 17.8359C97.1973 17.6445 96.875 17.3848 96.6406 17.0566C96.4062 16.7246 96.2891 16.3672 96.2891 15.9844H97.8945C97.9102 16.2852 98.0215 16.5156 98.2285 16.6758C98.4355 16.8359 98.7129 16.916 99.0605 16.916C99.3848 16.916 99.6289 16.8555 99.793 16.7344C99.9609 16.6094 100.045 16.4473 100.045 16.248Z" fill="#374293"/>
</svg>
