<svg width="114" height="27" viewBox="0 0 114 27" fill="none" xmlns="http://www.w3.org/2000/svg">
<rect width="114" height="27" rx="5" fill="white"/>
<path d="M13.875 13.125C13.875 13.6773 14.3227 14.125 14.875 14.125H17.875C18.4273 14.125 18.875 13.6773 18.875 13.125V8.875C18.875 8.32272 18.4273 7.875 17.875 7.875H14.875C14.3227 7.875 13.875 8.32272 13.875 8.875V13.125ZM13.875 18.125C13.875 18.6773 14.3227 19.125 14.875 19.125H17.875C18.4273 19.125 18.875 18.6773 18.875 18.125V16.375C18.875 15.8227 18.4273 15.375 17.875 15.375H14.875C14.3227 15.375 13.875 15.8227 13.875 16.375V18.125ZM20.125 18.125C20.125 18.6773 20.5727 19.125 21.125 19.125H24.125C24.6773 19.125 25.125 18.6773 25.125 18.125V13.875C25.125 13.3227 24.6773 12.875 24.125 12.875H21.125C20.5727 12.875 20.125 13.3227 20.125 13.875V18.125ZM21.125 7.875C20.5727 7.875 20.125 8.32272 20.125 8.875V10.625C20.125 11.1773 20.5727 11.625 21.125 11.625H24.125C24.6773 11.625 25.125 11.1773 25.125 10.625V8.875C25.125 8.32272 24.6773 7.875 24.125 7.875H21.125Z" fill="#374293"/>
<path d="M39.7617 18V9.46875H42.3867C43.1367 9.46875 43.8066 9.63867 44.3965 9.97852C44.9902 10.3145 45.4531 10.7949 45.7852 11.4199C46.1172 12.041 46.2832 12.748 46.2832 13.541V13.9336C46.2832 14.7266 46.1191 15.4316 45.791 16.0488C45.4668 16.666 45.0078 17.1445 44.4141 17.4844C43.8203 17.8242 43.1504 17.9961 42.4043 18H39.7617ZM41.5195 10.8926V16.5879H42.3691C43.0566 16.5879 43.582 16.3633 43.9453 15.9141C44.3086 15.4648 44.4941 14.8223 44.502 13.9863V13.5352C44.502 12.668 44.3223 12.0117 43.9629 11.5664C43.6035 11.1172 43.0781 10.8926 42.3867 10.8926H41.5195ZM51.1289 18C51.0508 17.8477 50.9941 17.6582 50.959 17.4316C50.5488 17.8887 50.0156 18.1172 49.3594 18.1172C48.7383 18.1172 48.2227 17.9375 47.8125 17.5781C47.4062 17.2188 47.2031 16.7656 47.2031 16.2188C47.2031 15.5469 47.4512 15.0312 47.9473 14.6719C48.4473 14.3125 49.168 14.1309 50.1094 14.127H50.8887V13.7637C50.8887 13.4707 50.8125 13.2363 50.6602 13.0605C50.5117 12.8848 50.2754 12.7969 49.9512 12.7969C49.666 12.7969 49.4414 12.8652 49.2773 13.002C49.1172 13.1387 49.0371 13.3262 49.0371 13.5645H47.3438C47.3438 13.1973 47.457 12.8574 47.6836 12.5449C47.9102 12.2324 48.2305 11.9883 48.6445 11.8125C49.0586 11.6328 49.5234 11.543 50.0391 11.543C50.8203 11.543 51.4395 11.7402 51.8965 12.1348C52.3574 12.5254 52.5879 13.0762 52.5879 13.7871V16.5352C52.5918 17.1367 52.6758 17.5918 52.8398 17.9004V18H51.1289ZM49.7285 16.8223C49.9785 16.8223 50.209 16.7676 50.4199 16.6582C50.6309 16.5449 50.7871 16.3945 50.8887 16.207V15.1172H50.2559C49.4082 15.1172 48.957 15.4102 48.9023 15.9961L48.8965 16.0957C48.8965 16.3066 48.9707 16.4805 49.1191 16.6172C49.2676 16.7539 49.4707 16.8223 49.7285 16.8223ZM57.3223 16.248C57.3223 16.041 57.2188 15.8789 57.0117 15.7617C56.8086 15.6406 56.4805 15.5332 56.0273 15.4395C54.5195 15.123 53.7656 14.4824 53.7656 13.5176C53.7656 12.9551 53.998 12.4863 54.4629 12.1113C54.9316 11.7324 55.543 11.543 56.2969 11.543C57.1016 11.543 57.7441 11.7324 58.2246 12.1113C58.709 12.4902 58.9512 12.9824 58.9512 13.5879H57.2578C57.2578 13.3457 57.1797 13.1465 57.0234 12.9902C56.8672 12.8301 56.623 12.75 56.291 12.75C56.0059 12.75 55.7852 12.8145 55.6289 12.9434C55.4727 13.0723 55.3945 13.2363 55.3945 13.4355C55.3945 13.623 55.4824 13.7754 55.6582 13.8926C55.8379 14.0059 56.1387 14.1055 56.5605 14.1914C56.9824 14.2734 57.3379 14.3672 57.627 14.4727C58.5215 14.8008 58.9688 15.3691 58.9688 16.1777C58.9688 16.7559 58.7207 17.2246 58.2246 17.584C57.7285 17.9395 57.0879 18.1172 56.3027 18.1172C55.7715 18.1172 55.2988 18.0234 54.8848 17.8359C54.4746 17.6445 54.1523 17.3848 53.918 17.0566C53.6836 16.7246 53.5664 16.3672 53.5664 15.9844H55.1719C55.1875 16.2852 55.2988 16.5156 55.5059 16.6758C55.7129 16.8359 55.9902 16.916 56.3379 16.916C56.6621 16.916 56.9062 16.8555 57.0703 16.7344C57.2383 16.6094 57.3223 16.4473 57.3223 16.248ZM61.7168 12.3516C62.166 11.8125 62.7305 11.543 63.4102 11.543C64.7852 11.543 65.4824 12.3418 65.502 13.9395V18H63.8086V13.9863C63.8086 13.623 63.7305 13.3555 63.5742 13.1836C63.418 13.0078 63.1582 12.9199 62.7949 12.9199C62.2988 12.9199 61.9395 13.1113 61.7168 13.4941V18H60.0234V9H61.7168V12.3516ZM72.4922 14.8887C72.4922 15.9043 72.2754 16.6973 71.8418 17.2676C71.4082 17.834 70.8027 18.1172 70.0254 18.1172C69.3379 18.1172 68.7891 17.8535 68.3789 17.3262L68.3027 18H66.7793V9H68.4727V12.2285C68.8633 11.7715 69.377 11.543 70.0137 11.543C70.7871 11.543 71.3926 11.8281 71.8301 12.3984C72.2715 12.9648 72.4922 13.7637 72.4922 14.7949V14.8887ZM70.7988 14.7656C70.7988 14.125 70.6973 13.6582 70.4941 13.3652C70.291 13.0684 69.9883 12.9199 69.5859 12.9199C69.0469 12.9199 68.6758 13.1406 68.4727 13.582V16.084C68.6797 16.5293 69.0547 16.752 69.5977 16.752C70.1445 16.752 70.5039 16.4824 70.6758 15.9434C70.7578 15.6855 70.7988 15.293 70.7988 14.7656ZM73.2773 14.7715C73.2773 14.1426 73.3984 13.582 73.6406 13.0898C73.8828 12.5977 74.2305 12.2168 74.6836 11.9473C75.1406 11.6777 75.6699 11.543 76.2715 11.543C77.127 11.543 77.8242 11.8047 78.3633 12.3281C78.9062 12.8516 79.209 13.5625 79.2715 14.4609L79.2832 14.8945C79.2832 15.8672 79.0117 16.6484 78.4688 17.2383C77.9258 17.8242 77.1973 18.1172 76.2832 18.1172C75.3691 18.1172 74.6387 17.8242 74.0918 17.2383C73.5488 16.6523 73.2773 15.8555 73.2773 14.8477V14.7715ZM74.9707 14.8945C74.9707 15.4961 75.084 15.957 75.3105 16.2773C75.5371 16.5938 75.8613 16.752 76.2832 16.752C76.6934 16.752 77.0137 16.5957 77.2441 16.2832C77.4746 15.9668 77.5898 15.4629 77.5898 14.7715C77.5898 14.1816 77.4746 13.7246 77.2441 13.4004C77.0137 13.0762 76.6895 12.9141 76.2715 12.9141C75.8574 12.9141 75.5371 13.0762 75.3105 13.4004C75.084 13.7207 74.9707 14.2188 74.9707 14.8945ZM84 18C83.9219 17.8477 83.8652 17.6582 83.8301 17.4316C83.4199 17.8887 82.8867 18.1172 82.2305 18.1172C81.6094 18.1172 81.0938 17.9375 80.6836 17.5781C80.2773 17.2188 80.0742 16.7656 80.0742 16.2188C80.0742 15.5469 80.3223 15.0312 80.8184 14.6719C81.3184 14.3125 82.0391 14.1309 82.9805 14.127H83.7598V13.7637C83.7598 13.4707 83.6836 13.2363 83.5312 13.0605C83.3828 12.8848 83.1465 12.7969 82.8223 12.7969C82.5371 12.7969 82.3125 12.8652 82.1484 13.002C81.9883 13.1387 81.9082 13.3262 81.9082 13.5645H80.2148C80.2148 13.1973 80.3281 12.8574 80.5547 12.5449C80.7812 12.2324 81.1016 11.9883 81.5156 11.8125C81.9297 11.6328 82.3945 11.543 82.9102 11.543C83.6914 11.543 84.3105 11.7402 84.7676 12.1348C85.2285 12.5254 85.459 13.0762 85.459 13.7871V16.5352C85.4629 17.1367 85.5469 17.5918 85.7109 17.9004V18H84ZM82.5996 16.8223C82.8496 16.8223 83.0801 16.7676 83.291 16.6582C83.502 16.5449 83.6582 16.3945 83.7598 16.207V15.1172H83.127C82.2793 15.1172 81.8281 15.4102 81.7734 15.9961L81.7676 16.0957C81.7676 16.3066 81.8418 16.4805 81.9902 16.6172C82.1387 16.7539 82.3418 16.8223 82.5996 16.8223ZM90.3223 13.248C90.0918 13.2168 89.8887 13.2012 89.7129 13.2012C89.0723 13.2012 88.6523 13.418 88.4531 13.8516V18H86.7598V11.6602H88.3594L88.4062 12.416C88.7461 11.834 89.2168 11.543 89.8184 11.543C90.0059 11.543 90.1816 11.5684 90.3457 11.6191L90.3223 13.248ZM90.7617 14.7832C90.7617 13.7949 90.9824 13.0078 91.4238 12.4219C91.8691 11.8359 92.4766 11.543 93.2461 11.543C93.8633 11.543 94.373 11.7734 94.7754 12.2344V9H96.4746V18H94.9453L94.8633 17.3262C94.4414 17.8535 93.8984 18.1172 93.2344 18.1172C92.4883 18.1172 91.8887 17.8242 91.4355 17.2383C90.9863 16.6484 90.7617 15.8301 90.7617 14.7832ZM92.4551 14.9062C92.4551 15.5 92.5586 15.9551 92.7656 16.2715C92.9727 16.5879 93.2734 16.7461 93.668 16.7461C94.1914 16.7461 94.5605 16.5254 94.7754 16.084V13.582C94.5645 13.1406 94.1992 12.9199 93.6797 12.9199C92.8633 12.9199 92.4551 13.582 92.4551 14.9062Z" fill="#374293"/>
</svg>
