<svg width="114" height="27" viewBox="0 0 114 27" fill="none" xmlns="http://www.w3.org/2000/svg">
<path d="M10.875 13.125C10.875 13.6773 11.3227 14.125 11.875 14.125H14.875C15.4273 14.125 15.875 13.6773 15.875 13.125V8.875C15.875 8.32272 15.4273 7.875 14.875 7.875H11.875C11.3227 7.875 10.875 8.32272 10.875 8.875V13.125ZM10.875 18.125C10.875 18.6773 11.3227 19.125 11.875 19.125H14.875C15.4273 19.125 15.875 18.6773 15.875 18.125V16.375C15.875 15.8227 15.4273 15.375 14.875 15.375H11.875C11.3227 15.375 10.875 15.8227 10.875 16.375V18.125ZM17.125 18.125C17.125 18.6773 17.5727 19.125 18.125 19.125H21.125C21.6773 19.125 22.125 18.6773 22.125 18.125V13.875C22.125 13.3227 21.6773 12.875 21.125 12.875H18.125C17.5727 12.875 17.125 13.3227 17.125 13.875V18.125ZM18.125 7.875C17.5727 7.875 17.125 8.32272 17.125 8.875V10.625C17.125 11.1773 17.5727 11.625 18.125 11.625H21.125C21.6773 11.625 22.125 11.1773 22.125 10.625V8.875C22.125 8.32272 21.6773 7.875 21.125 7.875H18.125Z" fill="white"/>
<path d="M36.7617 18V9.46875H39.3867C40.1367 9.46875 40.8066 9.63867 41.3965 9.97852C41.9902 10.3145 42.4531 10.7949 42.7852 11.4199C43.1172 12.041 43.2832 12.748 43.2832 13.541V13.9336C43.2832 14.7266 43.1191 15.4316 42.791 16.0488C42.4668 16.666 42.0078 17.1445 41.4141 17.4844C40.8203 17.8242 40.1504 17.9961 39.4043 18H36.7617ZM38.5195 10.8926V16.5879H39.3691C40.0566 16.5879 40.582 16.3633 40.9453 15.9141C41.3086 15.4648 41.4941 14.8223 41.502 13.9863V13.5352C41.502 12.668 41.3223 12.0117 40.9629 11.5664C40.6035 11.1172 40.0781 10.8926 39.3867 10.8926H38.5195ZM48.1289 18C48.0508 17.8477 47.9941 17.6582 47.959 17.4316C47.5488 17.8887 47.0156 18.1172 46.3594 18.1172C45.7383 18.1172 45.2227 17.9375 44.8125 17.5781C44.4062 17.2188 44.2031 16.7656 44.2031 16.2188C44.2031 15.5469 44.4512 15.0312 44.9473 14.6719C45.4473 14.3125 46.168 14.1309 47.1094 14.127H47.8887V13.7637C47.8887 13.4707 47.8125 13.2363 47.6602 13.0605C47.5117 12.8848 47.2754 12.7969 46.9512 12.7969C46.666 12.7969 46.4414 12.8652 46.2773 13.002C46.1172 13.1387 46.0371 13.3262 46.0371 13.5645H44.3438C44.3438 13.1973 44.457 12.8574 44.6836 12.5449C44.9102 12.2324 45.2305 11.9883 45.6445 11.8125C46.0586 11.6328 46.5234 11.543 47.0391 11.543C47.8203 11.543 48.4395 11.7402 48.8965 12.1348C49.3574 12.5254 49.5879 13.0762 49.5879 13.7871V16.5352C49.5918 17.1367 49.6758 17.5918 49.8398 17.9004V18H48.1289ZM46.7285 16.8223C46.9785 16.8223 47.209 16.7676 47.4199 16.6582C47.6309 16.5449 47.7871 16.3945 47.8887 16.207V15.1172H47.2559C46.4082 15.1172 45.957 15.4102 45.9023 15.9961L45.8965 16.0957C45.8965 16.3066 45.9707 16.4805 46.1191 16.6172C46.2676 16.7539 46.4707 16.8223 46.7285 16.8223ZM54.3223 16.248C54.3223 16.041 54.2188 15.8789 54.0117 15.7617C53.8086 15.6406 53.4805 15.5332 53.0273 15.4395C51.5195 15.123 50.7656 14.4824 50.7656 13.5176C50.7656 12.9551 50.998 12.4863 51.4629 12.1113C51.9316 11.7324 52.543 11.543 53.2969 11.543C54.1016 11.543 54.7441 11.7324 55.2246 12.1113C55.709 12.4902 55.9512 12.9824 55.9512 13.5879H54.2578C54.2578 13.3457 54.1797 13.1465 54.0234 12.9902C53.8672 12.8301 53.623 12.75 53.291 12.75C53.0059 12.75 52.7852 12.8145 52.6289 12.9434C52.4727 13.0723 52.3945 13.2363 52.3945 13.4355C52.3945 13.623 52.4824 13.7754 52.6582 13.8926C52.8379 14.0059 53.1387 14.1055 53.5605 14.1914C53.9824 14.2734 54.3379 14.3672 54.627 14.4727C55.5215 14.8008 55.9688 15.3691 55.9688 16.1777C55.9688 16.7559 55.7207 17.2246 55.2246 17.584C54.7285 17.9395 54.0879 18.1172 53.3027 18.1172C52.7715 18.1172 52.2988 18.0234 51.8848 17.8359C51.4746 17.6445 51.1523 17.3848 50.918 17.0566C50.6836 16.7246 50.5664 16.3672 50.5664 15.9844H52.1719C52.1875 16.2852 52.2988 16.5156 52.5059 16.6758C52.7129 16.8359 52.9902 16.916 53.3379 16.916C53.6621 16.916 53.9062 16.8555 54.0703 16.7344C54.2383 16.6094 54.3223 16.4473 54.3223 16.248ZM58.7168 12.3516C59.166 11.8125 59.7305 11.543 60.4102 11.543C61.7852 11.543 62.4824 12.3418 62.502 13.9395V18H60.8086V13.9863C60.8086 13.623 60.7305 13.3555 60.5742 13.1836C60.418 13.0078 60.1582 12.9199 59.7949 12.9199C59.2988 12.9199 58.9395 13.1113 58.7168 13.4941V18H57.0234V9H58.7168V12.3516ZM69.4922 14.8887C69.4922 15.9043 69.2754 16.6973 68.8418 17.2676C68.4082 17.834 67.8027 18.1172 67.0254 18.1172C66.3379 18.1172 65.7891 17.8535 65.3789 17.3262L65.3027 18H63.7793V9H65.4727V12.2285C65.8633 11.7715 66.377 11.543 67.0137 11.543C67.7871 11.543 68.3926 11.8281 68.8301 12.3984C69.2715 12.9648 69.4922 13.7637 69.4922 14.7949V14.8887ZM67.7988 14.7656C67.7988 14.125 67.6973 13.6582 67.4941 13.3652C67.291 13.0684 66.9883 12.9199 66.5859 12.9199C66.0469 12.9199 65.6758 13.1406 65.4727 13.582V16.084C65.6797 16.5293 66.0547 16.752 66.5977 16.752C67.1445 16.752 67.5039 16.4824 67.6758 15.9434C67.7578 15.6855 67.7988 15.293 67.7988 14.7656ZM70.2773 14.7715C70.2773 14.1426 70.3984 13.582 70.6406 13.0898C70.8828 12.5977 71.2305 12.2168 71.6836 11.9473C72.1406 11.6777 72.6699 11.543 73.2715 11.543C74.127 11.543 74.8242 11.8047 75.3633 12.3281C75.9062 12.8516 76.209 13.5625 76.2715 14.4609L76.2832 14.8945C76.2832 15.8672 76.0117 16.6484 75.4688 17.2383C74.9258 17.8242 74.1973 18.1172 73.2832 18.1172C72.3691 18.1172 71.6387 17.8242 71.0918 17.2383C70.5488 16.6523 70.2773 15.8555 70.2773 14.8477V14.7715ZM71.9707 14.8945C71.9707 15.4961 72.084 15.957 72.3105 16.2773C72.5371 16.5938 72.8613 16.752 73.2832 16.752C73.6934 16.752 74.0137 16.5957 74.2441 16.2832C74.4746 15.9668 74.5898 15.4629 74.5898 14.7715C74.5898 14.1816 74.4746 13.7246 74.2441 13.4004C74.0137 13.0762 73.6895 12.9141 73.2715 12.9141C72.8574 12.9141 72.5371 13.0762 72.3105 13.4004C72.084 13.7207 71.9707 14.2188 71.9707 14.8945ZM81 18C80.9219 17.8477 80.8652 17.6582 80.8301 17.4316C80.4199 17.8887 79.8867 18.1172 79.2305 18.1172C78.6094 18.1172 78.0938 17.9375 77.6836 17.5781C77.2773 17.2188 77.0742 16.7656 77.0742 16.2188C77.0742 15.5469 77.3223 15.0312 77.8184 14.6719C78.3184 14.3125 79.0391 14.1309 79.9805 14.127H80.7598V13.7637C80.7598 13.4707 80.6836 13.2363 80.5312 13.0605C80.3828 12.8848 80.1465 12.7969 79.8223 12.7969C79.5371 12.7969 79.3125 12.8652 79.1484 13.002C78.9883 13.1387 78.9082 13.3262 78.9082 13.5645H77.2148C77.2148 13.1973 77.3281 12.8574 77.5547 12.5449C77.7812 12.2324 78.1016 11.9883 78.5156 11.8125C78.9297 11.6328 79.3945 11.543 79.9102 11.543C80.6914 11.543 81.3105 11.7402 81.7676 12.1348C82.2285 12.5254 82.459 13.0762 82.459 13.7871V16.5352C82.4629 17.1367 82.5469 17.5918 82.7109 17.9004V18H81ZM79.5996 16.8223C79.8496 16.8223 80.0801 16.7676 80.291 16.6582C80.502 16.5449 80.6582 16.3945 80.7598 16.207V15.1172H80.127C79.2793 15.1172 78.8281 15.4102 78.7734 15.9961L78.7676 16.0957C78.7676 16.3066 78.8418 16.4805 78.9902 16.6172C79.1387 16.7539 79.3418 16.8223 79.5996 16.8223ZM87.3223 13.248C87.0918 13.2168 86.8887 13.2012 86.7129 13.2012C86.0723 13.2012 85.6523 13.418 85.4531 13.8516V18H83.7598V11.6602H85.3594L85.4062 12.416C85.7461 11.834 86.2168 11.543 86.8184 11.543C87.0059 11.543 87.1816 11.5684 87.3457 11.6191L87.3223 13.248ZM87.7617 14.7832C87.7617 13.7949 87.9824 13.0078 88.4238 12.4219C88.8691 11.8359 89.4766 11.543 90.2461 11.543C90.8633 11.543 91.373 11.7734 91.7754 12.2344V9H93.4746V18H91.9453L91.8633 17.3262C91.4414 17.8535 90.8984 18.1172 90.2344 18.1172C89.4883 18.1172 88.8887 17.8242 88.4355 17.2383C87.9863 16.6484 87.7617 15.8301 87.7617 14.7832ZM89.4551 14.9062C89.4551 15.5 89.5586 15.9551 89.7656 16.2715C89.9727 16.5879 90.2734 16.7461 90.668 16.7461C91.1914 16.7461 91.5605 16.5254 91.7754 16.084V13.582C91.5645 13.1406 91.1992 12.9199 90.6797 12.9199C89.8633 12.9199 89.4551 13.582 89.4551 14.9062Z" fill="white"/>
</svg>
