<svg width="114" height="27" viewBox="0 0 114 27" fill="none" xmlns="http://www.w3.org/2000/svg">
<path d="M10 13.1111C10 13.6634 10.4477 14.1111 11 14.1111H13.9927C14.545 14.1111 14.9927 13.6634 14.9927 13.1111V9C14.9927 8.44771 14.545 8 13.9927 8H11C10.4477 8 10 8.44772 10 9V13.1111ZM10 18C10 18.5523 10.4477 19 11 19H13.9927C14.545 19 14.9927 18.5523 14.9927 18V16.3333C14.9927 15.781 14.545 15.3333 13.9927 15.3333H11C10.4477 15.3333 10 15.781 10 16.3333V18ZM16.2409 18C16.2409 18.5523 16.6886 19 17.2409 19H20.2337C20.786 19 21.2337 18.5523 21.2337 18V13.8889C21.2337 13.3366 20.786 12.8889 20.2337 12.8889H17.2409C16.6886 12.8889 16.2409 13.3366 16.2409 13.8889V18ZM17.2409 8C16.6886 8 16.2409 8.44772 16.2409 9V10.6667C16.2409 11.219 16.6886 11.6667 17.2409 11.6667H20.2337C20.786 11.6667 21.2337 11.219 21.2337 10.6667V9C21.2337 8.44772 20.786 8 20.2337 8H17.2409Z" fill="white"/>
<path d="M38.7617 18V9.46875H41.3867C42.1367 9.46875 42.8066 9.63867 43.3965 9.97852C43.9902 10.3145 44.4531 10.7949 44.7852 11.4199C45.1172 12.041 45.2832 12.748 45.2832 13.541V13.9336C45.2832 14.7266 45.1191 15.4316 44.791 16.0488C44.4668 16.666 44.0078 17.1445 43.4141 17.4844C42.8203 17.8242 42.1504 17.9961 41.4043 18H38.7617ZM40.5195 10.8926V16.5879H41.3691C42.0566 16.5879 42.582 16.3633 42.9453 15.9141C43.3086 15.4648 43.4941 14.8223 43.502 13.9863V13.5352C43.502 12.668 43.3223 12.0117 42.9629 11.5664C42.6035 11.1172 42.0781 10.8926 41.3867 10.8926H40.5195ZM50.1289 18C50.0508 17.8477 49.9941 17.6582 49.959 17.4316C49.5488 17.8887 49.0156 18.1172 48.3594 18.1172C47.7383 18.1172 47.2227 17.9375 46.8125 17.5781C46.4062 17.2188 46.2031 16.7656 46.2031 16.2188C46.2031 15.5469 46.4512 15.0312 46.9473 14.6719C47.4473 14.3125 48.168 14.1309 49.1094 14.127H49.8887V13.7637C49.8887 13.4707 49.8125 13.2363 49.6602 13.0605C49.5117 12.8848 49.2754 12.7969 48.9512 12.7969C48.666 12.7969 48.4414 12.8652 48.2773 13.002C48.1172 13.1387 48.0371 13.3262 48.0371 13.5645H46.3438C46.3438 13.1973 46.457 12.8574 46.6836 12.5449C46.9102 12.2324 47.2305 11.9883 47.6445 11.8125C48.0586 11.6328 48.5234 11.543 49.0391 11.543C49.8203 11.543 50.4395 11.7402 50.8965 12.1348C51.3574 12.5254 51.5879 13.0762 51.5879 13.7871V16.5352C51.5918 17.1367 51.6758 17.5918 51.8398 17.9004V18H50.1289ZM48.7285 16.8223C48.9785 16.8223 49.209 16.7676 49.4199 16.6582C49.6309 16.5449 49.7871 16.3945 49.8887 16.207V15.1172H49.2559C48.4082 15.1172 47.957 15.4102 47.9023 15.9961L47.8965 16.0957C47.8965 16.3066 47.9707 16.4805 48.1191 16.6172C48.2676 16.7539 48.4707 16.8223 48.7285 16.8223ZM56.3223 16.248C56.3223 16.041 56.2188 15.8789 56.0117 15.7617C55.8086 15.6406 55.4805 15.5332 55.0273 15.4395C53.5195 15.123 52.7656 14.4824 52.7656 13.5176C52.7656 12.9551 52.998 12.4863 53.4629 12.1113C53.9316 11.7324 54.543 11.543 55.2969 11.543C56.1016 11.543 56.7441 11.7324 57.2246 12.1113C57.709 12.4902 57.9512 12.9824 57.9512 13.5879H56.2578C56.2578 13.3457 56.1797 13.1465 56.0234 12.9902C55.8672 12.8301 55.623 12.75 55.291 12.75C55.0059 12.75 54.7852 12.8145 54.6289 12.9434C54.4727 13.0723 54.3945 13.2363 54.3945 13.4355C54.3945 13.623 54.4824 13.7754 54.6582 13.8926C54.8379 14.0059 55.1387 14.1055 55.5605 14.1914C55.9824 14.2734 56.3379 14.3672 56.627 14.4727C57.5215 14.8008 57.9688 15.3691 57.9688 16.1777C57.9688 16.7559 57.7207 17.2246 57.2246 17.584C56.7285 17.9395 56.0879 18.1172 55.3027 18.1172C54.7715 18.1172 54.2988 18.0234 53.8848 17.8359C53.4746 17.6445 53.1523 17.3848 52.918 17.0566C52.6836 16.7246 52.5664 16.3672 52.5664 15.9844H54.1719C54.1875 16.2852 54.2988 16.5156 54.5059 16.6758C54.7129 16.8359 54.9902 16.916 55.3379 16.916C55.6621 16.916 55.9062 16.8555 56.0703 16.7344C56.2383 16.6094 56.3223 16.4473 56.3223 16.248ZM60.7168 12.3516C61.166 11.8125 61.7305 11.543 62.4102 11.543C63.7852 11.543 64.4824 12.3418 64.502 13.9395V18H62.8086V13.9863C62.8086 13.623 62.7305 13.3555 62.5742 13.1836C62.418 13.0078 62.1582 12.9199 61.7949 12.9199C61.2988 12.9199 60.9395 13.1113 60.7168 13.4941V18H59.0234V9H60.7168V12.3516ZM71.4922 14.8887C71.4922 15.9043 71.2754 16.6973 70.8418 17.2676C70.4082 17.834 69.8027 18.1172 69.0254 18.1172C68.3379 18.1172 67.7891 17.8535 67.3789 17.3262L67.3027 18H65.7793V9H67.4727V12.2285C67.8633 11.7715 68.377 11.543 69.0137 11.543C69.7871 11.543 70.3926 11.8281 70.8301 12.3984C71.2715 12.9648 71.4922 13.7637 71.4922 14.7949V14.8887ZM69.7988 14.7656C69.7988 14.125 69.6973 13.6582 69.4941 13.3652C69.291 13.0684 68.9883 12.9199 68.5859 12.9199C68.0469 12.9199 67.6758 13.1406 67.4727 13.582V16.084C67.6797 16.5293 68.0547 16.752 68.5977 16.752C69.1445 16.752 69.5039 16.4824 69.6758 15.9434C69.7578 15.6855 69.7988 15.293 69.7988 14.7656ZM72.2773 14.7715C72.2773 14.1426 72.3984 13.582 72.6406 13.0898C72.8828 12.5977 73.2305 12.2168 73.6836 11.9473C74.1406 11.6777 74.6699 11.543 75.2715 11.543C76.127 11.543 76.8242 11.8047 77.3633 12.3281C77.9062 12.8516 78.209 13.5625 78.2715 14.4609L78.2832 14.8945C78.2832 15.8672 78.0117 16.6484 77.4688 17.2383C76.9258 17.8242 76.1973 18.1172 75.2832 18.1172C74.3691 18.1172 73.6387 17.8242 73.0918 17.2383C72.5488 16.6523 72.2773 15.8555 72.2773 14.8477V14.7715ZM73.9707 14.8945C73.9707 15.4961 74.084 15.957 74.3105 16.2773C74.5371 16.5938 74.8613 16.752 75.2832 16.752C75.6934 16.752 76.0137 16.5957 76.2441 16.2832C76.4746 15.9668 76.5898 15.4629 76.5898 14.7715C76.5898 14.1816 76.4746 13.7246 76.2441 13.4004C76.0137 13.0762 75.6895 12.9141 75.2715 12.9141C74.8574 12.9141 74.5371 13.0762 74.3105 13.4004C74.084 13.7207 73.9707 14.2188 73.9707 14.8945ZM83 18C82.9219 17.8477 82.8652 17.6582 82.8301 17.4316C82.4199 17.8887 81.8867 18.1172 81.2305 18.1172C80.6094 18.1172 80.0938 17.9375 79.6836 17.5781C79.2773 17.2188 79.0742 16.7656 79.0742 16.2188C79.0742 15.5469 79.3223 15.0312 79.8184 14.6719C80.3184 14.3125 81.0391 14.1309 81.9805 14.127H82.7598V13.7637C82.7598 13.4707 82.6836 13.2363 82.5312 13.0605C82.3828 12.8848 82.1465 12.7969 81.8223 12.7969C81.5371 12.7969 81.3125 12.8652 81.1484 13.002C80.9883 13.1387 80.9082 13.3262 80.9082 13.5645H79.2148C79.2148 13.1973 79.3281 12.8574 79.5547 12.5449C79.7812 12.2324 80.1016 11.9883 80.5156 11.8125C80.9297 11.6328 81.3945 11.543 81.9102 11.543C82.6914 11.543 83.3105 11.7402 83.7676 12.1348C84.2285 12.5254 84.459 13.0762 84.459 13.7871V16.5352C84.4629 17.1367 84.5469 17.5918 84.7109 17.9004V18H83ZM81.5996 16.8223C81.8496 16.8223 82.0801 16.7676 82.291 16.6582C82.502 16.5449 82.6582 16.3945 82.7598 16.207V15.1172H82.127C81.2793 15.1172 80.8281 15.4102 80.7734 15.9961L80.7676 16.0957C80.7676 16.3066 80.8418 16.4805 80.9902 16.6172C81.1387 16.7539 81.3418 16.8223 81.5996 16.8223ZM89.3223 13.248C89.0918 13.2168 88.8887 13.2012 88.7129 13.2012C88.0723 13.2012 87.6523 13.418 87.4531 13.8516V18H85.7598V11.6602H87.3594L87.4062 12.416C87.7461 11.834 88.2168 11.543 88.8184 11.543C89.0059 11.543 89.1816 11.5684 89.3457 11.6191L89.3223 13.248ZM89.7617 14.7832C89.7617 13.7949 89.9824 13.0078 90.4238 12.4219C90.8691 11.8359 91.4766 11.543 92.2461 11.543C92.8633 11.543 93.373 11.7734 93.7754 12.2344V9H95.4746V18H93.9453L93.8633 17.3262C93.4414 17.8535 92.8984 18.1172 92.2344 18.1172C91.4883 18.1172 90.8887 17.8242 90.4355 17.2383C89.9863 16.6484 89.7617 15.8301 89.7617 14.7832ZM91.4551 14.9062C91.4551 15.5 91.5586 15.9551 91.7656 16.2715C91.9727 16.5879 92.2734 16.7461 92.668 16.7461C93.1914 16.7461 93.5605 16.5254 93.7754 16.084V13.582C93.5645 13.1406 93.1992 12.9199 92.6797 12.9199C91.8633 12.9199 91.4551 13.582 91.4551 14.9062Z" fill="white"/>
</svg>
