<svg width="114" height="27" viewBox="0 0 114 27" fill="none" xmlns="http://www.w3.org/2000/svg">
<path d="M41.0586 9.46875L43.25 15.6562L45.4297 9.46875H47.7383V18H45.9746V15.668L46.1504 11.6426L43.8477 18H42.6406L40.3438 11.6484L40.5195 15.668V18H38.7617V9.46875H41.0586ZM52.8359 18C52.7578 17.8477 52.7012 17.6582 52.666 17.4316C52.2559 17.8887 51.7227 18.1172 51.0664 18.1172C50.4453 18.1172 49.9297 17.9375 49.5195 17.5781C49.1133 17.2188 48.9102 16.7656 48.9102 16.2188C48.9102 15.5469 49.1582 15.0312 49.6543 14.6719C50.1543 14.3125 50.875 14.1309 51.8164 14.127H52.5957V13.7637C52.5957 13.4707 52.5195 13.2363 52.3672 13.0605C52.2188 12.8848 51.9824 12.7969 51.6582 12.7969C51.373 12.7969 51.1484 12.8652 50.9844 13.002C50.8242 13.1387 50.7441 13.3262 50.7441 13.5645H49.0508C49.0508 13.1973 49.1641 12.8574 49.3906 12.5449C49.6172 12.2324 49.9375 11.9883 50.3516 11.8125C50.7656 11.6328 51.2305 11.543 51.7461 11.543C52.5273 11.543 53.1465 11.7402 53.6035 12.1348C54.0645 12.5254 54.2949 13.0762 54.2949 13.7871V16.5352C54.2988 17.1367 54.3828 17.5918 54.5469 17.9004V18H52.8359ZM51.4355 16.8223C51.6855 16.8223 51.916 16.7676 52.127 16.6582C52.3379 16.5449 52.4941 16.3945 52.5957 16.207V15.1172H51.9629C51.1152 15.1172 50.6641 15.4102 50.6094 15.9961L50.6035 16.0957C50.6035 16.3066 50.6777 16.4805 50.8262 16.6172C50.9746 16.7539 51.1777 16.8223 51.4355 16.8223ZM57.1543 11.6602L57.207 12.3926C57.6602 11.8262 58.2676 11.543 59.0293 11.543C59.7012 11.543 60.2012 11.7402 60.5293 12.1348C60.8574 12.5293 61.0254 13.1191 61.0332 13.9043V18H59.3398V13.9453C59.3398 13.5859 59.2617 13.3262 59.1055 13.166C58.9492 13.002 58.6895 12.9199 58.3262 12.9199C57.8496 12.9199 57.4922 13.123 57.2539 13.5293V18H55.5605V11.6602H57.1543ZM65.9961 18C65.918 17.8477 65.8613 17.6582 65.8262 17.4316C65.416 17.8887 64.8828 18.1172 64.2266 18.1172C63.6055 18.1172 63.0898 17.9375 62.6797 17.5781C62.2734 17.2188 62.0703 16.7656 62.0703 16.2188C62.0703 15.5469 62.3184 15.0312 62.8145 14.6719C63.3145 14.3125 64.0352 14.1309 64.9766 14.127H65.7559V13.7637C65.7559 13.4707 65.6797 13.2363 65.5273 13.0605C65.3789 12.8848 65.1426 12.7969 64.8184 12.7969C64.5332 12.7969 64.3086 12.8652 64.1445 13.002C63.9844 13.1387 63.9043 13.3262 63.9043 13.5645H62.2109C62.2109 13.1973 62.3242 12.8574 62.5508 12.5449C62.7773 12.2324 63.0977 11.9883 63.5117 11.8125C63.9258 11.6328 64.3906 11.543 64.9062 11.543C65.6875 11.543 66.3066 11.7402 66.7637 12.1348C67.2246 12.5254 67.4551 13.0762 67.4551 13.7871V16.5352C67.459 17.1367 67.543 17.5918 67.707 17.9004V18H65.9961ZM64.5957 16.8223C64.8457 16.8223 65.0762 16.7676 65.2871 16.6582C65.498 16.5449 65.6543 16.3945 65.7559 16.207V15.1172H65.123C64.2754 15.1172 63.8242 15.4102 63.7695 15.9961L63.7637 16.0957C63.7637 16.3066 63.8379 16.4805 63.9863 16.6172C64.1348 16.7539 64.3379 16.8223 64.5957 16.8223ZM68.5098 14.7832C68.5098 13.8105 68.7402 13.0273 69.2012 12.4336C69.666 11.8398 70.291 11.543 71.0762 11.543C71.7715 11.543 72.3125 11.7812 72.6992 12.2578L72.7695 11.6602H74.3047V17.7891C74.3047 18.3438 74.1777 18.8262 73.9238 19.2363C73.6738 19.6465 73.3203 19.959 72.8633 20.1738C72.4062 20.3887 71.8711 20.4961 71.2578 20.4961C70.793 20.4961 70.3398 20.4023 69.8984 20.2148C69.457 20.0312 69.123 19.793 68.8965 19.5L69.6465 18.4688C70.0684 18.9414 70.5801 19.1777 71.1816 19.1777C71.6309 19.1777 71.9805 19.0566 72.2305 18.8145C72.4805 18.5762 72.6055 18.2363 72.6055 17.7949V17.4551C72.2148 17.8965 71.7012 18.1172 71.0645 18.1172C70.3027 18.1172 69.6855 17.8203 69.2129 17.2266C68.7441 16.6289 68.5098 15.8379 68.5098 14.8535V14.7832ZM70.2031 14.9062C70.2031 15.4805 70.3184 15.9316 70.5488 16.2598C70.7793 16.584 71.0957 16.7461 71.498 16.7461C72.0137 16.7461 72.3828 16.5527 72.6055 16.166V13.5C72.3789 13.1133 72.0137 12.9199 71.5098 12.9199C71.1035 12.9199 70.7832 13.0859 70.5488 13.418C70.3184 13.75 70.2031 14.2461 70.2031 14.9062ZM78.5293 18.1172C77.5996 18.1172 76.8418 17.832 76.2559 17.2617C75.6738 16.6914 75.3828 15.9316 75.3828 14.9824V14.8184C75.3828 14.1816 75.5059 13.6133 75.752 13.1133C75.998 12.6094 76.3457 12.2227 76.7949 11.9531C77.248 11.6797 77.7637 11.543 78.3418 11.543C79.209 11.543 79.8906 11.8164 80.3867 12.3633C80.8867 12.9102 81.1367 13.6855 81.1367 14.6895V15.3809H77.0996C77.1543 15.7949 77.3184 16.127 77.5918 16.377C77.8691 16.627 78.2188 16.752 78.6406 16.752C79.293 16.752 79.8027 16.5156 80.1699 16.043L81.002 16.9746C80.748 17.334 80.4043 17.6152 79.9707 17.8184C79.5371 18.0176 79.0566 18.1172 78.5293 18.1172ZM78.3359 12.9141C78 12.9141 77.7266 13.0273 77.5156 13.2539C77.3086 13.4805 77.1758 13.8047 77.1172 14.2266H79.4727V14.0918C79.4648 13.7168 79.3633 13.4277 79.168 13.2246C78.9727 13.0176 78.6953 12.9141 78.3359 12.9141ZM85.666 13.248C85.4355 13.2168 85.2324 13.2012 85.0566 13.2012C84.416 13.2012 83.9961 13.418 83.7969 13.8516V18H82.1035V11.6602H83.7031L83.75 12.416C84.0898 11.834 84.5605 11.543 85.1621 11.543C85.3496 11.543 85.5254 11.5684 85.6895 11.6191L85.666 13.248Z" fill="#374293"/>
<path d="M11.4502 7.14993C11.8393 6.9859 12.2598 6.95575 12.6628 7.06299C13.0658 7.17023 13.4348 7.41046 13.7268 7.75574C14.0188 8.10102 14.2219 8.53717 14.3125 9.01349C14.4031 9.4898 14.3774 9.98671 14.2384 10.4464L21 18.4372L19.677 20L12.9154 12.01C12.5263 12.174 12.1058 12.2042 11.7028 12.0969C11.2998 11.9897 10.9308 11.7494 10.6388 11.4042C10.3468 11.0589 10.1437 10.6227 10.0531 10.1464C9.96252 9.6701 9.98822 9.17319 10.1272 8.71346L11.5213 10.3617C11.6076 10.4673 11.7108 10.5515 11.8249 10.6094C11.939 10.6673 12.0617 10.6978 12.1859 10.6991C12.31 10.7004 12.4332 10.6724 12.5481 10.6168C12.663 10.5613 12.7675 10.4792 12.8553 10.3754C12.9431 10.2716 13.0125 10.1482 13.0596 10.0124C13.1066 9.87658 13.1302 9.73105 13.1292 9.5843C13.1281 9.43755 13.1023 9.29252 13.0533 9.15768C13.0043 9.02284 12.933 8.90088 12.8437 8.79893L11.4502 7.14993ZM17.9138 8.53809L19.8977 7.2354L20.7793 8.27726L19.677 10.6218L18.5747 10.8826L17.2529 12.4454L16.3707 11.4036L17.6931 9.84078L17.9138 8.53809ZM13.5052 14.269L14.8276 15.8326L11.7414 19.4798C11.5712 19.679 11.3428 19.7935 11.1033 19.7996C10.8638 19.8057 10.6315 19.7029 10.4542 19.5125C10.2769 19.3221 10.1682 19.0586 10.1505 18.7762C10.1329 18.4939 10.2075 18.2143 10.3591 17.9951L10.4196 17.9163L13.5052 14.269Z" fill="#374293"/>
</svg>
