<svg width="114" height="27" viewBox="0 0 114 27" fill="none" xmlns="http://www.w3.org/2000/svg">
<rect width="114" height="27" rx="5" fill="white"/>
<path d="M40.0586 9.46875L42.25 15.6562L44.4297 9.46875H46.7383V18H44.9746V15.668L45.1504 11.6426L42.8477 18H41.6406L39.3438 11.6484L39.5195 15.668V18H37.7617V9.46875H40.0586ZM51.8359 18C51.7578 17.8477 51.7012 17.6582 51.666 17.4316C51.2559 17.8887 50.7227 18.1172 50.0664 18.1172C49.4453 18.1172 48.9297 17.9375 48.5195 17.5781C48.1133 17.2188 47.9102 16.7656 47.9102 16.2188C47.9102 15.5469 48.1582 15.0312 48.6543 14.6719C49.1543 14.3125 49.875 14.1309 50.8164 14.127H51.5957V13.7637C51.5957 13.4707 51.5195 13.2363 51.3672 13.0605C51.2188 12.8848 50.9824 12.7969 50.6582 12.7969C50.373 12.7969 50.1484 12.8652 49.9844 13.002C49.8242 13.1387 49.7441 13.3262 49.7441 13.5645H48.0508C48.0508 13.1973 48.1641 12.8574 48.3906 12.5449C48.6172 12.2324 48.9375 11.9883 49.3516 11.8125C49.7656 11.6328 50.2305 11.543 50.7461 11.543C51.5273 11.543 52.1465 11.7402 52.6035 12.1348C53.0645 12.5254 53.2949 13.0762 53.2949 13.7871V16.5352C53.2988 17.1367 53.3828 17.5918 53.5469 17.9004V18H51.8359ZM50.4355 16.8223C50.6855 16.8223 50.916 16.7676 51.127 16.6582C51.3379 16.5449 51.4941 16.3945 51.5957 16.207V15.1172H50.9629C50.1152 15.1172 49.6641 15.4102 49.6094 15.9961L49.6035 16.0957C49.6035 16.3066 49.6777 16.4805 49.8262 16.6172C49.9746 16.7539 50.1777 16.8223 50.4355 16.8223ZM56.1543 11.6602L56.207 12.3926C56.6602 11.8262 57.2676 11.543 58.0293 11.543C58.7012 11.543 59.2012 11.7402 59.5293 12.1348C59.8574 12.5293 60.0254 13.1191 60.0332 13.9043V18H58.3398V13.9453C58.3398 13.5859 58.2617 13.3262 58.1055 13.166C57.9492 13.002 57.6895 12.9199 57.3262 12.9199C56.8496 12.9199 56.4922 13.123 56.2539 13.5293V18H54.5605V11.6602H56.1543ZM64.9961 18C64.918 17.8477 64.8613 17.6582 64.8262 17.4316C64.416 17.8887 63.8828 18.1172 63.2266 18.1172C62.6055 18.1172 62.0898 17.9375 61.6797 17.5781C61.2734 17.2188 61.0703 16.7656 61.0703 16.2188C61.0703 15.5469 61.3184 15.0312 61.8145 14.6719C62.3145 14.3125 63.0352 14.1309 63.9766 14.127H64.7559V13.7637C64.7559 13.4707 64.6797 13.2363 64.5273 13.0605C64.3789 12.8848 64.1426 12.7969 63.8184 12.7969C63.5332 12.7969 63.3086 12.8652 63.1445 13.002C62.9844 13.1387 62.9043 13.3262 62.9043 13.5645H61.2109C61.2109 13.1973 61.3242 12.8574 61.5508 12.5449C61.7773 12.2324 62.0977 11.9883 62.5117 11.8125C62.9258 11.6328 63.3906 11.543 63.9062 11.543C64.6875 11.543 65.3066 11.7402 65.7637 12.1348C66.2246 12.5254 66.4551 13.0762 66.4551 13.7871V16.5352C66.459 17.1367 66.543 17.5918 66.707 17.9004V18H64.9961ZM63.5957 16.8223C63.8457 16.8223 64.0762 16.7676 64.2871 16.6582C64.498 16.5449 64.6543 16.3945 64.7559 16.207V15.1172H64.123C63.2754 15.1172 62.8242 15.4102 62.7695 15.9961L62.7637 16.0957C62.7637 16.3066 62.8379 16.4805 62.9863 16.6172C63.1348 16.7539 63.3379 16.8223 63.5957 16.8223ZM67.5098 14.7832C67.5098 13.8105 67.7402 13.0273 68.2012 12.4336C68.666 11.8398 69.291 11.543 70.0762 11.543C70.7715 11.543 71.3125 11.7812 71.6992 12.2578L71.7695 11.6602H73.3047V17.7891C73.3047 18.3438 73.1777 18.8262 72.9238 19.2363C72.6738 19.6465 72.3203 19.959 71.8633 20.1738C71.4062 20.3887 70.8711 20.4961 70.2578 20.4961C69.793 20.4961 69.3398 20.4023 68.8984 20.2148C68.457 20.0312 68.123 19.793 67.8965 19.5L68.6465 18.4688C69.0684 18.9414 69.5801 19.1777 70.1816 19.1777C70.6309 19.1777 70.9805 19.0566 71.2305 18.8145C71.4805 18.5762 71.6055 18.2363 71.6055 17.7949V17.4551C71.2148 17.8965 70.7012 18.1172 70.0645 18.1172C69.3027 18.1172 68.6855 17.8203 68.2129 17.2266C67.7441 16.6289 67.5098 15.8379 67.5098 14.8535V14.7832ZM69.2031 14.9062C69.2031 15.4805 69.3184 15.9316 69.5488 16.2598C69.7793 16.584 70.0957 16.7461 70.498 16.7461C71.0137 16.7461 71.3828 16.5527 71.6055 16.166V13.5C71.3789 13.1133 71.0137 12.9199 70.5098 12.9199C70.1035 12.9199 69.7832 13.0859 69.5488 13.418C69.3184 13.75 69.2031 14.2461 69.2031 14.9062ZM77.5293 18.1172C76.5996 18.1172 75.8418 17.832 75.2559 17.2617C74.6738 16.6914 74.3828 15.9316 74.3828 14.9824V14.8184C74.3828 14.1816 74.5059 13.6133 74.752 13.1133C74.998 12.6094 75.3457 12.2227 75.7949 11.9531C76.248 11.6797 76.7637 11.543 77.3418 11.543C78.209 11.543 78.8906 11.8164 79.3867 12.3633C79.8867 12.9102 80.1367 13.6855 80.1367 14.6895V15.3809H76.0996C76.1543 15.7949 76.3184 16.127 76.5918 16.377C76.8691 16.627 77.2188 16.752 77.6406 16.752C78.293 16.752 78.8027 16.5156 79.1699 16.043L80.002 16.9746C79.748 17.334 79.4043 17.6152 78.9707 17.8184C78.5371 18.0176 78.0566 18.1172 77.5293 18.1172ZM77.3359 12.9141C77 12.9141 76.7266 13.0273 76.5156 13.2539C76.3086 13.4805 76.1758 13.8047 76.1172 14.2266H78.4727V14.0918C78.4648 13.7168 78.3633 13.4277 78.168 13.2246C77.9727 13.0176 77.6953 12.9141 77.3359 12.9141ZM84.666 13.248C84.4355 13.2168 84.2324 13.2012 84.0566 13.2012C83.416 13.2012 82.9961 13.418 82.7969 13.8516V18H81.1035V11.6602H82.7031L82.75 12.416C83.0898 11.834 83.5605 11.543 84.1621 11.543C84.3496 11.543 84.5254 11.5684 84.6895 11.6191L84.666 13.248Z" fill="#374293"/>
<path d="M11.7139 7.14993C12.1737 6.9859 12.6706 6.95575 13.1469 7.06299C13.6232 7.17023 14.0593 7.41046 14.4044 7.75574C14.7495 8.10102 14.9896 8.53717 15.0966 9.01349C15.2036 9.4898 15.1733 9.98671 15.009 10.4464L22.2182 17.6554C22.6499 18.0872 22.6499 18.7872 22.218 19.2188V19.2188C21.7863 19.6503 21.0866 19.6502 20.655 19.2187L13.4455 12.01C12.9856 12.174 12.4887 12.2042 12.0124 12.0969C11.5361 11.9897 11.1001 11.7494 10.7549 11.4042C10.4098 11.0589 10.1698 10.6227 10.0627 10.1464C9.95571 9.6701 9.98608 9.17319 10.1503 8.71346L11.7979 10.3617C11.8998 10.4673 12.0218 10.5515 12.1567 10.6094C12.2915 10.6673 12.4365 10.6978 12.5833 10.6991C12.73 10.7004 12.8756 10.6724 13.0114 10.6168C13.1472 10.5613 13.2706 10.4792 13.3744 10.3754C13.4782 10.2716 13.5603 10.1482 13.6158 10.0124C13.6714 9.87658 13.6994 9.73105 13.6981 9.5843C13.6968 9.43755 13.6663 9.29252 13.6084 9.15768C13.5505 9.02284 13.4663 8.90088 13.3607 8.79893L11.7132 7.1492L11.7139 7.14993ZM19.3527 8.53809L21.6973 7.2354L22.7392 8.27726L21.4364 10.6218L20.1337 10.8826L18.5716 12.4454L17.529 11.4036L19.0918 9.84078L19.3527 8.53809ZM14.1425 14.269L15.7053 15.8326L12.058 19.4798C11.8569 19.679 11.5869 19.7935 11.3039 19.7996C11.0209 19.8057 10.7463 19.7029 10.5368 19.5125C10.3273 19.3221 10.1988 19.0586 10.1779 18.7762C10.157 18.4939 10.2452 18.2143 10.4244 17.9951L10.4959 17.9163L14.1425 14.269Z" fill="#374293"/>
</svg>
