<svg width="114" height="27" viewBox="0 0 114 27" fill="none" xmlns="http://www.w3.org/2000/svg">
<rect width="114" height="27" rx="5" fill="white"/>
<path d="M12 20C11.4477 20 10.9905 19.5485 11.0916 19.0056C11.2672 18.0627 11.6903 17.1889 12.318 16.4981C13.1619 15.5694 14.3065 15.0476 15.5 15.0476C16.6935 15.0476 17.8381 15.5694 18.682 16.4981C19.3097 17.1889 19.7328 18.0627 19.9084 19.0056C20.0095 19.5485 19.5523 20 19 20H12ZM15.5 14.4286C13.6353 14.4286 12.125 12.7664 12.125 10.7143C12.125 8.66214 13.6353 7 15.5 7C17.3647 7 18.875 8.66214 18.875 10.7143C18.875 12.7664 17.3647 14.4286 15.5 14.4286Z" fill="#374293"/>
<path d="M40.5195 14.9941V18H38.7617V9.46875H42.0898C42.7305 9.46875 43.293 9.58594 43.7773 9.82031C44.2656 10.0547 44.6406 10.3887 44.9023 10.8223C45.1641 11.252 45.2949 11.7422 45.2949 12.293C45.2949 13.1289 45.0078 13.7891 44.4336 14.2734C43.8633 14.7539 43.0723 14.9941 42.0605 14.9941H40.5195ZM40.5195 13.5703H42.0898C42.5547 13.5703 42.9082 13.4609 43.1504 13.2422C43.3965 13.0234 43.5195 12.7109 43.5195 12.3047C43.5195 11.8867 43.3965 11.5488 43.1504 11.291C42.9043 11.0332 42.5645 10.9004 42.1309 10.8926H40.5195V13.5703ZM49.959 13.248C49.7285 13.2168 49.5254 13.2012 49.3496 13.2012C48.709 13.2012 48.2891 13.418 48.0898 13.8516V18H46.3965V11.6602H47.9961L48.043 12.416C48.3828 11.834 48.8535 11.543 49.4551 11.543C49.6426 11.543 49.8184 11.5684 49.9824 11.6191L49.959 13.248ZM50.3047 14.7715C50.3047 14.1426 50.4258 13.582 50.668 13.0898C50.9102 12.5977 51.2578 12.2168 51.7109 11.9473C52.168 11.6777 52.6973 11.543 53.2988 11.543C54.1543 11.543 54.8516 11.8047 55.3906 12.3281C55.9336 12.8516 56.2363 13.5625 56.2988 14.4609L56.3105 14.8945C56.3105 15.8672 56.0391 16.6484 55.4961 17.2383C54.9531 17.8242 54.2246 18.1172 53.3105 18.1172C52.3965 18.1172 51.666 17.8242 51.1191 17.2383C50.5762 16.6523 50.3047 15.8555 50.3047 14.8477V14.7715ZM51.998 14.8945C51.998 15.4961 52.1113 15.957 52.3379 16.2773C52.5645 16.5938 52.8887 16.752 53.3105 16.752C53.7207 16.752 54.041 16.5957 54.2715 16.2832C54.502 15.9668 54.6172 15.4629 54.6172 14.7715C54.6172 14.1816 54.502 13.7246 54.2715 13.4004C54.041 13.0762 53.7168 12.9141 53.2988 12.9141C52.8848 12.9141 52.5645 13.0762 52.3379 13.4004C52.1113 13.7207 51.998 14.2188 51.998 14.8945ZM57.7637 18V12.9023H56.8203V11.6602H57.7637V11.3672C57.7715 10.5703 58.0156 9.95703 58.4961 9.52734C58.9805 9.09375 59.6621 8.87695 60.541 8.87695C61.0684 8.87695 61.709 8.99219 62.4629 9.22266L62.2168 10.623C61.834 10.5098 61.5371 10.4375 61.3262 10.4062C61.1152 10.3711 60.8887 10.3535 60.6465 10.3535C59.8574 10.3535 59.4629 10.7031 59.4629 11.4023V11.6602H60.7109V12.9023H59.4629V18H57.7637ZM63.2539 18H61.5547V11.6602H63.2539V18ZM66.4414 18H64.7422V9H66.4414V18ZM70.7598 18.1172C69.8301 18.1172 69.0723 17.832 68.4863 17.2617C67.9043 16.6914 67.6133 15.9316 67.6133 14.9824V14.8184C67.6133 14.1816 67.7363 13.6133 67.9824 13.1133C68.2285 12.6094 68.5762 12.2227 69.0254 11.9531C69.4785 11.6797 69.9941 11.543 70.5723 11.543C71.4395 11.543 72.1211 11.8164 72.6172 12.3633C73.1172 12.9102 73.3672 13.6855 73.3672 14.6895V15.3809H69.3301C69.3848 15.7949 69.5488 16.127 69.8223 16.377C70.0996 16.627 70.4492 16.752 70.8711 16.752C71.5234 16.752 72.0332 16.5156 72.4004 16.043L73.2324 16.9746C72.9785 17.334 72.6348 17.6152 72.2012 17.8184C71.7676 18.0176 71.2871 18.1172 70.7598 18.1172ZM70.5664 12.9141C70.2305 12.9141 69.957 13.0273 69.7461 13.2539C69.5391 13.4805 69.4062 13.8047 69.3477 14.2266H71.7031V14.0918C71.6953 13.7168 71.5938 13.4277 71.3984 13.2246C71.2031 13.0176 70.9258 12.9141 70.5664 12.9141Z" fill="#374293"/>
</svg>
