<svg width="114" height="27" viewBox="0 0 114 27" fill="none" xmlns="http://www.w3.org/2000/svg">
<path d="M12 20C11.4477 20 10.9898 19.5478 11.1007 19.0068C11.294 18.0635 11.7601 17.1892 12.4517 16.4981C13.3812 15.5694 14.6419 15.0476 15.9564 15.0476C17.2709 15.0476 18.5316 15.5694 19.4611 16.4981C20.1527 17.1892 20.6188 18.0635 20.8121 19.0068C20.923 19.5478 20.4651 20 19.9128 20H12ZM15.9564 14.4286C13.9026 14.4286 12.2391 12.7664 12.2391 10.7143C12.2391 8.66214 13.9026 7 15.9564 7C18.0102 7 19.6737 8.66214 19.6737 10.7143C19.6737 12.7664 18.0102 14.4286 15.9564 14.4286Z" fill="white"/>
<path d="M38.5195 14.9941V18H36.7617V9.46875H40.0898C40.7305 9.46875 41.293 9.58594 41.7773 9.82031C42.2656 10.0547 42.6406 10.3887 42.9023 10.8223C43.1641 11.252 43.2949 11.7422 43.2949 12.293C43.2949 13.1289 43.0078 13.7891 42.4336 14.2734C41.8633 14.7539 41.0723 14.9941 40.0605 14.9941H38.5195ZM38.5195 13.5703H40.0898C40.5547 13.5703 40.9082 13.4609 41.1504 13.2422C41.3965 13.0234 41.5195 12.7109 41.5195 12.3047C41.5195 11.8867 41.3965 11.5488 41.1504 11.291C40.9043 11.0332 40.5645 10.9004 40.1309 10.8926H38.5195V13.5703ZM47.959 13.248C47.7285 13.2168 47.5254 13.2012 47.3496 13.2012C46.709 13.2012 46.2891 13.418 46.0898 13.8516V18H44.3965V11.6602H45.9961L46.043 12.416C46.3828 11.834 46.8535 11.543 47.4551 11.543C47.6426 11.543 47.8184 11.5684 47.9824 11.6191L47.959 13.248ZM48.3047 14.7715C48.3047 14.1426 48.4258 13.582 48.668 13.0898C48.9102 12.5977 49.2578 12.2168 49.7109 11.9473C50.168 11.6777 50.6973 11.543 51.2988 11.543C52.1543 11.543 52.8516 11.8047 53.3906 12.3281C53.9336 12.8516 54.2363 13.5625 54.2988 14.4609L54.3105 14.8945C54.3105 15.8672 54.0391 16.6484 53.4961 17.2383C52.9531 17.8242 52.2246 18.1172 51.3105 18.1172C50.3965 18.1172 49.666 17.8242 49.1191 17.2383C48.5762 16.6523 48.3047 15.8555 48.3047 14.8477V14.7715ZM49.998 14.8945C49.998 15.4961 50.1113 15.957 50.3379 16.2773C50.5645 16.5938 50.8887 16.752 51.3105 16.752C51.7207 16.752 52.041 16.5957 52.2715 16.2832C52.502 15.9668 52.6172 15.4629 52.6172 14.7715C52.6172 14.1816 52.502 13.7246 52.2715 13.4004C52.041 13.0762 51.7168 12.9141 51.2988 12.9141C50.8848 12.9141 50.5645 13.0762 50.3379 13.4004C50.1113 13.7207 49.998 14.2188 49.998 14.8945ZM55.7637 18V12.9023H54.8203V11.6602H55.7637V11.3672C55.7715 10.5703 56.0156 9.95703 56.4961 9.52734C56.9805 9.09375 57.6621 8.87695 58.541 8.87695C59.0684 8.87695 59.709 8.99219 60.4629 9.22266L60.2168 10.623C59.834 10.5098 59.5371 10.4375 59.3262 10.4062C59.1152 10.3711 58.8887 10.3535 58.6465 10.3535C57.8574 10.3535 57.4629 10.7031 57.4629 11.4023V11.6602H58.7109V12.9023H57.4629V18H55.7637ZM61.2539 18H59.5547V11.6602H61.2539V18ZM64.4414 18H62.7422V9H64.4414V18ZM68.7598 18.1172C67.8301 18.1172 67.0723 17.832 66.4863 17.2617C65.9043 16.6914 65.6133 15.9316 65.6133 14.9824V14.8184C65.6133 14.1816 65.7363 13.6133 65.9824 13.1133C66.2285 12.6094 66.5762 12.2227 67.0254 11.9531C67.4785 11.6797 67.9941 11.543 68.5723 11.543C69.4395 11.543 70.1211 11.8164 70.6172 12.3633C71.1172 12.9102 71.3672 13.6855 71.3672 14.6895V15.3809H67.3301C67.3848 15.7949 67.5488 16.127 67.8223 16.377C68.0996 16.627 68.4492 16.752 68.8711 16.752C69.5234 16.752 70.0332 16.5156 70.4004 16.043L71.2324 16.9746C70.9785 17.334 70.6348 17.6152 70.2012 17.8184C69.7676 18.0176 69.2871 18.1172 68.7598 18.1172ZM68.5664 12.9141C68.2305 12.9141 67.957 13.0273 67.7461 13.2539C67.5391 13.4805 67.4062 13.8047 67.3477 14.2266H69.7031V14.0918C69.6953 13.7168 69.5938 13.4277 69.3984 13.2246C69.2031 13.0176 68.9258 12.9141 68.5664 12.9141Z" fill="white"/>
</svg>
