<svg width="114" height="27" viewBox="0 0 114 27" fill="none" xmlns="http://www.w3.org/2000/svg">
<path d="M10.25 12.875H22.75V18.5C22.75 18.6658 22.6842 18.8247 22.5669 18.9419C22.4497 19.0592 22.2908 19.125 22.125 19.125H10.875C10.7092 19.125 10.5503 19.0592 10.4331 18.9419C10.3158 18.8247 10.25 18.6658 10.25 18.5V12.875ZM19.625 7.875H22.125C22.2908 7.875 22.4497 7.94085 22.5669 8.05806C22.6842 8.17527 22.75 8.33424 22.75 8.5V11.625H10.25V8.5C10.25 8.33424 10.3158 8.17527 10.4331 8.05806C10.5503 7.94085 10.7092 7.875 10.875 7.875H13.375V6.625H14.625V7.875H18.375V6.625H19.625V7.875Z" fill="white"/>
<path d="M41.1855 15.7617C41.1855 15.4297 41.0684 15.1758 40.834 15C40.5996 14.8203 40.1777 14.6328 39.5684 14.4375C38.959 14.2383 38.4766 14.043 38.1211 13.8516C37.1523 13.3281 36.668 12.623 36.668 11.7363C36.668 11.2754 36.7969 10.8652 37.0547 10.5059C37.3164 10.1426 37.6895 9.85938 38.1738 9.65625C38.6621 9.45312 39.209 9.35156 39.8145 9.35156C40.4238 9.35156 40.9668 9.46289 41.4434 9.68555C41.9199 9.9043 42.2891 10.2148 42.5508 10.6172C42.8164 11.0195 42.9492 11.4766 42.9492 11.9883H41.1914C41.1914 11.5977 41.0684 11.2949 40.8223 11.0801C40.5762 10.8613 40.2305 10.752 39.7852 10.752C39.3555 10.752 39.0215 10.8438 38.7832 11.0273C38.5449 11.207 38.4258 11.4453 38.4258 11.7422C38.4258 12.0195 38.5645 12.252 38.8418 12.4395C39.123 12.627 39.5352 12.8027 40.0781 12.9668C41.0781 13.2676 41.8066 13.6406 42.2637 14.0859C42.7207 14.5312 42.9492 15.0859 42.9492 15.75C42.9492 16.4883 42.6699 17.0684 42.1113 17.4902C41.5527 17.9082 40.8008 18.1172 39.8555 18.1172C39.1992 18.1172 38.6016 17.998 38.0625 17.7598C37.5234 17.5176 37.1113 17.1875 36.8262 16.7695C36.5449 16.3516 36.4043 15.8672 36.4043 15.3164H38.168C38.168 16.2578 38.7305 16.7285 39.8555 16.7285C40.2734 16.7285 40.5996 16.6445 40.834 16.4766C41.0684 16.3047 41.1855 16.0664 41.1855 15.7617ZM46.6699 16.752C46.9824 16.752 47.2363 16.666 47.4316 16.4941C47.627 16.3223 47.7285 16.0938 47.7363 15.8086H49.3242C49.3203 16.2383 49.2031 16.6328 48.9727 16.9922C48.7422 17.3477 48.4258 17.625 48.0234 17.8242C47.625 18.0195 47.1836 18.1172 46.6992 18.1172C45.793 18.1172 45.0781 17.8301 44.5547 17.2559C44.0312 16.6777 43.7695 15.8809 43.7695 14.8652V14.7539C43.7695 13.7773 44.0293 12.998 44.5488 12.416C45.0684 11.834 45.7812 11.543 46.6875 11.543C47.4805 11.543 48.1152 11.7695 48.5918 12.2227C49.0723 12.6719 49.3164 13.2715 49.3242 14.0215H47.7363C47.7285 13.6934 47.627 13.4277 47.4316 13.2246C47.2363 13.0176 46.9785 12.9141 46.6582 12.9141C46.2637 12.9141 45.9648 13.0586 45.7617 13.3477C45.5625 13.6328 45.4629 14.0977 45.4629 14.7422V14.918C45.4629 15.5703 45.5625 16.0391 45.7617 16.3242C45.9609 16.6094 46.2637 16.752 46.6699 16.752ZM51.9434 12.3516C52.3926 11.8125 52.957 11.543 53.6367 11.543C55.0117 11.543 55.709 12.3418 55.7285 13.9395V18H54.0352V13.9863C54.0352 13.623 53.957 13.3555 53.8008 13.1836C53.6445 13.0078 53.3848 12.9199 53.0215 12.9199C52.5254 12.9199 52.166 13.1113 51.9434 13.4941V18H50.25V9H51.9434V12.3516ZM59.9238 18.1172C58.9941 18.1172 58.2363 17.832 57.6504 17.2617C57.0684 16.6914 56.7773 15.9316 56.7773 14.9824V14.8184C56.7773 14.1816 56.9004 13.6133 57.1465 13.1133C57.3926 12.6094 57.7402 12.2227 58.1895 11.9531C58.6426 11.6797 59.1582 11.543 59.7363 11.543C60.6035 11.543 61.2852 11.8164 61.7812 12.3633C62.2812 12.9102 62.5312 13.6855 62.5312 14.6895V15.3809H58.4941C58.5488 15.7949 58.7129 16.127 58.9863 16.377C59.2637 16.627 59.6133 16.752 60.0352 16.752C60.6875 16.752 61.1973 16.5156 61.5645 16.043L62.3965 16.9746C62.1426 17.334 61.7988 17.6152 61.3652 17.8184C60.9316 18.0176 60.4512 18.1172 59.9238 18.1172ZM59.7305 12.9141C59.3945 12.9141 59.1211 13.0273 58.9102 13.2539C58.7031 13.4805 58.5703 13.8047 58.5117 14.2266H60.8672V14.0918C60.8594 13.7168 60.7578 13.4277 60.5625 13.2246C60.3672 13.0176 60.0898 12.9141 59.7305 12.9141ZM63.2344 14.7832C63.2344 13.7949 63.4551 13.0078 63.8965 12.4219C64.3418 11.8359 64.9492 11.543 65.7188 11.543C66.3359 11.543 66.8457 11.7734 67.248 12.2344V9H68.9473V18H67.418L67.3359 17.3262C66.9141 17.8535 66.3711 18.1172 65.707 18.1172C64.9609 18.1172 64.3613 17.8242 63.9082 17.2383C63.459 16.6484 63.2344 15.8301 63.2344 14.7832ZM64.9277 14.9062C64.9277 15.5 65.0312 15.9551 65.2383 16.2715C65.4453 16.5879 65.7461 16.7461 66.1406 16.7461C66.6641 16.7461 67.0332 16.5254 67.248 16.084V13.582C67.0371 13.1406 66.6719 12.9199 66.1523 12.9199C65.3359 12.9199 64.9277 13.582 64.9277 14.9062ZM74.0566 17.3555C73.6387 17.8633 73.0605 18.1172 72.3223 18.1172C71.6426 18.1172 71.123 17.9219 70.7637 17.5312C70.4082 17.1406 70.2266 16.5684 70.2188 15.8145V11.6602H71.9121V15.7559C71.9121 16.416 72.2129 16.7461 72.8145 16.7461C73.3887 16.7461 73.7832 16.5469 73.998 16.1484V11.6602H75.6973V18H74.1035L74.0566 17.3555ZM78.7617 18H77.0625V9H78.7617V18ZM83.0801 18.1172C82.1504 18.1172 81.3926 17.832 80.8066 17.2617C80.2246 16.6914 79.9336 15.9316 79.9336 14.9824V14.8184C79.9336 14.1816 80.0566 13.6133 80.3027 13.1133C80.5488 12.6094 80.8965 12.2227 81.3457 11.9531C81.7988 11.6797 82.3145 11.543 82.8926 11.543C83.7598 11.543 84.4414 11.8164 84.9375 12.3633C85.4375 12.9102 85.6875 13.6855 85.6875 14.6895V15.3809H81.6504C81.7051 15.7949 81.8691 16.127 82.1426 16.377C82.4199 16.627 82.7695 16.752 83.1914 16.752C83.8438 16.752 84.3535 16.5156 84.7207 16.043L85.5527 16.9746C85.2988 17.334 84.9551 17.6152 84.5215 17.8184C84.0879 18.0176 83.6074 18.1172 83.0801 18.1172ZM82.8867 12.9141C82.5508 12.9141 82.2773 13.0273 82.0664 13.2539C81.8594 13.4805 81.7266 13.8047 81.668 14.2266H84.0234V14.0918C84.0156 13.7168 83.9141 13.4277 83.7188 13.2246C83.5234 13.0176 83.2461 12.9141 82.8867 12.9141Z" fill="white"/>
</svg>
