<svg width="114" height="27" viewBox="0 0 114 27" fill="none" xmlns="http://www.w3.org/2000/svg">
<path d="M10.9167 13.0417H20.0834V17.1667C20.0834 17.2882 20.0351 17.4048 19.9491 17.4908C19.8632 17.5767 19.7466 17.625 19.625 17.625H11.375C11.2535 17.625 11.1369 17.5767 11.0509 17.4908C10.965 17.4048 10.9167 17.2882 10.9167 17.1667V13.0417ZM17.7917 9.37501H19.625C19.7466 9.37501 19.8632 9.4233 19.9491 9.50925C20.0351 9.59521 20.0834 9.71179 20.0834 9.83334V12.125H10.9167V9.83334C10.9167 9.71179 10.965 9.59521 11.0509 9.50925C11.1369 9.4233 11.2535 9.37501 11.375 9.37501H13.2084V8.45834H14.125V9.37501H16.875V8.45834H17.7917V9.37501Z" fill="white"/>
<path d="M43.1855 15.7617C43.1855 15.4297 43.0684 15.1758 42.834 15C42.5996 14.8203 42.1777 14.6328 41.5684 14.4375C40.959 14.2383 40.4766 14.043 40.1211 13.8516C39.1523 13.3281 38.668 12.623 38.668 11.7363C38.668 11.2754 38.7969 10.8652 39.0547 10.5059C39.3164 10.1426 39.6895 9.85938 40.1738 9.65625C40.6621 9.45312 41.209 9.35156 41.8145 9.35156C42.4238 9.35156 42.9668 9.46289 43.4434 9.68555C43.9199 9.9043 44.2891 10.2148 44.5508 10.6172C44.8164 11.0195 44.9492 11.4766 44.9492 11.9883H43.1914C43.1914 11.5977 43.0684 11.2949 42.8223 11.0801C42.5762 10.8613 42.2305 10.752 41.7852 10.752C41.3555 10.752 41.0215 10.8438 40.7832 11.0273C40.5449 11.207 40.4258 11.4453 40.4258 11.7422C40.4258 12.0195 40.5645 12.252 40.8418 12.4395C41.123 12.627 41.5352 12.8027 42.0781 12.9668C43.0781 13.2676 43.8066 13.6406 44.2637 14.0859C44.7207 14.5312 44.9492 15.0859 44.9492 15.75C44.9492 16.4883 44.6699 17.0684 44.1113 17.4902C43.5527 17.9082 42.8008 18.1172 41.8555 18.1172C41.1992 18.1172 40.6016 17.998 40.0625 17.7598C39.5234 17.5176 39.1113 17.1875 38.8262 16.7695C38.5449 16.3516 38.4043 15.8672 38.4043 15.3164H40.168C40.168 16.2578 40.7305 16.7285 41.8555 16.7285C42.2734 16.7285 42.5996 16.6445 42.834 16.4766C43.0684 16.3047 43.1855 16.0664 43.1855 15.7617ZM48.6699 16.752C48.9824 16.752 49.2363 16.666 49.4316 16.4941C49.627 16.3223 49.7285 16.0938 49.7363 15.8086H51.3242C51.3203 16.2383 51.2031 16.6328 50.9727 16.9922C50.7422 17.3477 50.4258 17.625 50.0234 17.8242C49.625 18.0195 49.1836 18.1172 48.6992 18.1172C47.793 18.1172 47.0781 17.8301 46.5547 17.2559C46.0312 16.6777 45.7695 15.8809 45.7695 14.8652V14.7539C45.7695 13.7773 46.0293 12.998 46.5488 12.416C47.0684 11.834 47.7812 11.543 48.6875 11.543C49.4805 11.543 50.1152 11.7695 50.5918 12.2227C51.0723 12.6719 51.3164 13.2715 51.3242 14.0215H49.7363C49.7285 13.6934 49.627 13.4277 49.4316 13.2246C49.2363 13.0176 48.9785 12.9141 48.6582 12.9141C48.2637 12.9141 47.9648 13.0586 47.7617 13.3477C47.5625 13.6328 47.4629 14.0977 47.4629 14.7422V14.918C47.4629 15.5703 47.5625 16.0391 47.7617 16.3242C47.9609 16.6094 48.2637 16.752 48.6699 16.752ZM53.9434 12.3516C54.3926 11.8125 54.957 11.543 55.6367 11.543C57.0117 11.543 57.709 12.3418 57.7285 13.9395V18H56.0352V13.9863C56.0352 13.623 55.957 13.3555 55.8008 13.1836C55.6445 13.0078 55.3848 12.9199 55.0215 12.9199C54.5254 12.9199 54.166 13.1113 53.9434 13.4941V18H52.25V9H53.9434V12.3516ZM61.9238 18.1172C60.9941 18.1172 60.2363 17.832 59.6504 17.2617C59.0684 16.6914 58.7773 15.9316 58.7773 14.9824V14.8184C58.7773 14.1816 58.9004 13.6133 59.1465 13.1133C59.3926 12.6094 59.7402 12.2227 60.1895 11.9531C60.6426 11.6797 61.1582 11.543 61.7363 11.543C62.6035 11.543 63.2852 11.8164 63.7812 12.3633C64.2812 12.9102 64.5312 13.6855 64.5312 14.6895V15.3809H60.4941C60.5488 15.7949 60.7129 16.127 60.9863 16.377C61.2637 16.627 61.6133 16.752 62.0352 16.752C62.6875 16.752 63.1973 16.5156 63.5645 16.043L64.3965 16.9746C64.1426 17.334 63.7988 17.6152 63.3652 17.8184C62.9316 18.0176 62.4512 18.1172 61.9238 18.1172ZM61.7305 12.9141C61.3945 12.9141 61.1211 13.0273 60.9102 13.2539C60.7031 13.4805 60.5703 13.8047 60.5117 14.2266H62.8672V14.0918C62.8594 13.7168 62.7578 13.4277 62.5625 13.2246C62.3672 13.0176 62.0898 12.9141 61.7305 12.9141ZM65.2344 14.7832C65.2344 13.7949 65.4551 13.0078 65.8965 12.4219C66.3418 11.8359 66.9492 11.543 67.7188 11.543C68.3359 11.543 68.8457 11.7734 69.248 12.2344V9H70.9473V18H69.418L69.3359 17.3262C68.9141 17.8535 68.3711 18.1172 67.707 18.1172C66.9609 18.1172 66.3613 17.8242 65.9082 17.2383C65.459 16.6484 65.2344 15.8301 65.2344 14.7832ZM66.9277 14.9062C66.9277 15.5 67.0312 15.9551 67.2383 16.2715C67.4453 16.5879 67.7461 16.7461 68.1406 16.7461C68.6641 16.7461 69.0332 16.5254 69.248 16.084V13.582C69.0371 13.1406 68.6719 12.9199 68.1523 12.9199C67.3359 12.9199 66.9277 13.582 66.9277 14.9062ZM76.0566 17.3555C75.6387 17.8633 75.0605 18.1172 74.3223 18.1172C73.6426 18.1172 73.123 17.9219 72.7637 17.5312C72.4082 17.1406 72.2266 16.5684 72.2188 15.8145V11.6602H73.9121V15.7559C73.9121 16.416 74.2129 16.7461 74.8145 16.7461C75.3887 16.7461 75.7832 16.5469 75.998 16.1484V11.6602H77.6973V18H76.1035L76.0566 17.3555ZM80.7617 18H79.0625V9H80.7617V18ZM85.0801 18.1172C84.1504 18.1172 83.3926 17.832 82.8066 17.2617C82.2246 16.6914 81.9336 15.9316 81.9336 14.9824V14.8184C81.9336 14.1816 82.0566 13.6133 82.3027 13.1133C82.5488 12.6094 82.8965 12.2227 83.3457 11.9531C83.7988 11.6797 84.3145 11.543 84.8926 11.543C85.7598 11.543 86.4414 11.8164 86.9375 12.3633C87.4375 12.9102 87.6875 13.6855 87.6875 14.6895V15.3809H83.6504C83.7051 15.7949 83.8691 16.127 84.1426 16.377C84.4199 16.627 84.7695 16.752 85.1914 16.752C85.8438 16.752 86.3535 16.5156 86.7207 16.043L87.5527 16.9746C87.2988 17.334 86.9551 17.6152 86.5215 17.8184C86.0879 18.0176 85.6074 18.1172 85.0801 18.1172ZM84.8867 12.9141C84.5508 12.9141 84.2773 13.0273 84.0664 13.2539C83.8594 13.4805 83.7266 13.8047 83.668 14.2266H86.0234V14.0918C86.0156 13.7168 85.9141 13.4277 85.7188 13.2246C85.5234 13.0176 85.2461 12.9141 84.8867 12.9141Z" fill="white"/>
</svg>
