<svg width="24" height="24" viewBox="0 0 24 24" fill="none" xmlns="http://www.w3.org/2000/svg">
<path d="M11.7831 1.04821C11.9259 1.01646 12.0741 1.01646 12.2169 1.04821L20.217 2.826C20.674 2.928 21 3.333 21 3.802V13.789C21 15.795 19.997 17.669 18.328 18.781L12.5547 22.6302C12.2188 22.8541 11.7812 22.8541 11.4453 22.6302L5.672 18.781C4.002 17.668 3 15.795 3 13.79V3.802C3 3.333 3.326 2.928 3.783 2.826L11.7831 1.04821ZM17.1592 8.92871C16.7686 8.53835 16.1355 8.53843 15.745 8.92889L11.502 13.171L9.381 11.05C8.99053 10.6595 8.35747 10.6595 7.967 11.05V11.05C7.57653 11.4405 7.57654 12.0735 7.967 12.464L10.7959 15.2929C11.1864 15.6834 11.8196 15.6834 12.2101 15.2929L17.1595 10.3435C17.5502 9.95281 17.5501 9.3193 17.1592 8.92871V8.92871Z" fill="#A6A6A6"/>
</svg>
