<svg width="685" height="265" viewBox="0 0 685 265" fill="none" xmlns="http://www.w3.org/2000/svg">
<rect width="685" height="265" fill="#374293"/>
<path d="M424.664 164.659V147.954H408.366V164.659H424.664Z" fill="#B3BEDA"/>
<path d="M121.692 104.697C108.165 104.697 96.3253 113.782 92.8242 126.848C89.3234 139.914 95.0345 153.702 106.749 160.465C118.463 167.229 133.26 165.281 142.825 155.716L131.21 144.102C127.36 147.952 121.571 149.103 116.541 147.02C111.511 144.936 108.231 140.028 108.231 134.584C108.231 129.139 111.511 124.231 116.541 122.147C121.571 120.064 127.36 121.216 131.21 125.065L142.825 113.45C137.232 107.826 129.623 104.675 121.692 104.697Z" fill="#B3BEDA"/>
<path d="M166.952 69.8596H150.527V164.872H166.952V69.8596Z" fill="#B3BEDA"/>
<path d="M177.037 105.098H177.035C173.577 105.095 170.152 105.771 166.955 107.089V107.099L166.952 107.09V107.089C157.022 111.185 150.538 120.862 150.527 131.604V164.872H166.952V131.605V128.756L166.955 128.734V131.605C166.955 126.038 171.469 121.525 177.036 121.525C182.603 121.525 187.117 126.038 187.117 131.605V164.873H203.542V131.605C203.526 116.973 191.669 105.115 177.037 105.098Z" fill="#B3BEDA"/>
<path d="M166.952 107.089C157.022 111.185 150.538 120.862 150.527 131.604V164.872H166.952V131.605V128.756V107.089Z" fill="#DADFED"/>
<path d="M273.688 130.855L270.462 123.226L270.411 123.105L270.401 123.081L270.358 122.981L270.348 122.959L270.297 122.842L270.286 122.815L270.252 122.737L270.222 122.671L270.21 122.642C269.409 120.856 268.434 119.153 267.301 117.557H267.299L213.448 139.801C214.254 144.727 216.31 149.364 219.418 153.27L273.688 130.855Z" fill="#B3BEDA"/>
<path d="M243.522 147.999C241.085 148.086 238.675 147.451 236.597 146.173C236.425 146.062 236.254 145.946 236.088 145.824C233.114 143.654 229.492 139.824 230.307 132.837V132.821C230.806 128.242 233.702 124.274 237.911 122.403C239.381 121.753 240.972 121.421 242.579 121.426C245.459 121.431 248.257 122.389 250.535 124.152C250.621 124.225 250.706 124.3 250.791 124.378L250.793 124.377C255.165 128.383 257.116 137.657 257.125 137.699L273.688 130.855L270.462 123.226L270.411 123.105L270.401 123.081L270.358 122.981L270.348 122.959L270.297 122.842L270.286 122.815L270.252 122.737L270.222 122.671L270.21 122.642C270.177 122.569 270.134 122.501 270.101 122.428C269.765 121.693 269.398 120.98 269.009 120.282C268.891 120.071 268.766 119.865 268.643 119.658C268.283 119.046 267.903 118.452 267.503 117.873C267.432 117.77 267.374 117.659 267.301 117.557H267.299L267.289 117.562C261.756 109.76 252.724 104.964 242.922 104.977L242.929 104.974C226.431 104.992 213.061 118.362 213.042 134.861C213.042 136.547 213.214 138.185 213.478 139.788L213.448 139.801C213.489 140.05 213.546 140.294 213.594 140.541C213.639 140.777 213.682 141.014 213.733 141.248C213.907 142.054 214.111 142.851 214.351 143.637C214.416 143.846 214.49 144.05 214.558 144.257C214.773 144.905 215.009 145.544 215.268 146.174C215.351 146.377 215.427 146.582 215.514 146.781C215.832 147.508 216.184 148.22 216.561 148.919C216.685 149.15 216.816 149.376 216.946 149.604C217.288 150.2 217.649 150.786 218.033 151.358C218.124 151.492 218.206 151.633 218.298 151.766C218.655 152.278 219.028 152.779 219.418 153.269C219.418 153.269 219.418 153.269 219.418 153.269L219.443 153.26C225.03 160.281 233.792 164.747 243.845 164.747C252.758 164.747 259.906 161.903 267.734 155.24L257.089 142.731C252.238 146.858 248.449 147.999 243.522 147.999Z" fill="#B3BEDA"/>
<path d="M267.289 117.562L250.79 124.377C250.79 124.377 250.79 124.377 250.791 124.378L250.793 124.377C255.158 128.377 257.11 137.626 257.124 137.696L273.688 130.855L270.462 123.226L270.411 123.105L270.401 123.081L270.358 122.981L270.348 122.959L270.297 122.842L270.286 122.815L270.252 122.737L270.222 122.671L270.21 122.642C270.177 122.569 270.134 122.501 270.101 122.428C269.844 121.865 269.554 121.324 269.265 120.784C269.176 120.618 269.101 120.446 269.009 120.282C268.891 120.071 268.766 119.865 268.643 119.658C268.399 119.244 268.133 118.848 267.871 118.449C267.677 118.154 267.506 117.845 267.301 117.557H267.299L267.289 117.562Z" fill="#DADFED"/>
<path d="M219.419 153.269L219.442 153.259L236.598 146.174C236.598 146.174 236.597 146.173 236.597 146.173L236.056 146.397L236.055 146.397L236.055 146.397L236.596 146.173C236.424 146.062 236.254 145.946 236.088 145.824C233.114 143.654 229.492 139.824 230.307 132.837V132.837L213.448 139.801C213.489 140.05 213.546 140.294 213.594 140.541C213.599 140.571 213.606 140.601 213.611 140.632C213.651 140.838 213.689 141.044 213.733 141.25C213.907 142.055 214.111 142.851 214.351 143.637C214.416 143.846 214.49 144.05 214.558 144.257C214.773 144.905 215.009 145.544 215.268 146.174C215.351 146.377 215.427 146.582 215.514 146.781C215.832 147.508 216.184 148.22 216.56 148.919C216.574 148.943 216.588 148.967 216.601 148.991C216.714 149.197 216.83 149.4 216.946 149.604C217.288 150.2 217.648 150.785 218.032 151.356C218.123 151.492 218.206 151.633 218.299 151.767C218.655 152.278 219.028 152.78 219.418 153.269L219.419 153.269H219.419V153.269Z" fill="#DADFED"/>
<path d="M310.297 104.697C296.77 104.697 284.93 113.782 281.429 126.848C277.928 139.914 283.639 153.702 295.353 160.465C307.068 167.229 321.864 165.281 331.429 155.716L319.815 144.102C315.965 147.952 310.175 149.103 305.145 147.02C300.115 144.936 296.835 140.028 296.835 134.584C296.835 129.139 300.115 124.231 305.145 122.147C310.175 120.064 315.965 121.216 319.815 125.065L331.429 113.45C325.837 107.826 318.227 104.675 310.297 104.697Z" fill="#B3BEDA"/>
<path d="M367.557 104.9C351.06 104.92 337.691 118.289 337.671 134.786C337.671 146.874 344.952 157.772 356.12 162.398C367.288 167.024 380.143 164.467 388.691 155.92C397.238 147.372 399.795 134.517 395.169 123.349C390.543 112.181 379.645 104.9 367.557 104.9ZM367.557 148.246C360.126 148.237 354.104 142.215 354.096 134.784C354.096 129.339 357.376 124.43 362.406 122.347C367.437 120.263 373.227 121.415 377.077 125.266C380.927 129.116 382.078 134.906 379.994 139.936C377.911 144.966 373.002 148.246 367.557 148.246Z" fill="#BDD2E5"/>
<path d="M397.449 104.9H381.023V199.913H397.449V104.9Z" fill="#9AAFD4"/>
<path d="M381.023 108.125C387.278 111.286 392.373 116.6 395.169 123.349C399.795 134.517 397.238 147.372 388.691 155.92C386.406 158.204 383.808 160.046 381.023 161.451V108.125Z" fill="#A4BDD8"/>
<path d="M367.557 104.9C351.06 104.92 337.691 118.289 337.671 134.786C337.671 146.874 344.952 157.772 356.12 162.398C367.288 167.024 380.143 164.467 388.691 155.92C397.238 147.372 399.795 134.517 395.169 123.349C390.543 112.181 379.645 104.9 367.557 104.9ZM367.557 148.246C360.126 148.237 354.104 142.215 354.096 134.784C354.096 129.339 357.376 124.43 362.406 122.347C367.437 120.263 373.227 121.415 377.077 125.266C380.927 129.116 382.078 134.906 379.994 139.936C377.911 144.966 373.002 148.246 367.557 148.246Z" fill="#B3BEDA"/>
<path d="M397.449 104.9H381.023V199.913H397.449V104.9Z" fill="#B3BEDA"/>
<path d="M381.023 108.125C387.278 111.286 392.373 116.6 395.169 123.349C399.795 134.517 397.238 147.372 388.691 155.92C386.406 158.204 383.808 160.046 381.023 161.451V108.125Z" fill="#DADFED"/>
<path d="M479.995 112.103V112.101C479.995 112.102 479.995 112.102 479.994 112.102C475.126 107.475 468.665 104.897 461.948 104.903V104.9C458.578 104.896 455.238 105.545 452.114 106.811V106.81C442.195 110.829 435.7 120.457 435.688 131.159V164.714H452.114V131.162C452.114 125.731 456.517 121.327 461.948 121.327C467.38 121.327 471.783 125.731 471.783 131.162V164.714H488.208V131.162C488.212 123.949 485.241 117.055 479.995 112.103Z" fill="#B3BEDA"/>
<path d="M516.091 112.103V112.101C516.09 112.102 516.09 112.102 516.089 112.103C511.221 107.476 504.76 104.897 498.044 104.903V104.9C494.673 104.896 491.334 105.545 488.209 106.811V106.81C478.29 110.829 471.795 120.457 471.784 131.159V164.714H488.209V131.162C488.209 125.731 492.612 121.327 498.044 121.327C503.475 121.327 507.878 125.731 507.878 131.162V164.714H524.304V131.162C524.307 123.949 521.336 117.055 516.091 112.103Z" fill="#B3BEDA"/>
<path d="M479.995 112.103V112.101C479.995 112.102 479.995 112.102 479.994 112.102C479.993 112.101 479.991 112.101 479.99 112.099C474.858 116.967 471.792 123.81 471.784 131.159V164.714H488.208V131.162C488.212 123.949 485.241 117.055 479.995 112.103Z" fill="#DADFED"/>
<path d="M594.395 130.855L591.17 123.226L591.118 123.105L591.108 123.081L591.065 122.981L591.055 122.959L591.004 122.842L590.993 122.815L590.959 122.737L590.929 122.671L590.917 122.642C590.116 120.856 589.142 119.153 588.008 117.557H588.007L534.155 139.801C534.962 144.727 537.017 149.364 540.125 153.27L594.395 130.855Z" fill="#B3BEDA"/>
<path d="M564.23 147.999C561.792 148.086 559.383 147.451 557.304 146.173C557.132 146.062 556.961 145.946 556.795 145.824C553.821 143.654 550.199 139.824 551.014 132.837V132.821C551.513 128.242 554.409 124.274 558.619 122.403C560.089 121.753 561.679 121.421 563.286 121.426C566.167 121.431 568.965 122.389 571.243 124.152C571.328 124.225 571.413 124.3 571.498 124.378L571.5 124.377C575.872 128.383 577.824 137.657 577.832 137.699L594.396 130.855L591.17 123.226L591.119 123.105L591.108 123.081L591.066 122.981L591.055 122.959L591.004 122.842L590.993 122.815L590.959 122.737L590.93 122.671L590.917 122.642C590.884 122.569 590.841 122.501 590.808 122.428C590.472 121.693 590.105 120.98 589.716 120.282C589.598 120.071 589.473 119.865 589.35 119.658C588.99 119.046 588.61 118.452 588.21 117.873C588.139 117.77 588.081 117.659 588.009 117.557H588.007L587.996 117.562C582.463 109.76 573.431 104.964 563.629 104.977L563.636 104.974C547.138 104.992 533.768 118.362 533.749 134.861C533.749 136.547 533.922 138.185 534.186 139.788L534.155 139.801C534.196 140.05 534.254 140.294 534.301 140.541C534.346 140.777 534.389 141.014 534.44 141.248C534.614 142.054 534.818 142.851 535.059 143.637C535.123 143.846 535.197 144.05 535.265 144.257C535.48 144.905 535.717 145.544 535.976 146.174C536.058 146.377 536.134 146.582 536.222 146.781C536.54 147.508 536.892 148.22 537.268 148.919C537.392 149.15 537.523 149.376 537.654 149.604C537.995 150.2 538.356 150.786 538.741 151.358C538.831 151.492 538.913 151.633 539.006 151.766C539.362 152.278 539.735 152.779 540.125 153.269V153.269L540.15 153.26C545.738 160.281 554.499 164.747 564.553 164.747C573.465 164.747 580.613 161.903 588.441 155.24L577.796 142.731C572.945 146.858 569.156 147.999 564.23 147.999Z" fill="#B3BEDA"/>
<path d="M587.996 117.562L571.497 124.377C571.497 124.377 571.498 124.377 571.498 124.378L571.5 124.377C575.866 128.377 577.817 137.626 577.831 137.696L594.395 130.855L591.17 123.226L591.118 123.105L591.108 123.081L591.065 122.981L591.055 122.959L591.004 122.842L590.993 122.815L590.959 122.737L590.929 122.671L590.917 122.642C590.884 122.569 590.841 122.501 590.808 122.428C590.551 121.865 590.261 121.324 589.972 120.784C589.883 120.618 589.808 120.446 589.716 120.282C589.598 120.071 589.473 119.865 589.35 119.658C589.106 119.244 588.84 118.848 588.578 118.449C588.384 118.154 588.213 117.845 588.008 117.557H588.007L587.996 117.562Z" fill="#DADFED"/>
<path d="M540.126 153.269L540.15 153.259L557.305 146.174C557.305 146.174 557.305 146.173 557.304 146.173L556.763 146.397L556.762 146.397L556.762 146.397L557.303 146.173C557.131 146.062 556.961 145.946 556.795 145.824C553.821 143.654 550.199 139.824 551.014 132.837V132.837L534.155 139.801C534.196 140.05 534.254 140.294 534.301 140.541C534.306 140.571 534.313 140.601 534.319 140.632C534.359 140.838 534.396 141.044 534.44 141.25C534.614 142.055 534.818 142.851 535.059 143.637C535.123 143.846 535.197 144.05 535.265 144.257C535.48 144.905 535.717 145.544 535.976 146.174C536.058 146.377 536.134 146.582 536.221 146.781C536.539 147.508 536.891 148.22 537.268 148.919C537.281 148.943 537.295 148.967 537.309 148.991C537.421 149.197 537.537 149.4 537.654 149.604C537.995 150.2 538.356 150.785 538.74 151.356C538.831 151.492 538.913 151.633 539.006 151.767C539.362 152.278 539.735 152.78 540.125 153.269L540.126 153.269H540.126V153.269Z" fill="#DADFED"/>
</svg>
