<svg width="685" height="265" viewBox="0 0 685 265" fill="none" xmlns="http://www.w3.org/2000/svg">
<rect width="685" height="265" fill="white"/>
<path d="M424.664 164.323V147.618H408.366V164.323H424.664Z" fill="#374293"/>
<path d="M121.692 104.361C108.165 104.361 96.3253 113.446 92.8242 126.512C89.3234 139.578 95.0345 153.366 106.749 160.129C118.463 166.893 133.26 164.945 142.825 155.38L131.21 143.766C127.36 147.615 121.571 148.767 116.541 146.684C111.511 144.6 108.231 139.692 108.231 134.248C108.231 128.803 111.511 123.895 116.541 121.811C121.571 119.728 127.36 120.879 131.21 124.729L142.825 113.114C137.232 107.49 129.623 104.339 121.692 104.361Z" fill="#374293"/>
<path d="M166.952 69.5236H150.527V164.536H166.952V69.5236Z" fill="#374293"/>
<path d="M177.037 104.762H177.035C173.577 104.759 170.152 105.435 166.955 106.753V106.763L166.952 106.754V106.753C157.022 110.849 150.538 120.526 150.527 131.268V164.536H166.952V131.269V128.42L166.955 128.398V131.269C166.955 125.702 171.469 121.189 177.036 121.189C182.603 121.189 187.117 125.702 187.117 131.269V164.537H203.542V131.269C203.526 116.637 191.669 104.779 177.037 104.762Z" fill="#374293"/>
<path d="M166.952 106.753C157.022 110.849 150.538 120.526 150.527 131.268V164.536H166.952V131.269V128.42V106.753Z" fill="#6271B5"/>
<path d="M273.688 130.519L270.462 122.89L270.411 122.769L270.401 122.745L270.358 122.645L270.348 122.623L270.297 122.505L270.286 122.479L270.252 122.401L270.222 122.335L270.21 122.306C269.409 120.52 268.434 118.817 267.301 117.221H267.299L213.448 139.465C214.254 144.391 216.31 149.028 219.418 152.933L273.688 130.519Z" fill="#374293"/>
<path d="M243.522 147.663C241.085 147.75 238.675 147.115 236.597 145.837C236.425 145.726 236.254 145.61 236.088 145.488C233.114 143.318 229.492 139.488 230.307 132.501V132.485C230.806 127.906 233.702 123.938 237.911 122.067C239.381 121.417 240.972 121.085 242.579 121.09C245.459 121.094 248.257 122.053 250.535 123.816C250.621 123.889 250.706 123.964 250.791 124.042L250.793 124.041C255.165 128.047 257.116 137.321 257.125 137.363L273.688 130.519L270.462 122.89L270.411 122.769L270.401 122.745L270.358 122.645L270.348 122.623L270.297 122.505L270.286 122.479L270.252 122.401L270.222 122.335L270.21 122.306C270.177 122.233 270.134 122.165 270.101 122.092C269.765 121.357 269.398 120.644 269.009 119.946C268.891 119.735 268.766 119.529 268.643 119.322C268.283 118.71 267.903 118.116 267.503 117.536C267.432 117.434 267.374 117.323 267.301 117.221H267.299L267.289 117.226C261.756 109.424 252.724 104.628 242.922 104.641L242.929 104.638C226.431 104.656 213.061 118.026 213.042 134.524C213.042 136.211 213.214 137.849 213.478 139.452L213.448 139.465C213.489 139.714 213.546 139.958 213.594 140.205C213.639 140.441 213.682 140.678 213.733 140.912C213.907 141.718 214.111 142.515 214.351 143.3C214.416 143.51 214.49 143.714 214.558 143.921C214.773 144.569 215.009 145.208 215.268 145.838C215.351 146.041 215.427 146.246 215.514 146.445C215.832 147.172 216.184 147.884 216.561 148.583C216.685 148.814 216.816 149.04 216.946 149.268C217.288 149.864 217.649 150.45 218.033 151.022C218.124 151.156 218.206 151.297 218.298 151.43C218.655 151.942 219.028 152.443 219.418 152.933C219.418 152.933 219.418 152.933 219.418 152.933L219.443 152.924C225.03 159.945 233.792 164.411 243.845 164.411C252.758 164.411 259.906 161.567 267.734 154.904L257.089 142.394C252.238 146.522 248.449 147.663 243.522 147.663Z" fill="#374293"/>
<path d="M267.289 117.226L250.79 124.041L250.791 124.041L250.793 124.041C255.158 128.041 257.11 137.29 257.124 137.36L273.688 130.519L270.462 122.89L270.411 122.769L270.401 122.745L270.358 122.645L270.348 122.623L270.297 122.505L270.286 122.479L270.252 122.401L270.222 122.335L270.21 122.306C270.177 122.233 270.134 122.165 270.101 122.092C269.844 121.529 269.554 120.988 269.265 120.448C269.176 120.282 269.101 120.11 269.009 119.946C268.891 119.735 268.766 119.529 268.643 119.322C268.399 118.907 268.133 118.512 267.871 118.113C267.677 117.818 267.506 117.509 267.301 117.221H267.299L267.289 117.226Z" fill="#6271B5"/>
<path d="M219.419 152.933L219.442 152.923L236.598 145.838V145.838L236.056 146.061L236.596 145.837C236.424 145.726 236.254 145.61 236.088 145.488C233.114 143.318 229.492 139.488 230.307 132.501L213.448 139.465C213.489 139.714 213.546 139.958 213.594 140.205C213.599 140.235 213.606 140.265 213.611 140.296C213.651 140.502 213.689 140.708 213.733 140.913C213.907 141.719 214.111 142.515 214.351 143.3C214.416 143.51 214.49 143.714 214.558 143.921C214.773 144.569 215.009 145.208 215.268 145.838C215.351 146.041 215.427 146.246 215.514 146.445C215.832 147.172 216.184 147.884 216.56 148.583C216.574 148.607 216.588 148.631 216.601 148.655C216.714 148.861 216.83 149.064 216.946 149.268C217.288 149.864 217.648 150.449 218.032 151.02C218.123 151.156 218.206 151.297 218.299 151.431C218.655 151.942 219.028 152.444 219.418 152.933L219.419 152.933Z" fill="#6271B5"/>
<path d="M310.297 104.361C296.77 104.361 284.93 113.446 281.429 126.512C277.928 139.578 283.639 153.366 295.353 160.129C307.068 166.893 321.864 164.945 331.429 155.38L319.815 143.766C315.965 147.615 310.175 148.767 305.145 146.684C300.115 144.6 296.835 139.692 296.835 134.248C296.835 128.803 300.115 123.895 305.145 121.811C310.175 119.728 315.965 120.879 319.815 124.729L331.429 113.114C325.837 107.49 318.227 104.339 310.297 104.361Z" fill="#374293"/>
<path d="M367.557 104.564C351.06 104.584 337.691 117.953 337.671 134.45C337.671 146.538 344.952 157.436 356.12 162.062C367.288 166.688 380.143 164.131 388.691 155.584C397.238 147.036 399.795 134.181 395.169 123.013C390.543 111.845 379.645 104.564 367.557 104.564ZM367.557 147.91C360.126 147.901 354.104 141.879 354.096 134.448C354.096 129.003 357.376 124.094 362.406 122.011C367.437 119.927 373.227 121.079 377.077 124.929C380.927 128.78 382.078 134.57 379.994 139.6C377.911 144.63 373.002 147.91 367.557 147.91Z" fill="#BDD2E5"/>
<path d="M397.449 104.564H381.023V199.576H397.449V104.564Z" fill="#9AAFD4"/>
<path d="M381.023 107.789C387.278 110.95 392.373 116.264 395.169 123.013C399.795 134.181 397.238 147.036 388.691 155.584C386.406 157.868 383.808 159.71 381.023 161.115V107.789Z" fill="#A4BDD8"/>
<path d="M367.557 104.564C351.06 104.584 337.691 117.953 337.671 134.45C337.671 146.538 344.952 157.436 356.12 162.062C367.288 166.688 380.143 164.131 388.691 155.584C397.238 147.036 399.795 134.181 395.169 123.013C390.543 111.845 379.645 104.564 367.557 104.564ZM367.557 147.91C360.126 147.901 354.104 141.879 354.096 134.448C354.096 129.003 357.376 124.094 362.406 122.011C367.437 119.927 373.227 121.079 377.077 124.929C380.927 128.78 382.078 134.57 379.994 139.6C377.911 144.63 373.002 147.91 367.557 147.91Z" fill="#374293"/>
<path d="M397.449 104.564H381.023V199.576H397.449V104.564Z" fill="#374293"/>
<path d="M381.023 107.789C387.278 110.95 392.373 116.264 395.169 123.013C399.795 134.181 397.238 147.036 388.691 155.584C386.406 157.868 383.808 159.71 381.023 161.115V107.789Z" fill="#6271B5"/>
<path d="M479.995 111.767V111.765C479.995 111.766 479.995 111.766 479.994 111.766C475.126 107.139 468.665 104.561 461.948 104.567V104.564C458.578 104.56 455.238 105.209 452.114 106.475V106.474C442.195 110.493 435.7 120.121 435.688 130.823V164.378H452.114V130.826C452.114 125.395 456.517 120.991 461.948 120.991C467.38 120.991 471.783 125.395 471.783 130.826V164.378H488.208V130.826C488.212 123.613 485.241 116.718 479.995 111.767Z" fill="#374293"/>
<path d="M516.091 111.767V111.765C516.09 111.766 516.09 111.766 516.089 111.766C511.221 107.139 504.76 104.561 498.044 104.567V104.564C494.673 104.56 491.334 105.209 488.209 106.475V106.474C478.29 110.493 471.795 120.121 471.784 130.823V164.378H488.209V130.826C488.209 125.395 492.612 120.991 498.044 120.991C503.475 120.991 507.878 125.395 507.878 130.826V164.378H524.304V130.826C524.307 123.613 521.336 116.718 516.091 111.767Z" fill="#374293"/>
<path d="M479.995 111.767V111.765C479.995 111.766 479.995 111.766 479.994 111.766C479.993 111.765 479.991 111.765 479.99 111.763C474.858 116.631 471.792 123.474 471.784 130.823V164.378H488.208V130.826C488.212 123.613 485.241 116.718 479.995 111.767Z" fill="#6271B5"/>
<path d="M594.395 130.519L591.17 122.89L591.118 122.769L591.108 122.745L591.065 122.645L591.055 122.623L591.004 122.505L590.993 122.479L590.959 122.401L590.929 122.335L590.917 122.306C590.116 120.52 589.142 118.817 588.008 117.221H588.007L534.155 139.465C534.962 144.391 537.017 149.028 540.125 152.933L594.395 130.519Z" fill="#374293"/>
<path d="M564.23 147.663C561.792 147.75 559.383 147.115 557.304 145.837C557.132 145.726 556.961 145.61 556.795 145.488C553.821 143.318 550.199 139.488 551.014 132.501V132.485C551.513 127.906 554.409 123.938 558.619 122.067C560.089 121.417 561.679 121.085 563.286 121.09C566.167 121.094 568.965 122.053 571.243 123.816C571.328 123.889 571.413 123.964 571.498 124.042L571.5 124.041C575.872 128.047 577.824 137.321 577.832 137.363L594.396 130.519L591.17 122.89L591.119 122.769L591.108 122.745L591.066 122.645L591.055 122.623L591.004 122.505L590.993 122.479L590.959 122.401L590.93 122.335L590.917 122.306C590.884 122.233 590.841 122.165 590.808 122.092C590.472 121.357 590.105 120.644 589.716 119.946C589.598 119.735 589.473 119.529 589.35 119.322C588.99 118.71 588.61 118.116 588.21 117.536C588.139 117.434 588.081 117.323 588.009 117.221H588.007L587.996 117.226C582.463 109.424 573.431 104.628 563.629 104.641L563.636 104.638C547.138 104.656 533.768 118.026 533.749 134.524C533.749 136.211 533.922 137.849 534.186 139.452L534.155 139.465C534.196 139.714 534.254 139.958 534.301 140.205C534.346 140.441 534.389 140.678 534.44 140.912C534.614 141.718 534.818 142.515 535.059 143.3C535.123 143.51 535.197 143.714 535.265 143.921C535.48 144.569 535.717 145.208 535.976 145.838C536.058 146.041 536.134 146.246 536.222 146.445C536.54 147.172 536.892 147.884 537.268 148.583C537.392 148.814 537.523 149.04 537.654 149.268C537.995 149.864 538.356 150.45 538.741 151.022C538.831 151.156 538.913 151.297 539.006 151.43C539.362 151.942 539.735 152.443 540.125 152.933V152.933L540.15 152.924C545.738 159.945 554.499 164.411 564.553 164.411C573.465 164.411 580.613 161.567 588.441 154.904L577.796 142.394C572.945 146.522 569.156 147.663 564.23 147.663Z" fill="#374293"/>
<path d="M587.996 117.226L571.497 124.041C571.497 124.041 571.498 124.041 571.498 124.041L571.5 124.041C575.866 128.041 577.817 137.29 577.831 137.36L594.395 130.519L591.17 122.89L591.118 122.769L591.108 122.745L591.065 122.645L591.055 122.623L591.004 122.505L590.993 122.479L590.959 122.401L590.929 122.335L590.917 122.306C590.884 122.233 590.841 122.165 590.808 122.092C590.551 121.529 590.261 120.988 589.972 120.448C589.883 120.282 589.808 120.11 589.716 119.946C589.598 119.735 589.473 119.529 589.35 119.322C589.106 118.907 588.84 118.512 588.578 118.113C588.384 117.818 588.213 117.509 588.008 117.221H588.007L587.996 117.226Z" fill="#6271B5"/>
<path d="M540.126 152.933L540.15 152.923L557.305 145.838C557.305 145.838 557.305 145.837 557.304 145.837L556.763 146.061L556.762 146.061L556.762 146.061L557.303 145.837C557.131 145.726 556.961 145.61 556.795 145.488C553.821 143.318 550.199 139.488 551.014 132.501V132.501L534.155 139.465C534.196 139.714 534.254 139.958 534.301 140.205C534.306 140.235 534.313 140.265 534.319 140.296C534.359 140.502 534.396 140.708 534.44 140.913C534.614 141.719 534.818 142.515 535.059 143.3C535.123 143.51 535.197 143.714 535.265 143.921C535.48 144.569 535.717 145.208 535.976 145.838C536.058 146.041 536.134 146.246 536.221 146.445C536.539 147.172 536.891 147.884 537.268 148.583C537.281 148.607 537.295 148.631 537.309 148.655C537.421 148.861 537.537 149.064 537.654 149.268C537.995 149.864 538.356 150.449 538.74 151.02C538.831 151.156 538.913 151.297 539.006 151.431C539.362 151.942 539.735 152.444 540.125 152.933L540.126 152.933H540.126V152.933Z" fill="#6271B5"/>
</svg>
