<svg width="20" height="21" viewBox="0 0 20 21" fill="none" xmlns="http://www.w3.org/2000/svg">
<path d="M1.66663 9.28406H18.3333V16.8106C18.3333 17.0324 18.2455 17.2451 18.0892 17.4019C17.9329 17.5588 17.721 17.6469 17.5 17.6469H2.49996C2.27895 17.6469 2.06698 17.5588 1.9107 17.4019C1.75442 17.2451 1.66663 17.0324 1.66663 16.8106V9.28406ZM14.1666 2.59379H17.5C17.721 2.59379 17.9329 2.6819 18.0892 2.83873C18.2455 2.99557 18.3333 3.20828 18.3333 3.43008V7.61149H1.66663V3.43008C1.66663 3.20828 1.75442 2.99557 1.9107 2.83873C2.06698 2.6819 2.27895 2.59379 2.49996 2.59379H5.83329V0.921227H7.49996V2.59379H12.5V0.921227H14.1666V2.59379Z" fill="#374293"/>
</svg>
