<svg width="24" height="24" viewBox="0 0 24 24" fill="none" xmlns="http://www.w3.org/2000/svg">
<path d="M5 20.0746C4.44772 20.0746 3.99215 19.6242 4.07643 19.0784C4.28585 17.7221 4.91933 16.4577 5.89837 15.4751C7.11387 14.2553 8.76245 13.57 10.4814 13.57C12.2004 13.57 13.849 14.2553 15.0645 15.4751C16.0435 16.4577 16.677 17.7221 16.8864 19.0784C16.9707 19.6242 16.5152 20.0746 15.9629 20.0746H5ZM10.4814 12.7569C7.79569 12.7569 5.62036 10.5738 5.62036 7.87845C5.62036 5.1831 7.79569 3 10.4814 3C13.1672 3 15.3425 5.1831 15.3425 7.87845C15.3425 10.5738 13.1672 12.7569 10.4814 12.7569ZM17.0819 15.3584C16.909 15.1151 17.1277 14.7838 17.4004 14.9053C18.252 15.2847 19.0097 15.8576 19.6108 16.5839C20.2002 17.2961 20.6173 18.1297 20.8363 19.0195C20.9745 19.5813 20.5095 20.0746 19.931 20.0746H19.5832C19.0309 20.0746 18.5897 19.6252 18.5229 19.0769C18.3552 17.7019 17.8455 16.4331 17.0819 15.3584ZM15.8882 12.7207C15.4655 12.7783 15.2845 12.268 15.5501 11.9341C15.8909 11.5057 16.1772 11.0345 16.4011 10.5313C16.7725 9.69661 16.9639 8.79258 16.9629 7.87845C16.964 7.13112 16.8363 6.39205 16.588 5.69322C16.445 5.29087 16.7826 4.86684 17.1637 5.05936C17.6666 5.3134 18.1149 5.6717 18.4767 6.11505C19.0697 6.84179 19.3936 7.7522 19.3934 8.69152C19.3936 9.27081 19.2705 9.84345 19.0322 10.3711C18.7939 10.8987 18.4459 11.3691 18.0117 11.7507C17.5775 12.1324 17.067 12.4165 16.5144 12.584C16.309 12.6462 16.0997 12.6919 15.8882 12.7207Z" fill="#374293"/>
</svg>
