<svg width="20" height="20" viewBox="0 0 20 20" fill="none" xmlns="http://www.w3.org/2000/svg">
<path d="M13.75 12.5432V17.6298C13.75 17.6953 13.7324 17.7596 13.699 17.8162C13.6656 17.8728 13.6176 17.9196 13.5599 17.9519C13.5022 17.9842 13.4368 18.0008 13.3705 18C13.3041 17.9992 13.2392 17.981 13.1822 17.9474L10 16.0628L6.81775 17.9474C6.76078 17.9811 6.69577 17.9992 6.62936 18C6.56295 18.0007 6.49753 17.9841 6.43978 17.9517C6.38204 17.9193 6.33404 17.8724 6.30069 17.8157C6.26735 17.759 6.24985 17.6946 6.25 17.6291V12.544C5.27961 11.7772 4.57449 10.7319 4.23209 9.55254C3.88969 8.37317 3.92692 7.11795 4.33862 5.96036C4.75032 4.80277 5.51617 3.79995 6.53034 3.0905C7.5445 2.38105 8.75691 2 10 2C11.2431 2 12.4555 2.38105 13.4697 3.0905C14.4838 3.79995 15.2497 4.80277 15.6614 5.96036C16.0731 7.11795 16.1103 8.37317 15.7679 9.55254C15.4255 10.7319 14.7204 11.7772 13.75 12.544V12.5432ZM10 12.3619C11.1935 12.3619 12.3381 11.894 13.182 11.0611C14.0259 10.2283 14.5 9.09863 14.5 7.92077C14.5 6.74291 14.0259 5.61329 13.182 4.78041C12.3381 3.94754 11.1935 3.47964 10 3.47964C8.80653 3.47964 7.66193 3.94754 6.81802 4.78041C5.97411 5.61329 5.5 6.74291 5.5 7.92077C5.5 9.09863 5.97411 10.2283 6.81802 11.0611C7.66193 11.894 8.80653 12.3619 10 12.3619V12.3619ZM10 10.8815C9.20435 10.8815 8.44129 10.5696 7.87868 10.0143C7.31607 9.45909 7 8.70601 7 7.92077C7 7.13553 7.31607 6.38245 7.87868 5.8272C8.44129 5.27195 9.20435 4.96001 10 4.96001C10.7956 4.96001 11.5587 5.27195 12.1213 5.8272C12.6839 6.38245 13 7.13553 13 7.92077C13 8.70601 12.6839 9.45909 12.1213 10.0143C11.5587 10.5696 10.7956 10.8815 10 10.8815Z" fill="#374293"/>
</svg>
