<svg width="504" height="131" viewBox="0 0 504 131" fill="none" xmlns="http://www.w3.org/2000/svg">
<path d="M333.664 95.3234V78.618H317.366V95.3234H333.664Z" fill="#374293"/>
<path d="M30.6922 35.3606C17.1655 35.3606 5.32529 44.446 1.82424 57.5117C-1.67661 70.5776 4.03446 84.3658 15.7488 91.1293C27.463 97.8929 42.2596 95.9451 51.8247 86.3804L40.2101 74.7657C36.3603 78.6155 30.5705 79.7673 25.5406 77.6838C20.5107 75.6004 17.231 70.6919 17.231 65.2476C17.231 59.8032 20.5107 54.8948 25.5406 52.8113C30.5705 50.7279 36.3603 51.8795 40.2101 55.7293L51.8247 44.1138C46.2325 38.4904 38.623 35.3385 30.6922 35.3606Z" fill="#374293"/>
<path d="M75.9524 0.52356H59.5269V95.5359H75.9524V0.52356Z" fill="#374293"/>
<path d="M86.0369 35.7619H86.035C82.577 35.7587 79.1522 36.4351 75.9552 37.7533V37.7625L75.9524 37.7542V37.7533C66.0215 41.8487 59.5376 51.5258 59.5269 62.2684V95.5358H75.9524V62.2693V59.42L75.9552 59.3983V62.2693C75.9552 56.7018 80.4686 52.1887 86.036 52.1887C91.6033 52.1887 96.1168 56.7018 96.1168 62.2693V95.5366H112.542V62.2693C112.526 47.6371 100.669 35.7789 86.0369 35.7619Z" fill="#374293"/>
<path d="M75.9524 37.7533C66.0215 41.8487 59.5376 51.5258 59.5269 62.2684V95.5358H75.9524V62.2693V59.42V37.7533Z" fill="#6271B5"/>
<path d="M182.688 61.5188L179.462 53.8897L179.411 53.7694L179.401 53.7454L179.358 53.645L179.348 53.6226L179.297 53.5055L179.286 53.4792L179.252 53.4006L179.222 53.3351L179.21 53.3057C178.409 51.5203 177.434 49.8171 176.301 48.2209H176.299L122.448 70.4652C123.254 75.391 125.31 80.0276 128.418 83.9334L182.688 61.5188Z" fill="#374293"/>
<path d="M152.522 78.6626C150.085 78.7501 147.675 78.115 145.597 76.8374C145.425 76.7261 145.254 76.6095 145.088 76.4879C142.114 74.3178 138.492 70.4882 139.307 63.5014V63.4853C139.806 58.9062 142.702 54.9378 146.911 53.0667C148.381 52.4172 149.972 52.0849 151.579 52.0903C154.459 52.0945 157.257 53.0529 159.535 54.8163C159.621 54.8889 159.706 54.964 159.791 55.0415L159.793 55.0409C164.165 59.0471 166.116 68.3208 166.125 68.3628L182.688 61.5188L179.462 53.8897L179.411 53.7694L179.401 53.7454L179.358 53.6451L179.348 53.6226L179.297 53.5055L179.286 53.4792L179.252 53.4006L179.222 53.3351L179.21 53.3057C179.177 53.2329 179.134 53.1648 179.101 53.092C178.765 52.3571 178.398 51.6436 178.009 50.9459C177.891 50.735 177.766 50.5292 177.643 50.3215C177.283 49.7103 176.903 49.1158 176.503 48.5365C176.432 48.4337 176.374 48.3227 176.301 48.2209H176.299L176.289 48.2256C170.756 40.4241 161.724 35.6277 151.922 35.6411L151.929 35.6382C135.431 35.6562 122.061 49.0263 122.042 65.5245C122.042 67.2114 122.214 68.8486 122.478 70.4521L122.448 70.4652C122.489 70.7138 122.546 70.9579 122.594 71.2048C122.639 71.4413 122.682 71.6777 122.733 71.9122C122.907 72.718 123.111 73.5148 123.351 74.3005C123.416 74.51 123.49 74.7136 123.558 74.9207C123.773 75.5687 124.009 76.2079 124.268 76.8384C124.351 77.0406 124.427 77.2456 124.514 77.445C124.832 78.1722 125.184 78.8837 125.561 79.5828C125.685 79.8139 125.816 80.0404 125.946 80.2679C126.288 80.8643 126.649 81.4497 127.033 82.0216C127.124 82.1561 127.206 82.2966 127.298 82.4296C127.655 82.9418 128.028 83.4433 128.418 83.9334C128.418 83.9328 128.418 83.9334 128.418 83.9334L128.443 83.9236C134.03 90.9449 142.792 95.4112 152.845 95.4112C161.758 95.4112 168.906 92.5674 176.734 85.9035L166.089 73.3944C161.238 77.5218 157.449 78.6626 152.522 78.6626Z" fill="#374293"/>
<path d="M176.289 48.2256L159.79 55.0406L159.791 55.0415L159.793 55.0409C164.158 59.0411 166.11 68.2904 166.124 68.36L182.688 61.5188L179.462 53.8897L179.411 53.7694L179.401 53.7454L179.358 53.645L179.348 53.6226L179.297 53.5055L179.286 53.4792L179.252 53.4006L179.222 53.3351L179.21 53.3057C179.177 53.2329 179.134 53.1648 179.101 53.092C178.844 52.5293 178.554 51.9884 178.265 51.4478C178.176 51.282 178.101 51.1098 178.009 50.9455C177.891 50.735 177.766 50.5292 177.643 50.3215C177.399 49.9075 177.133 49.5119 176.871 49.1125C176.677 48.8177 176.506 48.5087 176.301 48.2209H176.299L176.289 48.2256Z" fill="#6271B5"/>
<path d="M128.419 83.9329L128.442 83.9233L145.598 76.838V76.838L145.056 77.0609L145.596 76.8374C145.424 76.7261 145.254 76.6095 145.088 76.4879C142.114 74.3178 138.492 70.4882 139.307 63.5014L122.448 70.4652C122.489 70.7138 122.546 70.9579 122.594 71.2048C122.599 71.2352 122.606 71.265 122.611 71.2955C122.651 71.5017 122.689 71.7084 122.733 71.9135C122.907 72.719 123.111 73.5152 123.351 74.3005C123.416 74.51 123.49 74.7136 123.558 74.9207C123.773 75.5687 124.009 76.2079 124.268 76.8384C124.351 77.0406 124.427 77.2456 124.514 77.445C124.832 78.1722 125.184 78.8837 125.56 79.5828C125.574 79.6067 125.588 79.6307 125.601 79.6554C125.714 79.8608 125.83 80.0644 125.946 80.2679C126.288 80.864 126.648 81.4487 127.032 82.0203C127.123 82.1557 127.206 82.2966 127.299 82.4306C127.655 82.9423 128.028 83.4437 128.418 83.9334L128.419 83.9329Z" fill="#6271B5"/>
<path d="M219.297 35.3606C205.77 35.3606 193.93 44.446 190.429 57.5117C186.928 70.5776 192.639 84.3658 204.353 91.1293C216.068 97.8929 230.864 95.9451 240.429 86.3804L228.815 74.7657C224.965 78.6155 219.175 79.7673 214.145 77.6838C209.115 75.6004 205.835 70.6919 205.835 65.2476C205.835 59.8032 209.115 54.8948 214.145 52.8113C219.175 50.7279 224.965 51.8795 228.815 55.7293L240.429 44.1138C234.837 38.4904 227.227 35.3385 219.297 35.3606Z" fill="#374293"/>
<path d="M276.557 35.5644C260.06 35.584 246.691 48.9527 246.671 65.4498C246.671 77.5379 253.952 88.436 265.12 93.0621C276.288 97.6881 289.143 95.1312 297.691 86.5836C306.238 78.0361 308.795 65.1812 304.169 54.0133C299.543 42.8453 288.645 35.5638 276.557 35.5644ZM276.557 78.9096C269.126 78.9006 263.104 72.8788 263.096 65.4479C263.096 60.0032 266.376 55.0944 271.406 53.0109C276.437 50.9273 282.227 52.0793 286.077 55.9295C289.927 59.7795 291.078 65.5698 288.994 70.6003C286.911 75.6304 282.002 78.91 276.557 78.9096Z" fill="#BDD2E5"/>
<path d="M306.449 35.5642H290.023V130.576H306.449V35.5642Z" fill="#9AAFD4"/>
<path d="M290.023 38.7887C296.278 41.9496 301.373 47.2638 304.169 54.0132C308.795 65.1812 306.238 78.0361 297.691 86.5836C295.406 88.868 292.808 90.7096 290.023 92.1153V38.7887Z" fill="#A4BDD8"/>
<path d="M276.557 35.5644C260.06 35.584 246.691 48.9527 246.671 65.4498C246.671 77.5379 253.952 88.436 265.12 93.0621C276.288 97.6881 289.143 95.1312 297.691 86.5836C306.238 78.0361 308.795 65.1812 304.169 54.0133C299.543 42.8453 288.645 35.5638 276.557 35.5644ZM276.557 78.9096C269.126 78.9006 263.104 72.8788 263.096 65.4479C263.096 60.0032 266.376 55.0944 271.406 53.0109C276.437 50.9273 282.227 52.0793 286.077 55.9295C289.927 59.7795 291.078 65.5698 288.994 70.6003C286.911 75.6304 282.002 78.91 276.557 78.9096Z" fill="#374293"/>
<path d="M306.449 35.5642H290.023V130.576H306.449V35.5642Z" fill="#374293"/>
<path d="M290.023 38.7887C296.278 41.9496 301.373 47.2638 304.169 54.0132C308.795 65.1812 306.238 78.0361 297.691 86.5836C295.406 88.868 292.808 90.7096 290.023 92.1153V38.7887Z" fill="#6271B5"/>
<path d="M388.995 42.7674V42.7651C388.995 42.7655 388.995 42.7661 388.994 42.7664C384.126 38.1394 377.665 35.5614 370.948 35.567V35.5642C367.578 35.5604 364.238 36.2093 361.114 37.4749V37.4739C351.195 41.4932 344.7 51.121 344.688 61.8232V95.3782H361.114V61.826C361.114 56.3945 365.517 51.9914 370.948 51.9914C376.38 51.9914 380.783 56.3945 380.783 61.826V95.3782H397.208V61.826C397.212 54.6132 394.241 47.7185 388.995 42.7674Z" fill="#374293"/>
<path d="M425.091 42.7674V42.7651C425.09 42.7655 425.09 42.7661 425.089 42.7664C420.221 38.1394 413.76 35.5614 407.044 35.567V35.5642C403.673 35.5604 400.334 36.2093 397.209 37.4749V37.4739C387.29 41.4932 380.795 51.121 380.784 61.8232V95.3782H397.209V61.826C397.209 56.3945 401.612 51.9914 407.044 51.9914C412.475 51.9914 416.878 56.3945 416.878 61.826V95.3782H433.304V61.826C433.307 54.6132 430.336 47.7185 425.091 42.7674Z" fill="#374293"/>
<path d="M388.995 42.7674V42.7651C388.995 42.7655 388.995 42.7661 388.994 42.7665C388.993 42.7651 388.991 42.7646 388.99 42.7632C383.858 47.6311 380.792 54.4736 380.784 61.8232V95.3782H397.208V61.826C397.212 54.6132 394.241 47.7185 388.995 42.7674Z" fill="#6271B5"/>
<path d="M503.395 61.5188L500.17 53.8897L500.118 53.7694L500.108 53.7454L500.065 53.645L500.055 53.6226L500.004 53.5055L499.993 53.4792L499.959 53.4006L499.929 53.3351L499.917 53.3057C499.116 51.5203 498.142 49.8171 497.008 48.2209H497.007L443.155 70.4652C443.962 75.391 446.017 80.0276 449.125 83.9334L503.395 61.5188Z" fill="#374293"/>
<path d="M473.23 78.6626C470.792 78.7501 468.383 78.115 466.304 76.8374C466.132 76.7261 465.961 76.6095 465.795 76.4879C462.821 74.3178 459.199 70.4882 460.014 63.5014V63.4853C460.513 58.9062 463.409 54.9378 467.619 53.0667C469.089 52.4172 470.679 52.0849 472.286 52.0903C475.167 52.0945 477.965 53.0529 480.243 54.8163C480.328 54.8889 480.413 54.964 480.498 55.0415L480.5 55.0409C484.872 59.0471 486.824 68.3208 486.832 68.3628L503.396 61.5188L500.17 53.8897L500.119 53.7694L500.108 53.7454L500.066 53.6451L500.055 53.6226L500.004 53.5055L499.993 53.4792L499.959 53.4006L499.93 53.3351L499.917 53.3057C499.884 53.2329 499.841 53.1648 499.808 53.092C499.472 52.3571 499.105 51.6436 498.716 50.9459C498.598 50.735 498.473 50.5292 498.35 50.3215C497.99 49.7103 497.61 49.1158 497.21 48.5365C497.139 48.4337 497.081 48.3227 497.009 48.2209H497.007L496.996 48.2256C491.463 40.4241 482.431 35.6277 472.629 35.6411L472.636 35.6382C456.138 35.6562 442.768 49.0263 442.749 65.5245C442.749 67.2114 442.922 68.8486 443.186 70.4521L443.155 70.4652C443.196 70.7138 443.254 70.9579 443.301 71.2048C443.346 71.4413 443.389 71.6777 443.44 71.9122C443.614 72.718 443.818 73.5148 444.059 74.3005C444.123 74.51 444.197 74.7136 444.265 74.9207C444.48 75.5687 444.717 76.2079 444.976 76.8384C445.058 77.0406 445.134 77.2456 445.222 77.445C445.54 78.1722 445.892 78.8837 446.268 79.5828C446.392 79.8139 446.523 80.0404 446.654 80.2679C446.995 80.8643 447.356 81.4497 447.741 82.0216C447.831 82.1561 447.913 82.2966 448.006 82.4296C448.362 82.9418 448.735 83.4433 449.125 83.9334V83.9334L449.15 83.9236C454.738 90.9449 463.499 95.4112 473.553 95.4112C482.465 95.4112 489.613 92.5674 497.441 85.9035L486.796 73.3944C481.945 77.5218 478.156 78.6626 473.23 78.6626Z" fill="#374293"/>
<path d="M496.996 48.2256L480.497 55.0406C480.497 55.0409 480.498 55.0409 480.498 55.0415L480.5 55.0409C484.866 59.0411 486.817 68.2904 486.831 68.36L503.395 61.5188L500.17 53.8897L500.118 53.7694L500.108 53.7454L500.065 53.645L500.055 53.6226L500.004 53.5055L499.993 53.4792L499.959 53.4006L499.929 53.3351L499.917 53.3057C499.884 53.2329 499.841 53.1648 499.808 53.092C499.551 52.5293 499.261 51.9884 498.972 51.4478C498.883 51.282 498.808 51.1098 498.716 50.9455C498.598 50.735 498.473 50.5292 498.35 50.3215C498.106 49.9075 497.84 49.5119 497.578 49.1125C497.384 48.8177 497.213 48.5087 497.008 48.2209H497.007L496.996 48.2256Z" fill="#6271B5"/>
<path d="M449.126 83.9329L449.15 83.9232L466.305 76.838C466.305 76.838 466.305 76.8374 466.304 76.8374L465.763 77.0609L465.762 77.0613L465.762 77.0609L466.303 76.8374C466.131 76.7261 465.961 76.6095 465.795 76.4879C462.821 74.3178 459.199 70.4882 460.014 63.5014V63.501L443.155 70.4652C443.196 70.7138 443.254 70.9579 443.301 71.2048C443.306 71.2352 443.313 71.265 443.319 71.2955C443.359 71.5017 443.396 71.7084 443.44 71.9135C443.614 72.719 443.818 73.5152 444.059 74.3005C444.123 74.51 444.197 74.7136 444.265 74.9207C444.48 75.5686 444.717 76.2079 444.976 76.8383C445.058 77.0405 445.134 77.2456 445.221 77.445C445.539 78.1722 445.891 78.8837 446.268 79.5828C446.281 79.6067 446.295 79.6307 446.309 79.6554C446.421 79.8608 446.537 80.0643 446.654 80.2679C446.995 80.864 447.356 81.4487 447.74 82.0203C447.831 82.1557 447.913 82.2966 448.006 82.4306C448.362 82.9423 448.735 83.4437 449.125 83.9334L449.126 83.9328H449.126V83.9329Z" fill="#6271B5"/>
</svg>
