<svg width="504" height="131" viewBox="0 0 504 131" fill="none" xmlns="http://www.w3.org/2000/svg">
<path d="M333.664 95.6595V78.9541H317.366V95.6595H333.664Z" fill="#B3BEDA"/>
<path d="M30.6922 35.6966C17.1655 35.6966 5.32529 44.782 1.82424 57.8477C-1.67661 70.9137 4.03446 84.7019 15.7488 91.4653C27.463 98.229 42.2596 96.2811 51.8247 86.7165L40.2101 75.1017C36.3603 78.9515 30.5705 80.1033 25.5406 78.0199C20.5107 75.9364 17.231 71.028 17.231 65.5836C17.231 60.1393 20.5107 55.2308 25.5406 53.1474C30.5705 51.0639 36.3603 52.2155 40.2101 56.0653L51.8247 44.4498C46.2325 38.8265 38.623 35.6746 30.6922 35.6966Z" fill="#B3BEDA"/>
<path d="M75.9524 0.859604H59.5269V95.8719H75.9524V0.859604Z" fill="#B3BEDA"/>
<path d="M86.0369 36.0979H86.035C82.577 36.0947 79.1522 36.7712 75.9552 38.0893V38.0986L75.9524 38.0903V38.0893C66.0215 42.1848 59.5376 51.8619 59.5269 62.6044V95.8719H75.9524V62.6053V59.756L75.9552 59.7343V62.6053C75.9552 57.0378 80.4686 52.5248 86.036 52.5248C91.6033 52.5248 96.1168 57.0378 96.1168 62.6053V95.8726H112.542V62.6053C112.526 47.9732 100.669 36.1149 86.0369 36.0979Z" fill="#B3BEDA"/>
<path d="M75.9524 38.0894C66.0215 42.1848 59.5376 51.8619 59.5269 62.6044V95.8719H75.9524V62.6054V59.756V38.0894Z" fill="#DADFED"/>
<path d="M182.688 61.8549L179.462 54.2258L179.411 54.1054L179.401 54.0815L179.358 53.9811L179.348 53.9587L179.297 53.8415L179.286 53.8153L179.252 53.7366L179.222 53.6712L179.21 53.6418C178.409 51.8563 177.434 50.1532 176.301 48.5569H176.299L122.448 70.8012C123.254 75.727 125.31 80.3636 128.418 84.2695L182.688 61.8549Z" fill="#B3BEDA"/>
<path d="M152.522 78.9987C150.085 79.0862 147.675 78.4511 145.597 77.1735C145.425 77.0622 145.254 76.9456 145.088 76.8239C142.114 74.6539 138.492 70.8242 139.307 63.8374V63.8214C139.806 59.2423 142.702 55.2738 146.911 53.4028C148.381 52.7533 149.972 52.4209 151.579 52.4264C154.459 52.4305 157.257 53.389 159.535 55.1523C159.621 55.225 159.706 55.3 159.791 55.3776L159.793 55.377C164.165 59.3832 166.116 68.6568 166.125 68.6989L182.688 61.8549L179.462 54.2258L179.411 54.1054L179.401 54.0815L179.358 53.9811L179.348 53.9587L179.297 53.8415L179.286 53.8153L179.252 53.7366L179.222 53.6712L179.21 53.6418C179.177 53.5689 179.134 53.5009 179.101 53.428C178.765 52.6931 178.398 51.9797 178.009 51.2819C177.891 51.0711 177.766 50.8653 177.643 50.6576C177.283 50.0464 176.903 49.4518 176.503 48.8725C176.432 48.7697 176.374 48.6588 176.301 48.5569H176.299L176.289 48.5617C170.756 40.7601 161.724 35.9637 151.922 35.9771L151.929 35.9743C135.431 35.9922 122.061 49.3624 122.042 65.8605C122.042 67.5475 122.214 69.1846 122.478 70.7882L122.448 70.8012C122.489 71.0498 122.546 71.2939 122.594 71.5409C122.639 71.7774 122.682 72.0138 122.733 72.2482C122.907 73.0541 123.111 73.8509 123.351 74.6365C123.416 74.8461 123.49 75.0496 123.558 75.2568C123.773 75.9047 124.009 76.544 124.268 77.1744C124.351 77.3766 124.427 77.5817 124.514 77.781C124.832 78.5082 125.184 79.2197 125.561 79.9188C125.685 80.1499 125.816 80.3764 125.946 80.6039C126.288 81.2004 126.649 81.7857 127.033 82.3577C127.124 82.4922 127.206 82.6327 127.298 82.7657C127.655 83.2778 128.028 83.7794 128.418 84.2695C128.418 84.2689 128.418 84.2695 128.418 84.2695L128.443 84.2597C134.03 91.281 142.792 95.7473 152.845 95.7473C161.758 95.7473 168.906 92.9034 176.734 86.2396L166.089 73.7305C161.238 77.8578 157.449 78.9987 152.522 78.9987Z" fill="#B3BEDA"/>
<path d="M176.289 48.5617L159.79 55.3766C159.79 55.377 159.79 55.377 159.791 55.3776L159.793 55.377C164.158 59.3772 166.11 68.6265 166.124 68.6961L182.688 61.8549L179.462 54.2258L179.411 54.1054L179.401 54.0815L179.358 53.9811L179.348 53.9587L179.297 53.8415L179.286 53.8153L179.252 53.7366L179.222 53.6712L179.21 53.6418C179.177 53.5689 179.134 53.5008 179.101 53.428C178.844 52.8653 178.554 52.3245 178.265 51.7839C178.176 51.6181 178.101 51.4459 178.009 51.2816C177.891 51.0711 177.766 50.8652 177.643 50.6576C177.399 50.2435 177.133 49.8479 176.871 49.4486C176.677 49.1538 176.506 48.8448 176.301 48.5569H176.299L176.289 48.5617Z" fill="#DADFED"/>
<path d="M128.419 84.2689L128.442 84.2593L145.598 77.174C145.598 77.174 145.597 77.1734 145.597 77.1734L145.056 77.397L145.055 77.3974L145.055 77.397L145.596 77.1734C145.424 77.0622 145.254 76.9456 145.088 76.8239C142.114 74.6539 138.492 70.8242 139.307 63.8374V63.837L122.448 70.8012C122.489 71.0498 122.546 71.2939 122.594 71.5408C122.599 71.5712 122.606 71.601 122.611 71.6316C122.651 71.8378 122.689 72.0445 122.733 72.2495C122.907 73.055 123.111 73.8512 123.351 74.6365C123.416 74.8461 123.49 75.0496 123.558 75.2567C123.773 75.9047 124.009 76.544 124.268 77.1744C124.351 77.3766 124.427 77.5817 124.514 77.781C124.832 78.5082 125.184 79.2197 125.56 79.9188C125.574 79.9428 125.588 79.9667 125.601 79.9914C125.714 80.1969 125.83 80.4004 125.946 80.604C126.288 81.2 126.648 81.7848 127.032 82.3563C127.123 82.4918 127.206 82.6327 127.299 82.7666C127.655 83.2784 128.028 83.7798 128.418 84.2695L128.419 84.2689H128.419V84.2689Z" fill="#DADFED"/>
<path d="M219.297 35.6966C205.77 35.6966 193.93 44.782 190.429 57.8477C186.928 70.9137 192.639 84.7019 204.353 91.4653C216.068 98.229 230.864 96.2811 240.429 86.7165L228.815 75.1017C224.965 78.9515 219.175 80.1033 214.145 78.0199C209.115 75.9364 205.835 71.028 205.835 65.5836C205.835 60.1393 209.115 55.2308 214.145 53.1474C219.175 51.0639 224.965 52.2155 228.815 56.0653L240.429 44.4498C234.837 38.8265 227.227 35.6746 219.297 35.6966Z" fill="#B3BEDA"/>
<path d="M276.557 35.9004C260.06 35.9201 246.691 49.2887 246.671 65.7859C246.671 77.8739 253.952 88.7721 265.12 93.3981C276.288 98.0242 289.143 95.4673 297.691 86.9197C306.238 78.3721 308.795 65.5173 304.169 54.3494C299.543 43.1813 288.645 35.8999 276.557 35.9004ZM276.557 79.2457C269.126 79.2366 263.104 73.2149 263.096 65.784C263.096 60.3393 266.376 55.4305 271.406 53.347C276.437 51.2633 282.227 52.4153 286.077 56.2655C289.927 60.1156 291.078 65.9059 288.994 70.9364C286.911 75.9665 282.002 79.2461 276.557 79.2457Z" fill="#BDD2E5"/>
<path d="M306.449 35.9002H290.023V130.913H306.449V35.9002Z" fill="#9AAFD4"/>
<path d="M290.023 39.1247C296.278 42.2857 301.373 47.5999 304.169 54.3492C308.795 65.5173 306.238 78.3721 297.691 86.9197C295.406 89.204 292.808 91.0457 290.023 92.4514V39.1247Z" fill="#A4BDD8"/>
<path d="M276.557 35.9004C260.06 35.9201 246.691 49.2887 246.671 65.7859C246.671 77.8739 253.952 88.7721 265.12 93.3981C276.288 98.0242 289.143 95.4673 297.691 86.9197C306.238 78.3721 308.795 65.5173 304.169 54.3494C299.543 43.1813 288.645 35.8999 276.557 35.9004ZM276.557 79.2457C269.126 79.2366 263.104 73.2149 263.096 65.784C263.096 60.3393 266.376 55.4305 271.406 53.347C276.437 51.2633 282.227 52.4153 286.077 56.2655C289.927 60.1156 291.078 65.9059 288.994 70.9364C286.911 75.9665 282.002 79.2461 276.557 79.2457Z" fill="#B3BEDA"/>
<path d="M306.449 35.9002H290.023V130.913H306.449V35.9002Z" fill="#B3BEDA"/>
<path d="M290.023 39.1247C296.278 42.2857 301.373 47.5999 304.169 54.3492C308.795 65.5173 306.238 78.3721 297.691 86.9197C295.406 89.204 292.808 91.0457 290.023 92.4514V39.1247Z" fill="#DADFED"/>
<path d="M388.995 43.1034V43.1012C388.995 43.1016 388.995 43.1021 388.994 43.1025C384.126 38.4755 377.665 35.8974 370.948 35.9031V35.9003C367.578 35.8965 364.238 36.5454 361.114 37.8109V37.81C351.195 41.8292 344.7 51.4571 344.688 62.1592V95.7142H361.114V62.1621C361.114 56.7305 365.517 52.3275 370.948 52.3275C376.38 52.3275 380.783 56.7305 380.783 62.1621V95.7142H397.208V62.1621C397.212 54.9493 394.241 48.0545 388.995 43.1034Z" fill="#B3BEDA"/>
<path d="M425.091 43.1035V43.1012C425.09 43.1016 425.09 43.1021 425.089 43.1025C420.221 38.4755 413.76 35.8974 407.044 35.9031V35.9003C403.673 35.8965 400.334 36.5454 397.209 37.8109V37.81C387.29 41.8292 380.795 51.4571 380.784 62.1593V95.7142H397.209V62.1621C397.209 56.7306 401.612 52.3275 407.044 52.3275C412.475 52.3275 416.878 56.7306 416.878 62.1621V95.7142H433.304V62.1621C433.307 54.9493 430.336 48.0545 425.091 43.1035Z" fill="#B3BEDA"/>
<path d="M388.995 43.1034V43.1012C388.995 43.1016 388.995 43.1021 388.994 43.1025C388.993 43.1012 388.991 43.1006 388.99 43.0993C383.858 47.9672 380.792 54.8097 380.784 62.1592V95.7142H397.208V62.1621C397.212 54.9493 394.241 48.0545 388.995 43.1034Z" fill="#DADFED"/>
<path d="M503.395 61.8549L500.17 54.2258L500.118 54.1054L500.108 54.0815L500.065 53.9811L500.055 53.9587L500.004 53.8415L499.993 53.8153L499.959 53.7366L499.929 53.6712L499.917 53.6418C499.116 51.8563 498.142 50.1532 497.008 48.5569H497.007L443.155 70.8012C443.962 75.727 446.017 80.3636 449.125 84.2695L503.395 61.8549Z" fill="#B3BEDA"/>
<path d="M473.23 78.9987C470.792 79.0862 468.383 78.4511 466.304 77.1735C466.132 77.0622 465.961 76.9456 465.795 76.8239C462.821 74.6539 459.199 70.8242 460.014 63.8374V63.8214C460.513 59.2423 463.409 55.2738 467.619 53.4028C469.089 52.7533 470.679 52.4209 472.286 52.4264C475.167 52.4305 477.965 53.389 480.243 55.1523C480.328 55.225 480.413 55.3 480.498 55.3776L480.5 55.377C484.872 59.3832 486.824 68.6568 486.832 68.6989L503.396 61.8549L500.17 54.2258L500.119 54.1054L500.108 54.0815L500.066 53.9811L500.055 53.9587L500.004 53.8415L499.993 53.8153L499.959 53.7366L499.93 53.6712L499.917 53.6418C499.884 53.5689 499.841 53.5009 499.808 53.428C499.472 52.6931 499.105 51.9797 498.716 51.2819C498.598 51.0711 498.473 50.8653 498.35 50.6576C497.99 50.0464 497.61 49.4518 497.21 48.8725C497.139 48.7697 497.081 48.6588 497.009 48.5569H497.007L496.996 48.5617C491.463 40.7601 482.431 35.9637 472.629 35.9771L472.636 35.9743C456.138 35.9922 442.768 49.3624 442.749 65.8605C442.749 67.5475 442.922 69.1846 443.186 70.7882L443.155 70.8012C443.196 71.0498 443.254 71.2939 443.301 71.5409C443.346 71.7774 443.389 72.0138 443.44 72.2482C443.614 73.0541 443.818 73.8509 444.059 74.6365C444.123 74.8461 444.197 75.0496 444.265 75.2568C444.48 75.9047 444.717 76.544 444.976 77.1744C445.058 77.3766 445.134 77.5817 445.222 77.781C445.54 78.5082 445.892 79.2197 446.268 79.9188C446.392 80.1499 446.523 80.3764 446.654 80.6039C446.995 81.2004 447.356 81.7857 447.741 82.3577C447.831 82.4922 447.913 82.6327 448.006 82.7657C448.362 83.2778 448.735 83.7794 449.125 84.2695V84.2695L449.15 84.2597C454.738 91.281 463.499 95.7473 473.553 95.7473C482.465 95.7473 489.613 92.9034 497.441 86.2396L486.796 73.7305C481.945 77.8578 478.156 78.9987 473.23 78.9987Z" fill="#B3BEDA"/>
<path d="M496.996 48.5617L480.497 55.3766C480.497 55.377 480.498 55.377 480.498 55.3776L480.5 55.377C484.866 59.3772 486.817 68.6265 486.831 68.6961L503.395 61.8549L500.17 54.2258L500.118 54.1054L500.108 54.0815L500.065 53.9811L500.055 53.9587L500.004 53.8415L499.993 53.8153L499.959 53.7366L499.929 53.6712L499.917 53.6418C499.884 53.5689 499.841 53.5008 499.808 53.428C499.551 52.8653 499.261 52.3245 498.972 51.7839C498.883 51.6181 498.808 51.4459 498.716 51.2816C498.598 51.0711 498.473 50.8652 498.35 50.6576C498.106 50.2435 497.84 49.8479 497.578 49.4486C497.384 49.1538 497.213 48.8448 497.008 48.5569H497.007L496.996 48.5617Z" fill="#DADFED"/>
<path d="M449.126 84.2689L449.15 84.2593L466.305 77.174C466.305 77.174 466.305 77.1734 466.304 77.1734L465.763 77.397L465.762 77.3974L465.762 77.397L466.303 77.1734C466.131 77.0622 465.961 76.9456 465.795 76.8239C462.821 74.6539 459.199 70.8242 460.014 63.8374V63.837L443.155 70.8012C443.196 71.0498 443.254 71.2939 443.301 71.5408C443.306 71.5712 443.313 71.601 443.319 71.6316C443.359 71.8378 443.396 72.0445 443.44 72.2495C443.614 73.055 443.818 73.8512 444.059 74.6365C444.123 74.8461 444.197 75.0496 444.265 75.2567C444.48 75.9047 444.717 76.544 444.976 77.1744C445.058 77.3766 445.134 77.5817 445.221 77.781C445.539 78.5082 445.891 79.2197 446.268 79.9188C446.281 79.9428 446.295 79.9667 446.309 79.9914C446.421 80.1969 446.537 80.4004 446.654 80.604C446.995 81.2 447.356 81.7848 447.74 82.3563C447.831 82.4918 447.913 82.6327 448.006 82.7666C448.362 83.2784 448.735 83.7798 449.125 84.2695L449.126 84.2689H449.126V84.2689Z" fill="#DADFED"/>
</svg>
